TwilioSansMono-HeavyItalic.ufo
<glyph name="ampersand" format="2">
	<unicode hex="0026"/>
	<advance width="600"/>
	<outline>
		<contour>
			<point x="199" y="-14" type="curve" smooth="yes"/>
			<point x="257" y="-14"/>
			<point x="310" y="1"/>
			<point x="359" y="30" type="curve"/>
			<point x="376" y="0" type="line"/>
			<point x="576" y="0" type="line"/>
			<point x="488" y="150" type="line"/>
			<point x="539" y="221"/>
			<point x="579" y="312"/>
			<point x="605" y="417" type="curve"/>
			<point x="447" y="416" type="line"/>
			<point x="435" y="370"/>
			<point x="421" y="328"/>
			<point x="405" y="291" type="curve"/>
			<point x="340" y="403" type="line" smooth="yes"/>
			<point x="323" y="432"/>
			<point x="314" y="452"/>
			<point x="314" y="477" type="curve" smooth="yes"/>
			<point x="314" y="521"/>
			<point x="341" y="545"/>
			<point x="392" y="545" type="curve" smooth="yes"/>
			<point x="434" y="545"/>
			<point x="481" y="529"/>
			<point x="526" y="504" type="curve"/>
			<point x="547" y="661" type="line"/>
			<point x="505" y="681"/>
			<point x="446" y="698"/>
			<point x="379" y="698" type="curve" smooth="yes"/>
			<point x="210" y="698"/>
			<point x="136" y="591"/>
			<point x="136" y="479" type="curve" smooth="yes"/>
			<point x="136" y="451"/>
			<point x="141" y="428"/>
			<point x="148" y="407" type="curve"/>
			<point x="49" y="355"/>
			<point x="-5" y="276"/>
			<point x="-5" y="175" type="curve" smooth="yes"/>
			<point x="-5" y="64"/>
			<point x="64" y="-14"/>
		</contour>
		<contour>
			<point x="161" y="209" type="curve" smooth="yes"/>
			<point x="161" y="248"/>
			<point x="180" y="274"/>
			<point x="210" y="290" type="curve"/>
			<point x="294" y="144" type="line"/>
			<point x="276" y="135"/>
			<point x="258" y="130"/>
			<point x="239" y="130" type="curve" smooth="yes"/>
			<point x="189" y="130"/>
			<point x="161" y="163"/>
		</contour>
	</outline>
</glyph>
<glyph name="parenleft" format="2">
	<unicode hex="0028"/>
	<advance width="600"/>
	<outline>
		<contour>
			<point x="415" y="-168" type="curve"/>
			<point x="489" y="-9" type="line"/>
			<point x="316" y="59"/>
			<point x="291" y="180"/>
			<point x="314" y="340" type="curve" smooth="yes"/>
			<point x="337" y="501"/>
			<point x="406" y="597"/>
			<point x="583" y="639" type="curve"/>
			<point x="550" y="798" type="line"/>
			<point x="286" y="740"/>
			<point x="169" y="586"/>
			<point x="138" y="351" type="curve" smooth="yes"/>
			<point x="104" y="98"/>
			<point x="187" y="-76"/>
		</contour>
	</outline>
	<guideline x="394" y="381" angle="0"/>
</glyph>
<glyph name="asterisk" format="2">
	<unicode hex="002A"/>
	<advance width="600"/>
	<outline>
		<contour>
			<point x="107" y="117" type="line"/>
			<point x="259" y="251" type="line"/>
			<point x="183" y="69" type="line"/>
			<point x="366" y="69" type="line"/>
			<point x="340" y="250" type="line"/>
			<point x="452" y="117" type="line"/>
			<point x="567" y="274" type="line"/>
			<point x="392" y="321" type="line"/>
			<point x="581" y="368" type="line"/>
			<point x="513" y="526" type="line"/>
			<point x="359" y="390" type="line"/>
			<point x="437" y="575" type="line"/>
			<point x="254" y="575" type="line"/>
			<point x="279" y="392" type="line"/>
			<point x="164" y="528" type="line"/>
			<point x="51" y="370" type="line"/>
			<point x="229" y="322" type="line"/>
			<point x="39" y="275" type="line"/>
		</contour>
	</outline>
</glyph>
<glyph name="plus" format="2">
	<unicode hex="002B"/>
	<advance width="600"/>
	<outline>
		<contour>
			<point x="254" y="540" type="line"/>
			<point x="231" y="379" type="line"/>
			<point x="75" y="379" type="line"/>
			<point x="52" y="218" type="line"/>
			<point x="209" y="218" type="line"/>
			<point x="186" y="58" type="line"/>
			<point x="354" y="58" type="line"/>
			<point x="377" y="218" type="line"/>
			<point x="534" y="218" type="line"/>
			<point x="558" y="379" type="line"/>
			<point x="399" y="379" type="line"/>
			<point x="422" y="540" type="line"/>
		</contour>
	</outline>
	<guideline x="347" y="234" angle="0"/>
</glyph>
<glyph name="hyphen" format="2">
	<unicode hex="002D"/>
	<advance width="600"/>
	<outline>
		<contour>
			<point x="503" y="390" type="line"/>
			<point x="133" y="390" type="line"/>
			<point x="110" y="218" type="line"/>
			<point x="479" y="218" type="line"/>
		</contour>
	</outline>
</glyph>
<glyph name="period" format="2">
	<unicode hex="002E"/>
	<advance width="600"/>
	<outline>
		<contour>
			<point x="269" y="-12" type="curve" smooth="yes"/>
			<point x="349" y="-12"/>
			<point x="392" y="19"/>
			<point x="403" y="95" type="curve" smooth="yes"/>
			<point x="416" y="181"/>
			<point x="372" y="215"/>
			<point x="289" y="215" type="curve" smooth="yes"/>
			<point x="207" y="215"/>
			<point x="164" y="184"/>
			<point x="153" y="109" type="curve" smooth="yes"/>
			<point x="140" y="22"/>
			<point x="183" y="-12"/>
		</contour>
	</outline>
	<guideline x="172" y="114" angle="82"/>
	<guideline x="286" y="215" angle="0"/>
</glyph>
<glyph name="zero" format="2">
	<unicode hex="0030"/>
	<advance width="600"/>
	<outline>
		<contour>
			<point x="283" y="-14" type="curve" smooth="yes"/>
			<point x="453" y="-14"/>
			<point x="545" y="109"/>
			<point x="573" y="305" type="curve" smooth="yes"/>
			<point x="575" y="319" type="line" smooth="yes"/>
			<point x="610" y="561"/>
			<point x="534" y="698"/>
			<point x="340" y="698" type="curve" smooth="yes"/>
			<point x="170" y="698"/>
			<point x="78" y="575"/>
			<point x="50" y="379" type="curve" smooth="yes"/>
			<point x="48" y="365" type="line" smooth="yes"/>
			<point x="13" y="123"/>
			<point x="89" y="-14"/>
		</contour>
		<contour>
			<point x="294" y="145" type="curve" smooth="yes"/>
			<point x="221" y="145"/>
			<point x="202" y="201"/>
			<point x="222" y="344" type="curve" smooth="yes"/>
			<point x="223" y="351" type="line" smooth="yes"/>
			<point x="241" y="478"/>
			<point x="269" y="539"/>
			<point x="331" y="539" type="curve" smooth="yes"/>
			<point x="404" y="539"/>
			<point x="421" y="484"/>
			<point x="401" y="342" type="curve" smooth="yes"/>
			<point x="400" y="335" type="line" smooth="yes"/>
			<point x="382" y="208"/>
			<point x="356" y="145"/>
		</contour>
		<contour>
			<point x="303" y="243" type="curve" smooth="yes"/>
			<point x="349" y="243"/>
			<point x="371" y="271"/>
			<point x="380" y="336" type="curve" smooth="yes"/>
			<point x="391" y="413"/>
			<point x="366" y="441"/>
			<point x="320" y="441" type="curve" smooth="yes"/>
			<point x="274" y="441"/>
			<point x="253" y="412"/>
			<point x="244" y="350" type="curve" smooth="yes"/>
			<point x="233" y="271"/>
			<point x="257" y="243"/>
		</contour>
	</outline>
	<guideline x="309" y="559" angle="0"/>
	<guideline x="686" y="347" angle="82"/>
	<guideline x="654" y="347" angle="82"/>
</glyph>
<glyph name="two" format="2">
	<unicode hex="0032"/>
	<advance width="600"/>
	<outline>
		<contour>
			<point x="17" y="0" type="line"/>
			<point x="507" y="0" type="line"/>
			<point x="532" y="173" type="line"/>
			<point x="346" y="173" type="line"/>
			<point x="478" y="247"/>
			<point x="567" y="340"/>
			<point x="567" y="491" type="curve" smooth="yes"/>
			<point x="567" y="618"/>
			<point x="487" y="697"/>
			<point x="336" y="697" type="curve" smooth="yes"/>
			<point x="244" y="697"/>
			<point x="166" y="669"/>
			<point x="104" y="629" type="curve"/>
			<point x="80" y="450" type="line"/>
			<point x="140" y="491"/>
			<point x="210" y="531"/>
			<point x="279" y="531" type="curve" smooth="yes"/>
			<point x="335" y="531"/>
			<point x="367" y="501"/>
			<point x="367" y="451" type="curve" smooth="yes"/>
			<point x="367" y="357"/>
			<point x="263" y="294"/>
			<point x="154" y="223" type="curve" smooth="yes"/>
			<point x="37" y="147" type="line"/>
		</contour>
	</outline>
	<guideline x="250" y="563" angle="0"/>
</glyph>
<glyph name="three" format="2">
	<unicode hex="0033"/>
	<advance width="600"/>
	<outline>
		<contour>
			<point x="244" y="-13" type="curve" smooth="yes"/>
			<point x="426" y="-13"/>
			<point x="544" y="78"/>
			<point x="544" y="255" type="curve" smooth="yes"/>
			<point x="544" y="336"/>
			<point x="508" y="390"/>
			<point x="425" y="413" type="curve"/>
			<point x="569" y="521" type="line"/>
			<point x="592" y="684" type="line"/>
			<point x="111" y="684" type="line"/>
			<point x="89" y="526" type="line"/>
			<point x="328" y="526" type="line"/>
			<point x="162" y="386" type="line"/>
			<point x="145" y="276" type="line"/>
			<point x="174" y="283"/>
			<point x="208" y="287"/>
			<point x="243" y="287" type="curve" smooth="yes"/>
			<point x="316" y="287"/>
			<point x="345" y="269"/>
			<point x="345" y="225" type="curve" smooth="yes"/>
			<point x="345" y="177"/>
			<point x="303" y="147"/>
			<point x="232" y="147" type="curve" smooth="yes"/>
			<point x="177" y="147"/>
			<point x="109" y="165"/>
			<point x="41" y="209" type="curve"/>
			<point x="19" y="48" type="line"/>
			<point x="83" y="7"/>
			<point x="155" y="-13"/>
		</contour>
	</outline>
	<guideline x="-15" y="446" angle="90"/>
</glyph>
<glyph name="five" format="2">
	<unicode hex="0035"/>
	<advance width="600"/>
	<outline>
		<contour>
			<point x="250" y="-13" type="curve" smooth="yes"/>
			<point x="438" y="-13"/>
			<point x="543" y="90"/>
			<point x="543" y="254" type="curve" smooth="yes"/>
			<point x="543" y="378"/>
			<point x="484" y="437"/>
			<point x="325" y="437" type="curve" smooth="yes"/>
			<point x="309" y="437"/>
			<point x="295" y="436"/>
			<point x="282" y="435" type="curve"/>
			<point x="296" y="526" type="line"/>
			<point x="569" y="526" type="line"/>
			<point x="590" y="684" type="line"/>
			<point x="137" y="684" type="line"/>
			<point x="80" y="275" type="line"/>
			<point x="124" y="284"/>
			<point x="186" y="292"/>
			<point x="236" y="292" type="curve" smooth="yes"/>
			<point x="314" y="292"/>
			<point x="341" y="275"/>
			<point x="341" y="228" type="curve" smooth="yes"/>
			<point x="341" y="181"/>
			<point x="313" y="148"/>
			<point x="242" y="148" type="curve" smooth="yes"/>
			<point x="190" y="148"/>
			<point x="112" y="166"/>
			<point x="45" y="207" type="curve"/>
			<point x="22" y="48" type="line"/>
			<point x="57" y="22"/>
			<point x="141" y="-13"/>
		</contour>
	</outline>
	<guideline x="120" y="686" angle="82"/>
</glyph>
<glyph name="six" format="2">
	<unicode hex="0036"/>
	<advance width="600"/>
	<outline>
		<contour>
			<point x="288" y="-14" type="curve" smooth="yes"/>
			<point x="459" y="-14"/>
			<point x="569" y="98"/>
			<point x="569" y="293" type="curve" smooth="yes"/>
			<point x="569" y="393"/>
			<point x="519" y="456"/>
			<point x="417" y="456" type="curve" smooth="yes"/>
			<point x="353" y="456"/>
			<point x="300" y="424"/>
			<point x="251" y="358" type="curve"/>
			<point x="274" y="484"/>
			<point x="308" y="540"/>
			<point x="402" y="540" type="curve" smooth="yes"/>
			<point x="473" y="540"/>
			<point x="536" y="518"/>
			<point x="581" y="492" type="curve"/>
			<point x="603" y="647" type="line"/>
			<point x="560" y="674"/>
			<point x="479" y="698"/>
			<point x="377" y="698" type="curve" smooth="yes"/>
			<point x="143" y="698"/>
			<point x="68" y="543"/>
			<point x="41" y="353" type="curve" smooth="yes"/>
			<point x="39" y="339" type="line" smooth="yes"/>
			<point x="8" y="119"/>
			<point x="61" y="-14"/>
		</contour>
		<contour>
			<point x="294" y="139" type="curve" smooth="yes"/>
			<point x="253" y="139"/>
			<point x="230" y="161"/>
			<point x="230" y="210" type="curve" smooth="yes"/>
			<point x="230" y="285"/>
			<point x="259" y="325"/>
			<point x="306" y="325" type="curve" smooth="yes"/>
			<point x="347" y="325"/>
			<point x="370" y="304"/>
			<point x="370" y="255" type="curve" smooth="yes"/>
			<point x="370" y="182"/>
			<point x="343" y="139"/>
		</contour>
	</outline>
	<guideline x="613" y="267" angle="90"/>
	<guideline x="39" y="339" angle="82"/>
</glyph>
<glyph name="nine" format="2">
	<unicode hex="0039"/>
	<advance width="600"/>
	<outline>
		<contour>
			<point x="237" y="-13" type="curve" smooth="yes"/>
			<point x="464" y="-13"/>
			<point x="550" y="113"/>
			<point x="582" y="336" type="curve" smooth="yes"/>
			<point x="584" y="350" type="line" smooth="yes"/>
			<point x="616" y="575"/>
			<point x="562" y="698"/>
			<point x="340" y="698" type="curve" smooth="yes"/>
			<point x="154" y="698"/>
			<point x="55" y="587"/>
			<point x="55" y="403" type="curve" smooth="yes"/>
			<point x="55" y="290"/>
			<point x="112" y="226"/>
			<point x="211" y="226" type="curve" smooth="yes"/>
			<point x="278" y="226"/>
			<point x="327" y="261"/>
			<point x="370" y="319" type="curve"/>
			<point x="349" y="195"/>
			<point x="311" y="148"/>
			<point x="219" y="148" type="curve" smooth="yes"/>
			<point x="149" y="148"/>
			<point x="87" y="175"/>
			<point x="44" y="203" type="curve"/>
			<point x="22" y="43" type="line"/>
			<point x="63" y="14"/>
			<point x="145" y="-13"/>
		</contour>
		<contour>
			<point x="315" y="360" type="curve" smooth="yes"/>
			<point x="274" y="360"/>
			<point x="251" y="381"/>
			<point x="251" y="430" type="curve" smooth="yes"/>
			<point x="251" y="504"/>
			<point x="278" y="547"/>
			<point x="327" y="547" type="curve" smooth="yes"/>
			<point x="368" y="547"/>
			<point x="391" y="525"/>
			<point x="391" y="475" type="curve" smooth="yes"/>
			<point x="391" y="400"/>
			<point x="362" y="360"/>
		</contour>
	</outline>
	<guideline x="33" y="46" angle="82"/>
</glyph>
<glyph name="less" format="2">
	<unicode hex="003C"/>
	<advance width="600"/>
	<outline>
		<contour>
			<point x="507" y="14" type="line"/>
			<point x="531" y="192" type="line"/>
			<point x="227" y="302" type="line"/>
			<point x="562" y="410" type="line"/>
			<point x="589" y="597" type="line"/>
			<point x="79" y="411" type="line"/>
			<point x="49" y="197" type="line"/>
		</contour>
	</outline>
</glyph>
<glyph name="greater" format="2">
	<unicode hex="003E"/>
	<advance width="600"/>
	<outline>
		<contour>
			<point x="22" y="14" type="line"/>
			<point x="532" y="197" type="line"/>
			<point x="562" y="412" type="line"/>
			<point x="104" y="597" type="line"/>
			<point x="80" y="419" type="line"/>
			<point x="383" y="308" type="line"/>
			<point x="49" y="201" type="line"/>
		</contour>
	</outline>
</glyph>
<glyph name="question" format="2">
	<unicode hex="003F"/>
	<advance width="600"/>
	<outline>
		<contour>
			<point x="188" y="255" type="curve"/>
			<point x="360" y="255" type="line"/>
			<point x="362" y="271" type="line" smooth="yes"/>
			<point x="370" y="332"/>
			<point x="565" y="333"/>
			<point x="565" y="522" type="curve" smooth="yes"/>
			<point x="565" y="633"/>
			<point x="479" y="698"/>
			<point x="339" y="698" type="curve" smooth="yes"/>
			<point x="249" y="698"/>
			<point x="190" y="676"/>
			<point x="144" y="652" type="curve"/>
			<point x="121" y="484" type="line"/>
			<point x="171" y="514"/>
			<point x="229" y="532"/>
			<point x="285" y="532" type="curve" smooth="yes"/>
			<point x="340" y="532"/>
			<point x="368" y="515"/>
			<point x="368" y="486" type="curve" smooth="yes"/>
			<point x="368" y="420"/>
			<point x="182" y="404"/>
			<point x="182" y="286" type="curve" smooth="yes"/>
			<point x="182" y="275"/>
			<point x="184" y="269"/>
		</contour>
		<contour>
			<point x="241" y="-11" type="curve" smooth="yes"/>
			<point x="315" y="-11"/>
			<point x="354" y="16"/>
			<point x="364" y="81" type="curve" smooth="yes"/>
			<point x="377" y="164"/>
			<point x="334" y="195"/>
			<point x="258" y="195" type="curve" smooth="yes"/>
			<point x="184" y="195"/>
			<point x="145" y="168"/>
			<point x="135" y="103" type="curve" smooth="yes"/>
			<point x="122" y="20"/>
			<point x="165" y="-11"/>
		</contour>
	</outline>
</glyph>
<glyph name="B" format="2">
	<unicode hex="0042"/>
	<advance width="600"/>
	<outline>
		<contour>
			<point x="401" y="686" type="curve" smooth="yes"/>
			<point x="104" y="686" type="line"/>
			<point x="8" y="0" type="line"/>
			<point x="333" y="0" type="line" smooth="yes"/>
			<point x="483" y="0"/>
			<point x="576" y="84"/>
			<point x="576" y="212" type="curve" smooth="yes"/>
			<point x="576" y="294"/>
			<point x="525" y="336"/>
			<point x="420" y="353" type="curve"/>
			<point x="540" y="365"/>
			<point x="612" y="428"/>
			<point x="612" y="529" type="curve" smooth="yes"/>
			<point x="612" y="622"/>
			<point x="551" y="686"/>
		</contour>
		<contour>
			<point x="342" y="542" type="line" smooth="yes"/>
			<point x="388" y="542"/>
			<point x="407" y="521"/>
			<point x="407" y="487" type="curve" smooth="yes"/>
			<point x="407" y="442"/>
			<point x="378" y="415"/>
			<point x="330" y="415" type="curve" smooth="yes"/>
			<point x="262" y="415" type="line"/>
			<point x="280" y="542" type="line"/>
		</contour>
		<contour>
			<point x="308" y="276" type="line" smooth="yes"/>
			<point x="350" y="276"/>
			<point x="371" y="257"/>
			<point x="371" y="221" type="curve" smooth="yes"/>
			<point x="371" y="176"/>
			<point x="342" y="151"/>
			<point x="292" y="151" type="curve" smooth="yes"/>
			<point x="225" y="151" type="line"/>
			<point x="242" y="276" type="line"/>
		</contour>
	</outline>
	<anchor name="bottom" x="269" y="0"/>
	<anchor name="top" x="348" y="684"/>
	<guideline x="11" y="0" angle="82"/>
</glyph>
<glyph name="E" format="2">
	<unicode hex="0045"/>
	<advance width="600"/>
	<outline>
		<contour>
			<point x="119" y="684" type="line"/>
			<point x="23" y="0" type="line"/>
			<point x="521" y="0" type="line"/>
			<point x="544" y="160" type="line"/>
			<point x="242" y="160" type="line"/>
			<point x="256" y="263" type="line"/>
			<point x="511" y="263" type="line"/>
			<point x="533" y="421" type="line"/>
			<point x="280" y="421" type="line"/>
			<point x="294" y="525" type="line"/>
			<point x="593" y="525" type="line"/>
			<point x="615" y="684" type="line"/>
		</contour>
	</outline>
	<anchor name="bottom" x="323" y="0"/>
	<anchor name="ogonek" x="521" y="0"/>
	<anchor name="top" x="366" y="684"/>
</glyph>
<glyph name="G" format="2">
	<unicode hex="0047"/>
	<advance width="600"/>
	<outline>
		<contour>
			<point x="286" y="-14" type="curve" smooth="yes"/>
			<point x="454" y="-14"/>
			<point x="554" y="77"/>
			<point x="581" y="273" type="curve" smooth="yes"/>
			<point x="601" y="417" type="line"/>
			<point x="314" y="417" type="line"/>
			<point x="292" y="263" type="line"/>
			<point x="385" y="263" type="line"/>
			<point x="378" y="188"/>
			<point x="352" y="148"/>
			<point x="295" y="148" type="curve" smooth="yes"/>
			<point x="231" y="148"/>
			<point x="204" y="200"/>
			<point x="225" y="344" type="curve" smooth="yes"/>
			<point x="226" y="351" type="line" smooth="yes"/>
			<point x="244" y="479"/>
			<point x="284" y="539"/>
			<point x="400" y="539" type="curve" smooth="yes"/>
			<point x="458" y="539"/>
			<point x="518" y="522"/>
			<point x="562" y="496" type="curve"/>
			<point x="585" y="652" type="line"/>
			<point x="545" y="676"/>
			<point x="464" y="698"/>
			<point x="386" y="698" type="curve" smooth="yes"/>
			<point x="172" y="698"/>
			<point x="61" y="575"/>
			<point x="33" y="379" type="curve" smooth="yes"/>
			<point x="31" y="365" type="line" smooth="yes"/>
			<point x="-3" y="125"/>
			<point x="71" y="-14"/>
		</contour>
	</outline>
	<anchor name="bottom" x="279" y="0"/>
	<anchor name="top" x="384" y="684"/>
	<guideline x="414" y="572" angle="0"/>
</glyph>
<glyph name="H" format="2">
	<unicode hex="0048"/>
	<advance width="600"/>
	<outline>
		<contour>
			<point x="6" y="0" type="line"/>
			<point x="203" y="0" type="line"/>
			<point x="241" y="268" type="line"/>
			<point x="361" y="268" type="line"/>
			<point x="323" y="0" type="line"/>
			<point x="520" y="0" type="line"/>
			<point x="616" y="684" type="line"/>
			<point x="419" y="684" type="line"/>
			<point x="383" y="430" type="line"/>
			<point x="263" y="430" type="line"/>
			<point x="299" y="684" type="line"/>
			<point x="102" y="684" type="line"/>
		</contour>
	</outline>
	<anchor name="bottom" x="313" y="0"/>
	<anchor name="center" x="339" y="545"/>
	<anchor name="top" x="359" y="684"/>
</glyph>
<glyph name="I" format="2">
	<unicode hex="0049"/>
	<advance width="600"/>
	<outline>
		<contour>
			<point x="21" y="0" type="line"/>
			<point x="504" y="0" type="line"/>
			<point x="525" y="152" type="line"/>
			<point x="383" y="152" type="line"/>
			<point x="436" y="532" type="line"/>
			<point x="579" y="532" type="line"/>
			<point x="601" y="684" type="line"/>
			<point x="118" y="684" type="line"/>
			<point x="96" y="532" type="line"/>
			<point x="238" y="532" type="line"/>
			<point x="185" y="152" type="line"/>
			<point x="43" y="152" type="line"/>
		</contour>
	</outline>
	<anchor name="bottom" x="11883" y="0"/>
	<anchor name="ogonek" x="504" y="0"/>
	<anchor name="top" x="359" y="684"/>
	<guideline x="577" y="268" angle="90"/>
	<guideline x="145" y="720" angle="82"/>
</glyph>
<glyph name="K" format="2">
	<unicode hex="004B"/>
	<advance width="600"/>
	<outline>
		<contour>
			<point x="1" y="0" type="line"/>
			<point x="198" y="0" type="line"/>
			<point x="225" y="185" type="line"/>
			<point x="280" y="262" type="line"/>
			<point x="349" y="0" type="line"/>
			<point x="565" y="0" type="line"/>
			<point x="454" y="383" type="line"/>
			<point x="648" y="684" type="line"/>
			<point x="421" y="684" type="line"/>
			<point x="256" y="400" type="line"/>
			<point x="294" y="684" type="line"/>
			<point x="96" y="684" type="line"/>
		</contour>
	</outline>
	<anchor name="bottom" x="274" y="0"/>
	<anchor name="top" x="360" y="684"/>
	<guideline x="3" y="0" angle="82"/>
</glyph>
<glyph name="N" format="2">
	<unicode hex="004E"/>
	<advance width="600"/>
	<outline>
		<contour>
			<point x="4" y="0" type="line"/>
			<point x="170" y="0" type="line"/>
			<point x="195" y="180" type="line" smooth="yes"/>
			<point x="206" y="262"/>
			<point x="206" y="352"/>
			<point x="207" y="461" type="curve"/>
			<point x="219" y="461" type="line"/>
			<point x="305" y="0" type="line"/>
			<point x="522" y="0" type="line"/>
			<point x="618" y="684" type="line"/>
			<point x="452" y="684" type="line"/>
			<point x="427" y="503" type="line" smooth="yes"/>
			<point x="413" y="401"/>
			<point x="412" y="332"/>
			<point x="413" y="223" type="curve"/>
			<point x="402" y="223" type="line"/>
			<point x="317" y="684" type="line"/>
			<point x="100" y="684" type="line"/>
		</contour>
	</outline>
	<anchor name="bottom" x="237" y="0"/>
	<anchor name="top" x="387" y="684"/>
</glyph>
<glyph name="Q" format="2">
	<unicode hex="0051"/>
	<advance width="600"/>
	<outline>
		<contour>
			<point x="313" y="-86" type="curve" smooth="yes"/>
			<point x="420" y="-128" type="line"/>
			<point x="516" y="10" type="line"/>
			<point x="384" y="56" type="line"/>
			<point x="482" y="82"/>
			<point x="551" y="154"/>
			<point x="577" y="334" type="curve" smooth="yes"/>
			<point x="579" y="348" type="line" smooth="yes"/>
			<point x="609" y="555"/>
			<point x="545" y="698"/>
			<point x="346" y="698" type="curve" smooth="yes"/>
			<point x="171" y="698"/>
			<point x="77" y="567"/>
			<point x="49" y="373" type="curve" smooth="yes"/>
			<point x="47" y="359" type="line" smooth="yes"/>
			<point x="13" y="119"/>
			<point x="90" y="2"/>
		</contour>
		<contour>
			<point x="288" y="145" type="curve" smooth="yes"/>
			<point x="239" y="145"/>
			<point x="219" y="185"/>
			<point x="242" y="344" type="curve" smooth="yes"/>
			<point x="243" y="351" type="line" smooth="yes"/>
			<point x="264" y="501"/>
			<point x="287" y="542"/>
			<point x="334" y="542" type="curve" smooth="yes"/>
			<point x="382" y="542"/>
			<point x="404" y="501"/>
			<point x="381" y="342" type="curve" smooth="yes"/>
			<point x="380" y="335" type="line" smooth="yes"/>
			<point x="359" y="185"/>
			<point x="334" y="145"/>
		</contour>
	</outline>
	<anchor name="bottom" x="245" y="0"/>
	<anchor name="top" x="334" y="684"/>
</glyph>
<glyph name="V" format="2">
	<unicode hex="0056"/>
	<advance width="600"/>
	<outline>
		<contour>
			<point x="116" y="0" type="line"/>
			<point x="407" y="0" type="line"/>
			<point x="659" y="684" type="line"/>
			<point x="452" y="684" type="line"/>
			<point x="285" y="184" type="line"/>
			<point x="259" y="684" type="line"/>
			<point x="59" y="684" type="line"/>
		</contour>
	</outline>
	<anchor name="bottom" x="280" y="0"/>
	<anchor name="ogonek" x="573" y="0"/>
	<anchor name="overlap" x="374" y="684"/>
	<anchor name="top" x="372" y="684"/>
	<guideline x="654" y="720" angle="0"/>
	<guideline x="508" y="152" angle="0"/>
</glyph>
<glyph name="Y" format="2">
	<unicode hex="0059"/>
	<advance width="600"/>
	<outline>
		<contour>
			<point x="159" y="0" type="line"/>
			<point x="359" y="0" type="line"/>
			<point x="392" y="236" type="line"/>
			<point x="659" y="684" type="line"/>
			<point x="446" y="684" type="line"/>
			<point x="329" y="463" type="line"/>
			<point x="273" y="684" type="line"/>
			<point x="59" y="684" type="line"/>
			<point x="193" y="237" type="line"/>
		</contour>
	</outline>
	<anchor name="bottom" x="289" y="0"/>
	<anchor name="top" x="360" y="684"/>
</glyph>
<glyph name="bracketleft" format="2">
	<unicode hex="005B"/>
	<advance width="600"/>
	<outline>
		<contour>
			<point x="477" y="-26" type="line"/>
			<point x="283" y="-26" type="line"/>
			<point x="379" y="655" type="line"/>
			<point x="573" y="655" type="line"/>
			<point x="592" y="792" type="line"/>
			<point x="218" y="792" type="line"/>
			<point x="83" y="-163" type="line"/>
			<point x="457" y="-163" type="line"/>
		</contour>
	</outline>
</glyph>
<glyph name="backslash" format="2">
	<unicode hex="005C"/>
	<advance width="600"/>
	<outline>
		<contour>
			<point x="312" y="-163" type="line"/>
			<point x="496" y="-163" type="line"/>
			<point x="303" y="792" type="line"/>
			<point x="119" y="792" type="line"/>
		</contour>
	</outline>
</glyph>
<glyph name="underscore" format="2">
	<unicode hex="005F"/>
	<advance width="600"/>
	<outline>
		<contour>
			<point x="-14" y="-54" type="line"/>
			<point x="-33" y="-193" type="line"/>
			<point x="506" y="-193" type="line"/>
			<point x="525" y="-54" type="line"/>
		</contour>
	</outline>
</glyph>
<glyph name="a" format="2">
	<unicode hex="0061"/>
	<advance width="600"/>
	<outline>
		<contour>
			<point x="167" y="-14" type="curve" smooth="yes"/>
			<point x="241" y="-14"/>
			<point x="291" y="28"/>
			<point x="331" y="84" type="curve"/>
			<point x="319" y="0" type="line"/>
			<point x="505" y="0" type="line"/>
			<point x="551" y="327" type="line" smooth="yes"/>
			<point x="572" y="479"/>
			<point x="474" y="537"/>
			<point x="319" y="537" type="curve" smooth="yes"/>
			<point x="243" y="537"/>
			<point x="162" y="522"/>
			<point x="98" y="496" type="curve"/>
			<point x="74" y="336" type="line"/>
			<point x="134" y="367"/>
			<point x="203" y="387"/>
			<point x="277" y="387" type="curve" smooth="yes"/>
			<point x="337" y="387"/>
			<point x="364" y="367"/>
			<point x="358" y="329" type="curve" smooth="yes"/>
			<point x="358" y="326" type="line"/>
			<point x="275" y="315" type="line" smooth="yes"/>
			<point x="109" y="293"/>
			<point x="27" y="231"/>
			<point x="27" y="113" type="curve" smooth="yes"/>
			<point x="27" y="41"/>
			<point x="76" y="-14"/>
		</contour>
		<contour>
			<point x="265" y="112" type="curve" smooth="yes"/>
			<point x="231" y="112"/>
			<point x="210" y="129"/>
			<point x="210" y="159" type="curve" smooth="yes"/>
			<point x="210" y="187"/>
			<point x="225" y="211"/>
			<point x="283" y="219" type="curve" smooth="yes"/>
			<point x="343" y="227" type="line"/>
			<point x="334" y="171" type="line" smooth="yes"/>
			<point x="328" y="131"/>
			<point x="303" y="112"/>
		</contour>
	</outline>
	<anchor name="bottom" x="269" y="-4"/>
	<anchor name="ogonek" x="505" y="0"/>
	<anchor name="top" x="338" y="523"/>
	<guideline x="91" y="526" angle="82"/>
	<guideline x="548" y="327" angle="82"/>
</glyph>
<glyph name="b" format="2">
	<unicode hex="0062"/>
	<advance width="600"/>
	<outline>
		<contour>
			<point x="420" y="537" type="curve" smooth="yes"/>
			<point x="358" y="537"/>
			<point x="308" y="502"/>
			<point x="264" y="431" type="curve"/>
			<point x="309" y="750" type="line"/>
			<point x="114" y="750" type="line"/>
			<point x="9" y="0" type="line"/>
			<point x="240" y="0" type="line" smooth="yes"/>
			<point x="431" y="0"/>
			<point x="542" y="94"/>
			<point x="566" y="259" type="curve" smooth="yes"/>
			<point x="568" y="273" type="line" smooth="yes"/>
			<point x="591" y="431"/>
			<point x="537" y="537"/>
		</contour>
		<contour>
			<point x="371" y="271" type="curve" smooth="yes"/>
			<point x="370" y="264" type="line"/>
			<point x="358" y="180"/>
			<point x="326" y="147"/>
			<point x="254" y="147" type="curve" smooth="yes"/>
			<point x="224" y="147" type="line"/>
			<point x="247" y="311" type="line" smooth="yes"/>
			<point x="254" y="365"/>
			<point x="280" y="387"/>
			<point x="317" y="387" type="curve" smooth="yes"/>
			<point x="364" y="387"/>
			<point x="381" y="343"/>
		</contour>
	</outline>
	<guideline x="9" y="0" angle="82"/>
</glyph>
<glyph name="c" format="2">
	<unicode hex="0063"/>
	<advance width="600"/>
	<outline>
		<contour>
			<point x="370" y="-12" type="curve" smooth="yes"/>
			<point x="419" y="-12"/>
			<point x="458" y="-5"/>
			<point x="488" y="6" type="curve"/>
			<point x="510" y="155" type="line"/>
			<point x="479" y="145"/>
			<point x="445" y="140"/>
			<point x="411" y="140" type="curve" smooth="yes"/>
			<point x="313" y="140"/>
			<point x="258" y="182"/>
			<point x="271" y="275" type="curve" smooth="yes"/>
			<point x="272" y="282" type="line" smooth="yes"/>
			<point x="282" y="353"/>
			<point x="327" y="383"/>
			<point x="406" y="383" type="curve" smooth="yes"/>
			<point x="467" y="383"/>
			<point x="507" y="371"/>
			<point x="538" y="355" type="curve"/>
			<point x="558" y="499" type="line"/>
			<point x="519" y="520"/>
			<point x="457" y="535"/>
			<point x="377" y="535" type="curve" smooth="yes"/>
			<point x="203" y="535"/>
			<point x="97" y="442"/>
			<point x="77" y="300" type="curve" smooth="yes"/>
			<point x="75" y="286" type="line" smooth="yes"/>
			<point x="47" y="93"/>
			<point x="171" y="-12"/>
		</contour>
	</outline>
	<anchor name="bottom" x="315" y="0"/>
	<anchor name="top" x="398" y="523"/>
	<guideline x="245" y="291" angle="82"/>
</glyph>
<glyph name="j" format="2">
	<unicode hex="006A"/>
	<advance width="600"/>
	<outline>
		<contour>
			<point x="451" y="582" type="curve" smooth="yes"/>
			<point x="527" y="582"/>
			<point x="562" y="608"/>
			<point x="569" y="668" type="curve" smooth="yes"/>
			<point x="576" y="732"/>
			<point x="546" y="760"/>
			<point x="464" y="760" type="curve" smooth="yes"/>
			<point x="388" y="760"/>
			<point x="353" y="735"/>
			<point x="346" y="675" type="curve" smooth="yes"/>
			<point x="339" y="611"/>
			<point x="369" y="582"/>
		</contour>
		<contour>
			<point x="180" y="-204" type="curve" smooth="yes"/>
			<point x="339" y="-204"/>
			<point x="439" y="-142"/>
			<point x="460" y="8" type="curve" smooth="yes"/>
			<point x="512" y="374" type="line"/>
			<point x="533" y="523" type="line"/>
			<point x="105" y="523" type="line"/>
			<point x="83" y="374" type="line"/>
			<point x="317" y="374" type="line"/>
			<point x="271" y="49" type="line" smooth="yes"/>
			<point x="260" y="-28"/>
			<point x="218" y="-48"/>
			<point x="142" y="-48" type="curve" smooth="yes"/>
			<point x="96" y="-48"/>
			<point x="57" y="-38"/>
			<point x="26" y="-26" type="curve"/>
			<point x="5" y="-171" type="line"/>
			<point x="45" y="-191"/>
			<point x="107" y="-204"/>
		</contour>
	</outline>
	<guideline x="123" y="728" angle="82"/>
</glyph>
<glyph name="n" format="2">
	<unicode hex="006E"/>
	<advance width="600"/>
	<outline>
		<contour>
			<point x="14" y="0" type="line"/>
			<point x="209" y="0" type="line"/>
			<point x="253" y="314" type="line" smooth="yes"/>
			<point x="256" y="334"/>
			<point x="263" y="350"/>
			<point x="274" y="361" type="curve" smooth="yes"/>
			<point x="284" y="371"/>
			<point x="299" y="378"/>
			<point x="318" y="378" type="curve" smooth="yes"/>
			<point x="363" y="378"/>
			<point x="374" y="352"/>
			<point x="367" y="303" type="curve" smooth="yes"/>
			<point x="324" y="0" type="line"/>
			<point x="519" y="0" type="line"/>
			<point x="567" y="338" type="line" smooth="yes"/>
			<point x="584" y="459"/>
			<point x="545" y="537"/>
			<point x="442" y="537" type="curve" smooth="yes"/>
			<point x="369" y="537"/>
			<point x="309" y="492"/>
			<point x="257" y="414" type="curve"/>
			<point x="272" y="523" type="line"/>
			<point x="87" y="523" type="line"/>
		</contour>
	</outline>
	<anchor name="bottom" x="265" y="0"/>
	<anchor name="top" x="337" y="523"/>
	<guideline x="557" y="0" angle="82"/>
	<guideline x="23" y="0" angle="82"/>
	<guideline x="565" y="338" angle="82"/>
</glyph>
<glyph name="p" format="2">
	<unicode hex="0070"/>
	<advance width="600"/>
	<outline>
		<contour>
			<point x="420" y="537" type="curve" smooth="yes"/>
			<point x="355" y="537"/>
			<point x="298" y="497"/>
			<point x="252" y="421" type="curve"/>
			<point x="267" y="523" type="line"/>
			<point x="82" y="523" type="line"/>
			<point x="-18" y="-194" type="line"/>
			<point x="177" y="-194" type="line"/>
			<point x="204" y="0" type="line"/>
			<point x="254" y="0" type="line" smooth="yes"/>
			<point x="431" y="0"/>
			<point x="542" y="94"/>
			<point x="566" y="259" type="curve" smooth="yes"/>
			<point x="568" y="273" type="line" smooth="yes"/>
			<point x="591" y="431"/>
			<point x="537" y="537"/>
		</contour>
		<contour>
			<point x="371" y="271" type="curve" smooth="yes"/>
			<point x="370" y="264" type="line"/>
			<point x="358" y="180"/>
			<point x="326" y="147"/>
			<point x="254" y="147" type="curve" smooth="yes"/>
			<point x="224" y="147" type="line"/>
			<point x="247" y="311" type="line" smooth="yes"/>
			<point x="254" y="365"/>
			<point x="280" y="387"/>
			<point x="317" y="387" type="curve" smooth="yes"/>
			<point x="364" y="387"/>
			<point x="381" y="343"/>
		</contour>
	</outline>
	<anchor name="bottom" x="241" y="0"/>
	<anchor name="ogonek" x="98" y="550"/>
	<guideline x="58" y="244" angle="82"/>
</glyph>
<glyph name="q" format="2">
	<unicode hex="0071"/>
	<advance width="600"/>
	<outline>
		<contour>
			<point x="296" y="-194" type="line"/>
			<point x="491" y="-194" type="line"/>
			<point x="592" y="524" type="line"/>
			<point x="359" y="523" type="line" smooth="yes"/>
			<point x="170" y="522"/>
			<point x="58" y="423"/>
			<point x="34" y="258" type="curve" smooth="yes"/>
			<point x="32" y="244" type="line" smooth="yes"/>
			<point x="9" y="86"/>
			<point x="63" y="-14"/>
			<point x="180" y="-14" type="curve" smooth="yes"/>
			<point x="244" y="-14"/>
			<point x="292" y="22"/>
			<point x="336" y="93" type="curve"/>
		</contour>
		<contour>
			<point x="283" y="136" type="curve" smooth="yes"/>
			<point x="236" y="136"/>
			<point x="219" y="180"/>
			<point x="229" y="252" type="curve" smooth="yes"/>
			<point x="230" y="259" type="line" smooth="yes"/>
			<point x="242" y="343"/>
			<point x="277" y="375"/>
			<point x="346" y="375" type="curve" smooth="yes"/>
			<point x="376" y="375" type="line"/>
			<point x="353" y="212" type="line" smooth="yes"/>
			<point x="346" y="158"/>
			<point x="320" y="136"/>
		</contour>
	</outline>
</glyph>
<glyph name="r" format="2">
	<unicode hex="0072"/>
	<advance width="600"/>
	<outline>
		<contour>
			<point x="14" y="0" type="line"/>
			<point x="481" y="0" type="line"/>
			<point x="502" y="149" type="line"/>
			<point x="351" y="149" type="line"/>
			<point x="365" y="250" type="line" smooth="yes"/>
			<point x="373" y="307"/>
			<point x="405" y="342"/>
			<point x="481" y="342" type="curve" smooth="yes"/>
			<point x="519" y="342"/>
			<point x="552" y="335"/>
			<point x="570" y="329" type="curve"/>
			<point x="598" y="525" type="line"/>
			<point x="589" y="529"/>
			<point x="572" y="532"/>
			<point x="557" y="532" type="curve" smooth="yes"/>
			<point x="479" y="532"/>
			<point x="429" y="492"/>
			<point x="373" y="374" type="curve"/>
			<point x="394" y="523" type="line"/>
			<point x="93" y="523" type="line"/>
			<point x="72" y="374" type="line"/>
			<point x="187" y="374" type="line"/>
			<point x="156" y="149" type="line"/>
			<point x="35" y="149" type="line"/>
		</contour>
	</outline>
	<anchor name="bottom" x="232" y="0"/>
	<anchor name="top" x="368" y="523"/>
</glyph>
<glyph name="v" format="2">
	<unicode hex="0076"/>
	<advance width="600"/>
	<outline>
		<contour>
			<point x="251" y="-14" type="curve" smooth="yes"/>
			<point x="451" y="-14"/>
			<point x="547" y="111"/>
			<point x="570" y="313" type="curve" smooth="yes"/>
			<point x="580" y="401"/>
			<point x="574" y="473"/>
			<point x="561" y="521" type="curve"/>
			<point x="377" y="523" type="line"/>
			<point x="386" y="476"/>
			<point x="393" y="419"/>
			<point x="385" y="345" type="curve" smooth="yes"/>
			<point x="371" y="211"/>
			<point x="345" y="134"/>
			<point x="287" y="134" type="curve" smooth="yes"/>
			<point x="255" y="134"/>
			<point x="240" y="150"/>
			<point x="246" y="192" type="curve" smooth="yes"/>
			<point x="290" y="523" type="line"/>
			<point x="45" y="523" type="line"/>
			<point x="24" y="374" type="line"/>
			<point x="85" y="374" type="line"/>
			<point x="59" y="185" type="line" smooth="yes"/>
			<point x="41" y="57"/>
			<point x="106" y="-14"/>
		</contour>
	</outline>
	<guideline x="19" y="550" angle="82"/>
	<guideline x="-58" y="398" angle="0"/>
</glyph>
<glyph name="w" format="2">
	<unicode hex="0077"/>
	<advance width="600"/>
	<outline>
		<contour>
			<point x="85" y="-14" type="curve" smooth="yes"/>
			<point x="143" y="-14"/>
			<point x="193" y="41"/>
			<point x="220" y="99" type="curve"/>
			<point x="240" y="19"/>
			<point x="279" y="-13"/>
			<point x="361" y="-13" type="curve" smooth="yes"/>
			<point x="491" y="-13"/>
			<point x="566" y="90"/>
			<point x="590" y="280" type="curve" smooth="yes"/>
			<point x="600" y="356"/>
			<point x="606" y="440"/>
			<point x="601" y="523" type="curve"/>
			<point x="459" y="523" type="line"/>
			<point x="460" y="447"/>
			<point x="454" y="358"/>
			<point x="445" y="292" type="curve" smooth="yes"/>
			<point x="430" y="179"/>
			<point x="419" y="138"/>
			<point x="381" y="138" type="curve" smooth="yes"/>
			<point x="356" y="138"/>
			<point x="351" y="159"/>
			<point x="354" y="182" type="curve" smooth="yes"/>
			<point x="403" y="523" type="line"/>
			<point x="282" y="523" type="line"/>
			<point x="233" y="187" type="line" smooth="yes"/>
			<point x="229" y="162"/>
			<point x="217" y="138"/>
			<point x="189" y="138" type="curve" smooth="yes"/>
			<point x="163" y="138"/>
			<point x="154" y="157"/>
			<point x="159" y="192" type="curve" smooth="yes"/>
			<point x="207" y="523" type="line"/>
			<point x="60" y="523" type="line"/>
			<point x="3" y="116" type="line" smooth="yes"/>
			<point x="-7" y="42"/>
			<point x="9" y="-14"/>
		</contour>
	</outline>
	<anchor name="top" x="343" y="523"/>
	<guideline x="383" y="196" angle="82"/>
	<guideline x="4" y="118" angle="82"/>
</glyph>
<glyph name="x" format="2">
	<unicode hex="0078"/>
	<advance width="600"/>
	<outline>
		<contour>
			<point x="-30" y="0" type="line"/>
			<point x="187" y="0" type="line"/>
			<point x="283" y="140" type="line"/>
			<point x="350" y="0" type="line"/>
			<point x="556" y="0" type="line"/>
			<point x="427" y="275" type="line"/>
			<point x="622" y="523" type="line"/>
			<point x="408" y="523" type="line"/>
			<point x="317" y="402" type="line"/>
			<point x="264" y="523" type="line"/>
			<point x="55" y="523" type="line"/>
			<point x="183" y="270" type="line"/>
		</contour>
	</outline>
	<anchor name="bottom" x="291" y="0"/>
	<anchor name="top" x="359" y="523"/>
	<guideline x="467" y="95" angle="0"/>
	<guideline x="477" y="396" angle="90"/>
</glyph>
<glyph name="braceright" format="2">
	<unicode hex="007D"/>
	<advance width="600"/>
	<outline>
		<contour>
			<point x="22" y="-163" type="line"/>
			<point x="261" y="-163" type="line" smooth="yes"/>
			<point x="356" y="-163"/>
			<point x="429" y="-100"/>
			<point x="429" y="-13" type="curve" smooth="yes"/>
			<point x="429" y="72"/>
			<point x="360" y="133"/>
			<point x="360" y="180" type="curve" smooth="yes"/>
			<point x="360" y="210"/>
			<point x="383" y="237"/>
			<point x="409" y="237" type="curve" smooth="yes"/>
			<point x="524" y="237" type="line"/>
			<point x="546" y="396" type="line"/>
			<point x="453" y="396" type="line" smooth="yes"/>
			<point x="418" y="396"/>
			<point x="404" y="418"/>
			<point x="404" y="440" type="curve" smooth="yes"/>
			<point x="404" y="512"/>
			<point x="524" y="542"/>
			<point x="524" y="661" type="curve" smooth="yes"/>
			<point x="524" y="735"/>
			<point x="466" y="792"/>
			<point x="365" y="792" type="curve" smooth="yes"/>
			<point x="157" y="792" type="line"/>
			<point x="137" y="655" type="line"/>
			<point x="261" y="655" type="line" smooth="yes"/>
			<point x="298" y="655"/>
			<point x="316" y="643"/>
			<point x="316" y="618" type="curve" smooth="yes"/>
			<point x="316" y="558"/>
			<point x="203" y="526"/>
			<point x="203" y="423" type="curve" smooth="yes"/>
			<point x="203" y="381"/>
			<point x="240" y="336"/>
			<point x="313" y="317" type="curve"/>
			<point x="243" y="307"/>
			<point x="167" y="267"/>
			<point x="167" y="190" type="curve" smooth="yes"/>
			<point x="167" y="122"/>
			<point x="239" y="69"/>
			<point x="239" y="20" type="curve" smooth="yes"/>
			<point x="239" y="-12"/>
			<point x="218" y="-26"/>
			<point x="175" y="-26" type="curve" smooth="yes"/>
			<point x="41" y="-26" type="line"/>
		</contour>
	</outline>
</glyph>
<glyph name="asciitilde" format="2">
	<unicode hex="007E"/>
	<advance width="600"/>
	<outline>
		<contour>
			<point x="14" y="161" type="curve"/>
			<point x="155" y="161" type="line"/>
			<point x="161" y="218"/>
			<point x="176" y="263"/>
			<point x="215" y="263" type="curve" smooth="yes"/>
			<point x="270" y="263"/>
			<point x="304" y="157"/>
			<point x="400" y="157" type="curve" smooth="yes"/>
			<point x="503" y="157"/>
			<point x="568" y="231"/>
			<point x="595" y="426" type="curve"/>
			<point x="453" y="425" type="line"/>
			<point x="446" y="366"/>
			<point x="430" y="333"/>
			<point x="398" y="333" type="curve" smooth="yes"/>
			<point x="344" y="333"/>
			<point x="295" y="434"/>
			<point x="200" y="434" type="curve" smooth="yes"/>
			<point x="95" y="434"/>
			<point x="40" y="348"/>
		</contour>
	</outline>
</glyph>
<glyph name="cent" format="2">
	<unicode hex="00A2"/>
	<advance width="600"/>
	<outline>
		<contour>
			<point x="278" y="-93" type="line"/>
			<point x="395" y="-93" type="line"/>
			<point x="410" y="-10" type="line"/>
			<point x="441" y="-8"/>
			<point x="467" y="-2"/>
			<point x="488" y="6" type="curve"/>
			<point x="510" y="155" type="line"/>
			<point x="483" y="146"/>
			<point x="454" y="141"/>
			<point x="424" y="140" type="curve"/>
			<point x="467" y="378" type="line"/>
			<point x="496" y="373"/>
			<point x="519" y="365"/>
			<point x="538" y="355" type="curve"/>
			<point x="558" y="499" type="line"/>
			<point x="543" y="507"/>
			<point x="525" y="514"/>
			<point x="504" y="520" type="curve"/>
			<point x="520" y="616" type="line"/>
			<point x="403" y="616" type="line"/>
			<point x="390" y="535" type="line"/>
			<point x="377" y="535" type="line" smooth="yes"/>
			<point x="203" y="535"/>
			<point x="97" y="442"/>
			<point x="77" y="300" type="curve" smooth="yes"/>
			<point x="75" y="286" type="line" smooth="yes"/>
			<point x="51" y="119"/>
			<point x="140" y="18"/>
			<point x="294" y="-6" type="curve"/>
		</contour>
		<contour>
			<point x="271" y="275" type="curve" smooth="yes"/>
			<point x="272" y="282" type="line" smooth="yes"/>
			<point x="281" y="343"/>
			<point x="315" y="374"/>
			<point x="376" y="381" type="curve"/>
			<point x="334" y="152" type="line"/>
			<point x="286" y="170"/>
			<point x="262" y="210"/>
		</contour>
	</outline>
	<guideline x="323" y="90" angle="90"/>
</glyph>
<glyph name="yen" format="2">
	<unicode hex="00A5"/>
	<advance width="600"/>
	<outline>
		<contour>
			<point x="28" y="131" type="line"/>
			<point x="178" y="131" type="line"/>
			<point x="159" y="0" type="line"/>
			<point x="359" y="0" type="line"/>
			<point x="377" y="131" type="line"/>
			<point x="527" y="131" type="line"/>
			<point x="541" y="235" type="line"/>
			<point x="392" y="235" type="line"/>
			<point x="392" y="236" type="line"/>
			<point x="419" y="281" type="line"/>
			<point x="547" y="281" type="line"/>
			<point x="561" y="384" type="line"/>
			<point x="480" y="384" type="line"/>
			<point x="659" y="684" type="line"/>
			<point x="446" y="684" type="line"/>
			<point x="329" y="463" type="line"/>
			<point x="273" y="684" type="line"/>
			<point x="59" y="684" type="line"/>
			<point x="149" y="384" type="line"/>
			<point x="63" y="384" type="line"/>
			<point x="48" y="281" type="line"/>
			<point x="180" y="281" type="line"/>
			<point x="193" y="237" type="line"/>
			<point x="192" y="235" type="line"/>
			<point x="43" y="235" type="line"/>
		</contour>
	</outline>
</glyph>
<glyph name="section" format="2">
	<unicode hex="00A7"/>
	<advance width="600"/>
	<outline>
		<contour>
			<point x="268" y="-85" type="curve" smooth="yes"/>
			<point x="408" y="-85"/>
			<point x="500" y="-6"/>
			<point x="500" y="122" type="curve" smooth="yes"/>
			<point x="500" y="162"/>
			<point x="486" y="204"/>
			<point x="445" y="232" type="curve"/>
			<point x="505" y="253"/>
			<point x="555" y="291"/>
			<point x="555" y="360" type="curve" smooth="yes"/>
			<point x="555" y="437"/>
			<point x="485" y="469"/>
			<point x="365" y="490" type="curve" smooth="yes"/>
			<point x="305" y="500"/>
			<point x="282" y="507"/>
			<point x="282" y="535" type="curve" smooth="yes"/>
			<point x="282" y="559"/>
			<point x="305" y="572"/>
			<point x="348" y="572" type="curve" smooth="yes"/>
			<point x="403" y="572"/>
			<point x="489" y="553"/>
			<point x="543" y="525" type="curve"/>
			<point x="562" y="652" type="line"/>
			<point x="514" y="677"/>
			<point x="440" y="698"/>
			<point x="347" y="698" type="curve" smooth="yes"/>
			<point x="208" y="698"/>
			<point x="110" y="621"/>
			<point x="110" y="497" type="curve" smooth="yes"/>
			<point x="110" y="444"/>
			<point x="130" y="403"/>
			<point x="170" y="376" type="curve"/>
			<point x="110" y="354"/>
			<point x="57" y="320"/>
			<point x="57" y="246" type="curve" smooth="yes"/>
			<point x="57" y="160"/>
			<point x="133" y="141"/>
			<point x="248" y="124" type="curve" smooth="yes"/>
			<point x="306" y="116"/>
			<point x="329" y="104"/>
			<point x="329" y="82" type="curve" smooth="yes"/>
			<point x="329" y="56"/>
			<point x="305" y="43"/>
			<point x="261" y="43" type="curve" smooth="yes"/>
			<point x="204" y="43"/>
			<point x="121" y="64"/>
			<point x="61" y="95" type="curve"/>
			<point x="45" y="-30" type="line"/>
			<point x="99" y="-62"/>
			<point x="182" y="-85"/>
		</contour>
		<contour>
			<point x="354" y="260" type="curve" smooth="yes"/>
			<point x="314" y="260"/>
			<point x="202" y="274"/>
			<point x="202" y="319" type="curve" smooth="yes"/>
			<point x="202" y="339"/>
			<point x="218" y="352"/>
			<point x="254" y="352" type="curve" smooth="yes"/>
			<point x="303" y="352"/>
			<point x="411" y="337"/>
			<point x="413" y="296" type="curve" smooth="yes"/>
			<point x="414" y="273"/>
			<point x="397" y="260"/>
		</contour>
	</outline>
</glyph>
<glyph name="dieresis" format="2">
	<unicode hex="00A8"/>
	<advance width="600"/>
	<outline>
		<contour>
			<point x="467" y="591" type="curve" smooth="yes"/>
			<point x="542" y="591"/>
			<point x="565" y="616"/>
			<point x="571" y="676" type="curve" smooth="yes"/>
			<point x="577" y="730"/>
			<point x="551" y="755"/>
			<point x="482" y="755" type="curve" smooth="yes"/>
			<point x="407" y="755"/>
			<point x="384" y="728"/>
			<point x="378" y="671" type="curve" smooth="yes"/>
			<point x="372" y="614"/>
			<point x="398" y="591"/>
		</contour>
		<contour>
			<point x="234" y="591" type="curve" smooth="yes"/>
			<point x="309" y="591"/>
			<point x="332" y="616"/>
			<point x="338" y="676" type="curve" smooth="yes"/>
			<point x="344" y="730"/>
			<point x="318" y="755"/>
			<point x="249" y="755" type="curve" smooth="yes"/>
			<point x="174" y="755"/>
			<point x="151" y="728"/>
			<point x="145" y="671" type="curve" smooth="yes"/>
			<point x="139" y="614"/>
			<point x="165" y="591"/>
		</contour>
	</outline>
	<anchor name="_top" x="338" y="523"/>
</glyph>
<glyph name="copyright" format="2">
	<unicode hex="00A9"/>
	<advance width="600"/>
	<outline>
		<contour>
			<point x="302" y="101" type="curve" smooth="yes"/>
			<point x="439" y="101"/>
			<point x="557" y="181"/>
			<point x="579" y="335" type="curve" smooth="yes"/>
			<point x="581" y="349" type="line" smooth="yes"/>
			<point x="609" y="545"/>
			<point x="491" y="657"/>
			<point x="331" y="657" type="curve" smooth="yes"/>
			<point x="194" y="657"/>
			<point x="76" y="578"/>
			<point x="54" y="424" type="curve" smooth="yes"/>
			<point x="52" y="410" type="line" smooth="yes"/>
			<point x="24" y="214"/>
			<point x="144" y="101"/>
		</contour>
		<contour>
			<point x="308" y="176" type="curve" smooth="yes"/>
			<point x="184" y="176"/>
			<point x="110" y="260"/>
			<point x="131" y="409" type="curve" smooth="yes"/>
			<point x="132" y="416" type="line" smooth="yes"/>
			<point x="147" y="523"/>
			<point x="217" y="582"/>
			<point x="325" y="582" type="curve" smooth="yes"/>
			<point x="450" y="582"/>
			<point x="523" y="499"/>
			<point x="502" y="350" type="curve" smooth="yes"/>
			<point x="501" y="343" type="line" smooth="yes"/>
			<point x="486" y="236"/>
			<point x="417" y="176"/>
		</contour>
		<contour>
			<point x="330" y="246" type="curve" smooth="yes"/>
			<point x="349" y="246"/>
			<point x="372" y="249"/>
			<point x="381" y="253" type="curve"/>
			<point x="390" y="318" type="line"/>
			<point x="381" y="315"/>
			<point x="370" y="313"/>
			<point x="356" y="313" type="curve" smooth="yes"/>
			<point x="320" y="313"/>
			<point x="284" y="331"/>
			<point x="292" y="388" type="curve" smooth="yes"/>
			<point x="298" y="432"/>
			<point x="325" y="452"/>
			<point x="362" y="452" type="curve" smooth="yes"/>
			<point x="378" y="452"/>
			<point x="394" y="448"/>
			<point x="407" y="443" type="curve"/>
			<point x="416" y="505" type="line"/>
			<point x="405" y="512"/>
			<point x="377" y="519"/>
			<point x="346" y="519" type="curve" smooth="yes"/>
			<point x="270" y="519"/>
			<point x="217" y="478"/>
			<point x="204" y="398" type="curve" smooth="yes"/>
			<point x="188" y="300"/>
			<point x="250" y="246"/>
		</contour>
	</outline>
	<guideline x="57" y="460" angle="82"/>
</glyph>
<glyph name="ordfeminine" format="2">
	<unicode hex="00AA"/>
	<advance width="600"/>
	<outline>
		<contour>
			<point x="213" y="224" type="curve" smooth="yes"/>
			<point x="277" y="224"/>
			<point x="324" y="254"/>
			<point x="357" y="309" type="curve"/>
			<point x="346" y="235" type="line"/>
			<point x="499" y="235" type="line"/>
			<point x="539" y="516" type="line" smooth="yes"/>
			<point x="557" y="643"/>
			<point x="482" y="696"/>
			<point x="349" y="696" type="curve" smooth="yes"/>
			<point x="253" y="696"/>
			<point x="188" y="673"/>
			<point x="156" y="660" type="curve"/>
			<point x="138" y="531" type="line"/>
			<point x="189" y="557"/>
			<point x="252" y="575"/>
			<point x="307" y="575" type="curve" smooth="yes"/>
			<point x="356" y="575"/>
			<point x="383" y="557"/>
			<point x="377" y="517" type="curve" smooth="yes"/>
			<point x="376" y="513" type="line"/>
			<point x="309" y="504" type="line" smooth="yes"/>
			<point x="161" y="484"/>
			<point x="96" y="428"/>
			<point x="96" y="338" type="curve" smooth="yes"/>
			<point x="96" y="268"/>
			<point x="139" y="224"/>
		</contour>
		<contour>
			<point x="298" y="330" type="curve" smooth="yes"/>
			<point x="272" y="330"/>
			<point x="253" y="345"/>
			<point x="253" y="370" type="curve" smooth="yes"/>
			<point x="253" y="402"/>
			<point x="272" y="419"/>
			<point x="325" y="427" type="curve" smooth="yes"/>
			<point x="367" y="433" type="line"/>
			<point x="360" y="384" type="line" smooth="yes"/>
			<point x="355" y="346"/>
			<point x="331" y="330"/>
		</contour>
	</outline>
	<anchor name="bottom" x="217" y="232"/>
	<anchor name="ogonek" x="410" y="235"/>
	<anchor name="right" x="409" y="235"/>
	<anchor name="top" x="274" y="685"/>
</glyph>
<glyph name="guillemetleft" format="2">
	<unicode hex="00AB"/>
	<advance width="600"/>
	<outline>
		<contour>
			<point x="313" y="77" type="line"/>
			<point x="202" y="287" type="line"/>
			<point x="373" y="497" type="line"/>
			<point x="178" y="497" type="line"/>
			<point x="12" y="287" type="line"/>
			<point x="117" y="77" type="line"/>
		</contour>
		<contour>
			<point x="565" y="77" type="line"/>
			<point x="454" y="286" type="line"/>
			<point x="625" y="497" type="line"/>
			<point x="430" y="497" type="line"/>
			<point x="266" y="287" type="line"/>
			<point x="370" y="77" type="line"/>
		</contour>
	</outline>
</glyph>
<glyph name="logicalnot" format="2">
	<unicode hex="00AC"/>
	<advance width="600"/>
	<outline>
		<contour>
			<point x="513" y="55" type="line"/>
			<point x="558" y="388" type="line"/>
			<point x="76" y="388" type="line"/>
			<point x="54" y="228" type="line"/>
			<point x="362" y="228" type="line"/>
			<point x="339" y="55" type="line"/>
		</contour>
	</outline>
</glyph>
<glyph name="macron" format="2">
	<unicode hex="00AF"/>
	<advance width="600"/>
	<outline>
		<contour>
			<point x="180" y="610" type="line"/>
			<point x="517" y="610" type="line"/>
			<point x="533" y="720" type="line"/>
			<point x="196" y="720" type="line"/>
		</contour>
	</outline>
	<anchor name="_top" x="336" y="523"/>
</glyph>
<glyph name="degree" format="2">
	<unicode hex="00B0"/>
	<advance width="600"/>
	<outline>
		<contour>
			<point x="324" y="277" type="curve" smooth="yes"/>
			<point x="449" y="277"/>
			<point x="540" y="377"/>
			<point x="540" y="504" type="curve" smooth="yes"/>
			<point x="540" y="615"/>
			<point x="460" y="697"/>
			<point x="343" y="697" type="curve" smooth="yes"/>
			<point x="215" y="697"/>
			<point x="124" y="603"/>
			<point x="124" y="474" type="curve" smooth="yes"/>
			<point x="124" y="361"/>
			<point x="201" y="277"/>
		</contour>
		<contour>
			<point x="326" y="394" type="curve" smooth="yes"/>
			<point x="276" y="394"/>
			<point x="245" y="432"/>
			<point x="245" y="481" type="curve" smooth="yes"/>
			<point x="245" y="535"/>
			<point x="285" y="580"/>
			<point x="338" y="580" type="curve" smooth="yes"/>
			<point x="390" y="580"/>
			<point x="420" y="543"/>
			<point x="420" y="495" type="curve" smooth="yes"/>
			<point x="420" y="440"/>
			<point x="381" y="394"/>
		</contour>
	</outline>
</glyph>
<glyph name="acute" format="2">
	<unicode hex="00B4"/>
	<advance width="600"/>
	<outline>
		<contour>
			<point x="514" y="750" type="line"/>
			<point x="305" y="750" type="line"/>
			<point x="246" y="597" type="line"/>
			<point x="391" y="597" type="line"/>
		</contour>
	</outline>
	<anchor name="_top" x="312" y="523"/>
	<guideline x="410" y="625" angle="0"/>
</glyph>
<glyph name="paragraph" format="2">
	<unicode hex="00B6"/>
	<advance width="600"/>
	<outline>
		<contour>
			<point x="177" y="0" type="line"/>
			<point x="313" y="0" type="line"/>
			<point x="391" y="551" type="line"/>
			<point x="459" y="551" type="line"/>
			<point x="381" y="0" type="line"/>
			<point x="517" y="0" type="line"/>
			<point x="614" y="684" type="line"/>
			<point x="299" y="684" type="line" smooth="yes"/>
			<point x="135" y="684"/>
			<point x="40" y="574"/>
			<point x="40" y="432" type="curve" smooth="yes"/>
			<point x="40" y="316"/>
			<point x="102" y="246"/>
			<point x="210" y="226" type="curve"/>
		</contour>
	</outline>
</glyph>
<glyph name="cedilla" format="2">
	<unicode hex="00B8"/>
	<advance width="600"/>
	<outline>
		<contour>
			<point x="212" y="-239" type="curve" smooth="yes"/>
			<point x="307" y="-239"/>
			<point x="357" y="-192"/>
			<point x="357" y="-121" type="curve" smooth="yes"/>
			<point x="357" y="-74"/>
			<point x="330" y="-49"/>
			<point x="281" y="-44" type="curve"/>
			<point x="309" y="0" type="line"/>
			<point x="217" y="0" type="line"/>
			<point x="162" y="-96" type="line"/>
			<point x="179" y="-94"/>
			<point x="187" y="-94"/>
			<point x="190" y="-94" type="curve" smooth="yes"/>
			<point x="226" y="-94"/>
			<point x="240" y="-104"/>
			<point x="240" y="-123" type="curve" smooth="yes"/>
			<point x="240" y="-142"/>
			<point x="226" y="-155"/>
			<point x="191" y="-155" type="curve" smooth="yes"/>
			<point x="161" y="-155"/>
			<point x="139" y="-147"/>
			<point x="121" y="-139" type="curve"/>
			<point x="111" y="-218" type="line"/>
			<point x="133" y="-229"/>
			<point x="171" y="-239"/>
		</contour>
	</outline>
	<anchor name="_bottom" x="261" y="0"/>
</glyph>
<glyph name="questiondown" format="2">
	<unicode hex="00BF"/>
	<advance width="600"/>
	<outline>
		<contour>
			<point x="359" y="534" type="curve" smooth="yes"/>
			<point x="285" y="534"/>
			<point x="246" y="507"/>
			<point x="236" y="442" type="curve" smooth="yes"/>
			<point x="223" y="359"/>
			<point x="266" y="328"/>
			<point x="342" y="328" type="curve" smooth="yes"/>
			<point x="416" y="328"/>
			<point x="455" y="355"/>
			<point x="465" y="420" type="curve" smooth="yes"/>
			<point x="478" y="503"/>
			<point x="435" y="534"/>
		</contour>
		<contour>
			<point x="412" y="268" type="curve"/>
			<point x="240" y="268" type="line"/>
			<point x="238" y="252" type="line" smooth="yes"/>
			<point x="230" y="191"/>
			<point x="35" y="190"/>
			<point x="35" y="1" type="curve" smooth="yes"/>
			<point x="35" y="-110"/>
			<point x="121" y="-175"/>
			<point x="261" y="-175" type="curve" smooth="yes"/>
			<point x="351" y="-175"/>
			<point x="410" y="-153"/>
			<point x="456" y="-129" type="curve"/>
			<point x="479" y="39" type="line"/>
			<point x="429" y="9"/>
			<point x="371" y="-9"/>
			<point x="315" y="-9" type="curve" smooth="yes"/>
			<point x="260" y="-9"/>
			<point x="232" y="8"/>
			<point x="232" y="37" type="curve" smooth="yes"/>
			<point x="232" y="103"/>
			<point x="418" y="119"/>
			<point x="418" y="237" type="curve" smooth="yes"/>
			<point x="418" y="248"/>
			<point x="416" y="254"/>
		</contour>
	</outline>
</glyph>
<glyph name="AE" format="2">
	<unicode hex="00C6"/>
	<advance width="600"/>
	<outline>
		<contour>
			<point x="-35" y="0" type="line"/>
			<point x="130" y="0" type="line"/>
			<point x="169" y="134" type="line"/>
			<point x="275" y="134" type="line"/>
			<point x="256" y="0" type="line"/>
			<point x="546" y="0" type="line"/>
			<point x="568" y="154" type="line"/>
			<point x="432" y="154" type="line"/>
			<point x="448" y="266" type="line"/>
			<point x="551" y="266" type="line"/>
			<point x="573" y="418" type="line"/>
			<point x="469" y="418" type="line"/>
			<point x="485" y="531" type="line"/>
			<point x="620" y="531" type="line"/>
			<point x="641" y="684" type="line"/>
			<point x="171" y="684" type="line"/>
		</contour>
		<contour>
			<point x="211" y="282" type="line"/>
			<point x="283" y="531" type="line"/>
			<point x="331" y="531" type="line"/>
			<point x="296" y="282" type="line"/>
		</contour>
	</outline>
	<anchor name="top" x="427" y="684"/>
</glyph>
<glyph name="Ccedilla" format="2">
	<unicode hex="00C7"/>
	<advance width="600"/>
	<outline>
		<contour>
			<point x="295" y="-239" type="curve" smooth="yes"/>
			<point x="390" y="-239"/>
			<point x="440" y="-192"/>
			<point x="440" y="-121" type="curve" smooth="yes"/>
			<point x="440" y="-74"/>
			<point x="413" y="-49"/>
			<point x="364" y="-44" type="curve"/>
			<point x="384" y="-12" type="line"/>
			<point x="437" y="-12"/>
			<point x="486" y="-2"/>
			<point x="520" y="10" type="curve"/>
			<point x="543" y="171" type="line"/>
			<point x="501" y="158"/>
			<point x="464" y="152"/>
			<point x="421" y="152" type="curve" smooth="yes"/>
			<point x="284" y="152"/>
			<point x="235" y="235"/>
			<point x="254" y="368" type="curve" smooth="yes"/>
			<point x="255" y="375" type="line" smooth="yes"/>
			<point x="272" y="491"/>
			<point x="339" y="533"/>
			<point x="444" y="533" type="curve" smooth="yes"/>
			<point x="495" y="533"/>
			<point x="545" y="523"/>
			<point x="590" y="500" type="curve"/>
			<point x="613" y="658" type="line"/>
			<point x="576" y="676"/>
			<point x="513" y="695"/>
			<point x="429" y="695" type="curve" smooth="yes"/>
			<point x="209" y="695"/>
			<point x="79" y="572"/>
			<point x="54" y="396" type="curve" smooth="yes"/>
			<point x="52" y="382" type="line" smooth="yes"/>
			<point x="25" y="188"/>
			<point x="96" y="28"/>
			<point x="297" y="-5" type="curve"/>
			<point x="245" y="-96" type="line"/>
			<point x="262" y="-94"/>
			<point x="270" y="-94"/>
			<point x="273" y="-94" type="curve" smooth="yes"/>
			<point x="309" y="-94"/>
			<point x="323" y="-104"/>
			<point x="323" y="-123" type="curve" smooth="yes"/>
			<point x="323" y="-142"/>
			<point x="309" y="-155"/>
			<point x="274" y="-155" type="curve" smooth="yes"/>
			<point x="244" y="-155"/>
			<point x="222" y="-147"/>
			<point x="204" y="-139" type="curve"/>
			<point x="194" y="-218" type="line"/>
			<point x="216" y="-229"/>
			<point x="254" y="-239"/>
		</contour>
	</outline>
</glyph>
<glyph name="Eth" format="2">
	<unicode hex="00D0"/>
	<advance width="600"/>
	<outline>
		<contour>
			<point x="5" y="0" type="line"/>
			<point x="285" y="0" type="line" smooth="yes"/>
			<point x="486" y="0"/>
			<point x="564" y="113"/>
			<point x="590" y="305" type="curve" smooth="yes"/>
			<point x="592" y="320" type="line" smooth="yes"/>
			<point x="620" y="533"/>
			<point x="558" y="684"/>
			<point x="353" y="684" type="curve" smooth="yes"/>
			<point x="101" y="684" type="line"/>
			<point x="61" y="400" type="line"/>
			<point x="20" y="400" type="line"/>
			<point x="2" y="273" type="line"/>
			<point x="43" y="273" type="line"/>
		</contour>
		<contour>
			<point x="311" y="527" type="line" smooth="yes"/>
			<point x="386" y="527"/>
			<point x="408" y="485"/>
			<point x="393" y="349" type="curve" smooth="yes"/>
			<point x="392" y="340" type="line" smooth="yes"/>
			<point x="377" y="208"/>
			<point x="346" y="159"/>
			<point x="279" y="159" type="curve" smooth="yes"/>
			<point x="225" y="159" type="line"/>
			<point x="241" y="273" type="line"/>
			<point x="319" y="273" type="line"/>
			<point x="338" y="400" type="line"/>
			<point x="259" y="400" type="line"/>
			<point x="277" y="527" type="line"/>
		</contour>
	</outline>
</glyph>
<glyph name="Oslash" format="2">
	<unicode hex="00D8"/>
	<advance width="600"/>
	<outline>
		<contour>
			<point x="280" y="-14" type="curve" smooth="yes"/>
			<point x="463" y="-14"/>
			<point x="546" y="115"/>
			<point x="574" y="311" type="curve" smooth="yes"/>
			<point x="576" y="325" type="line" smooth="yes"/>
			<point x="591" y="430"/>
			<point x="586" y="514"/>
			<point x="560" y="575" type="curve"/>
			<point x="661" y="708" type="line"/>
			<point x="511" y="708" type="line"/>
			<point x="480" y="667" type="line"/>
			<point x="445" y="688"/>
			<point x="400" y="698"/>
			<point x="346" y="698" type="curve" smooth="yes"/>
			<point x="167" y="698"/>
			<point x="77" y="566"/>
			<point x="49" y="373" type="curve" smooth="yes"/>
			<point x="47" y="359" type="line" smooth="yes"/>
			<point x="32" y="256"/>
			<point x="36" y="173"/>
			<point x="62" y="112" type="curve"/>
			<point x="-41" y="-24" type="line"/>
			<point x="109" y="-24" type="line"/>
			<point x="141" y="18" type="line"/>
			<point x="177" y="-3"/>
			<point x="223" y="-14"/>
		</contour>
		<contour>
			<point x="242" y="343" type="curve" smooth="yes"/>
			<point x="243" y="350" type="line" smooth="yes"/>
			<point x="265" y="502"/>
			<point x="289" y="539"/>
			<point x="336" y="539" type="curve" smooth="yes"/>
			<point x="358" y="539"/>
			<point x="375" y="531"/>
			<point x="383" y="507" type="curve"/>
			<point x="237" y="307" type="line"/>
			<point x="239" y="318"/>
			<point x="240" y="330"/>
		</contour>
		<contour>
			<point x="288" y="145" type="curve" smooth="yes"/>
			<point x="264" y="145"/>
			<point x="248" y="153"/>
			<point x="239" y="180" type="curve"/>
			<point x="386" y="383" type="line"/>
			<point x="385" y="371"/>
			<point x="383" y="357"/>
			<point x="381" y="343" type="curve" smooth="yes"/>
			<point x="380" y="336" type="line" smooth="yes"/>
			<point x="358" y="183"/>
			<point x="334" y="145"/>
		</contour>
	</outline>
	<guideline x="44" y="345" angle="90"/>
</glyph>
<glyph name="Thorn" format="2">
	<unicode hex="00DE"/>
	<advance width="600"/>
	<outline>
		<contour>
			<point x="110" y="684" type="line"/>
			<point x="14" y="0" type="line"/>
			<point x="212" y="0" type="line"/>
			<point x="227" y="103" type="line"/>
			<point x="337" y="103" type="line" smooth="yes"/>
			<point x="487" y="103"/>
			<point x="606" y="204"/>
			<point x="606" y="386" type="curve" smooth="yes"/>
			<point x="606" y="526"/>
			<point x="526" y="604"/>
			<point x="368" y="604" type="curve" smooth="yes"/>
			<point x="296" y="604" type="line"/>
			<point x="308" y="684" type="line"/>
		</contour>
		<contour>
			<point x="327" y="448" type="line" smooth="yes"/>
			<point x="390" y="448"/>
			<point x="407" y="415"/>
			<point x="407" y="367" type="curve" smooth="yes"/>
			<point x="407" y="295"/>
			<point x="375" y="259"/>
			<point x="320" y="259" type="curve" smooth="yes"/>
			<point x="249" y="259" type="line"/>
			<point x="275" y="448" type="line"/>
		</contour>
	</outline>
</glyph>
<glyph name="ae" format="2">
	<unicode hex="00E6"/>
	<advance width="600"/>
	<outline>
		<contour>
			<point x="90" y="-14" type="curve" smooth="yes"/>
			<point x="142" y="-14"/>
			<point x="189" y="17"/>
			<point x="224" y="95" type="curve"/>
			<point x="251" y="13"/>
			<point x="317" y="-14"/>
			<point x="406" y="-14" type="curve" smooth="yes"/>
			<point x="447" y="-14"/>
			<point x="500" y="-4"/>
			<point x="532" y="13" type="curve"/>
			<point x="552" y="154" type="line"/>
			<point x="514" y="139"/>
			<point x="479" y="133"/>
			<point x="449" y="133" type="curve" smooth="yes"/>
			<point x="386" y="133"/>
			<point x="355" y="155"/>
			<point x="360" y="215" type="curve"/>
			<point x="584" y="215" type="line"/>
			<point x="594" y="283" type="line" smooth="yes"/>
			<point x="617" y="442"/>
			<point x="571" y="537"/>
			<point x="451" y="537" type="curve" smooth="yes"/>
			<point x="408" y="537"/>
			<point x="373" y="526"/>
			<point x="338" y="500" type="curve"/>
			<point x="311" y="525"/>
			<point x="271" y="537"/>
			<point x="223" y="537" type="curve" smooth="yes"/>
			<point x="148" y="537"/>
			<point x="94" y="513"/>
			<point x="56" y="493" type="curve"/>
			<point x="35" y="340" type="line"/>
			<point x="75" y="369"/>
			<point x="129" y="391"/>
			<point x="177" y="391" type="curve" smooth="yes"/>
			<point x="217" y="391"/>
			<point x="239" y="376"/>
			<point x="233" y="331" type="curve" smooth="yes"/>
			<point x="231" y="320" type="line"/>
			<point x="178" y="311" type="line" smooth="yes"/>
			<point x="60" y="291"/>
			<point x="-11" y="224"/>
			<point x="-11" y="105" type="curve" smooth="yes"/>
			<point x="-11" y="24"/>
			<point x="37" y="-14"/>
		</contour>
		<contour>
			<point x="428" y="406" type="curve" smooth="yes"/>
			<point x="461" y="406"/>
			<point x="470" y="374"/>
			<point x="463" y="312" type="curve"/>
			<point x="372" y="312" type="line"/>
			<point x="382" y="376"/>
			<point x="399" y="406"/>
		</contour>
		<contour>
			<point x="128" y="149" type="curve" smooth="yes"/>
			<point x="128" y="183"/>
			<point x="146" y="211"/>
			<point x="189" y="219" type="curve" smooth="yes"/>
			<point x="218" y="225" type="line"/>
			<point x="208" y="155" type="line" smooth="yes"/>
			<point x="204" y="127"/>
			<point x="190" y="106"/>
			<point x="164" y="106" type="curve" smooth="yes"/>
			<point x="141" y="106"/>
			<point x="128" y="119"/>
		</contour>
	</outline>
	<anchor name="top" x="333" y="523"/>
	<guideline x="553" y="156" angle="82"/>
</glyph>
<glyph name="eth" format="2">
	<unicode hex="00F0"/>
	<advance width="600"/>
	<outline>
		<contour>
			<point x="274" y="-14" type="curve" smooth="yes"/>
			<point x="436" y="-14"/>
			<point x="547" y="77"/>
			<point x="574" y="266" type="curve" smooth="yes"/>
			<point x="576" y="280" type="line" smooth="yes"/>
			<point x="593" y="398"/>
			<point x="571" y="519"/>
			<point x="517" y="620" type="curve"/>
			<point x="594" y="642" type="line"/>
			<point x="608" y="749" type="line"/>
			<point x="459" y="707" type="line"/>
			<point x="447" y="722"/>
			<point x="433" y="737"/>
			<point x="418" y="750" type="curve"/>
			<point x="170" y="750" type="line"/>
			<point x="210" y="716"/>
			<point x="242" y="684"/>
			<point x="268" y="652" type="curve"/>
			<point x="179" y="627" type="line"/>
			<point x="165" y="520" type="line"/>
			<point x="327" y="566" type="line"/>
			<point x="358" y="509"/>
			<point x="373" y="453"/>
			<point x="383" y="391" type="curve"/>
			<point x="352" y="443"/>
			<point x="306" y="494"/>
			<point x="229" y="494" type="curve" smooth="yes"/>
			<point x="130" y="494"/>
			<point x="50" y="424"/>
			<point x="30" y="286" type="curve" smooth="yes"/>
			<point x="28" y="272" type="line" smooth="yes"/>
			<point x="4" y="106"/>
			<point x="80" y="-14"/>
		</contour>
		<contour>
			<point x="287" y="135" type="curve" smooth="yes"/>
			<point x="232" y="135"/>
			<point x="212" y="178"/>
			<point x="222" y="249" type="curve" smooth="yes"/>
			<point x="223" y="256" type="line" smooth="yes"/>
			<point x="232" y="320"/>
			<point x="259" y="357"/>
			<point x="306" y="357" type="curve" smooth="yes"/>
			<point x="361" y="357"/>
			<point x="381" y="314"/>
			<point x="371" y="242" type="curve" smooth="yes"/>
			<point x="370" y="235" type="line" smooth="yes"/>
			<point x="361" y="172"/>
			<point x="334" y="135"/>
		</contour>
	</outline>
	<guideline x="464" y="230" angle="82"/>
</glyph>
<glyph name="thorn" format="2">
	<unicode hex="00FE"/>
	<advance width="600"/>
	<outline>
		<contour>
			<point x="114" y="750" type="line"/>
			<point x="-20" y="-204" type="line"/>
			<point x="175" y="-204" type="line"/>
			<point x="203" y="0" type="line"/>
			<point x="240" y="0" type="line" smooth="yes"/>
			<point x="431" y="0"/>
			<point x="542" y="94"/>
			<point x="566" y="259" type="curve" smooth="yes"/>
			<point x="568" y="273" type="line" smooth="yes"/>
			<point x="591" y="431"/>
			<point x="537" y="537"/>
			<point x="420" y="537" type="curve" smooth="yes"/>
			<point x="358" y="537"/>
			<point x="308" y="502"/>
			<point x="264" y="431" type="curve"/>
			<point x="309" y="750" type="line"/>
		</contour>
		<contour>
			<point x="317" y="387" type="curve" smooth="yes"/>
			<point x="364" y="387"/>
			<point x="381" y="343"/>
			<point x="371" y="271" type="curve" smooth="yes"/>
			<point x="370" y="264" type="line" smooth="yes"/>
			<point x="358" y="180"/>
			<point x="326" y="147"/>
			<point x="254" y="147" type="curve" smooth="yes"/>
			<point x="224" y="147" type="line"/>
			<point x="247" y="311" type="line" smooth="yes"/>
			<point x="255" y="365"/>
			<point x="280" y="387"/>
		</contour>
	</outline>
</glyph>
<glyph name="dcroat" format="2">
	<unicode hex="0111"/>
	<advance width="600"/>
	<outline>
		<contour>
			<point x="180" y="-14" type="curve" smooth="yes"/>
			<point x="245" y="-14"/>
			<point x="300" y="25"/>
			<point x="347" y="103" type="curve"/>
			<point x="332" y="0" type="line"/>
			<point x="518" y="0" type="line"/>
			<point x="599" y="580" type="line"/>
			<point x="644" y="580" type="line"/>
			<point x="658" y="680" type="line"/>
			<point x="613" y="680" type="line"/>
			<point x="623" y="750" type="line"/>
			<point x="428" y="750" type="line"/>
			<point x="418" y="680" type="line"/>
			<point x="280" y="680" type="line"/>
			<point x="266" y="580" type="line"/>
			<point x="404" y="580" type="line"/>
			<point x="396" y="523" type="line"/>
			<point x="359" y="523" type="line" smooth="yes"/>
			<point x="170" y="523"/>
			<point x="58" y="423"/>
			<point x="34" y="258" type="curve" smooth="yes"/>
			<point x="32" y="244" type="line" smooth="yes"/>
			<point x="9" y="86"/>
			<point x="63" y="-14"/>
		</contour>
		<contour>
			<point x="229" y="252" type="curve" smooth="yes"/>
			<point x="230" y="259" type="line"/>
			<point x="242" y="343"/>
			<point x="277" y="375"/>
			<point x="346" y="375" type="curve" smooth="yes"/>
			<point x="376" y="375" type="line"/>
			<point x="353" y="212" type="line" smooth="yes"/>
			<point x="346" y="158"/>
			<point x="320" y="136"/>
			<point x="283" y="136" type="curve" smooth="yes"/>
			<point x="236" y="136"/>
			<point x="219" y="180"/>
		</contour>
	</outline>
</glyph>
<glyph name="eogonek" format="2">
	<unicode hex="0119"/>
	<advance width="600"/>
	<outline>
		<contour>
			<point x="348" y="-203" type="curve" smooth="yes"/>
			<point x="379" y="-203"/>
			<point x="406" y="-198"/>
			<point x="421" y="-194" type="curve"/>
			<point x="438" y="-79" type="line"/>
			<point x="438" y="-79"/>
			<point x="427" y="-80"/>
			<point x="417" y="-80" type="curve" smooth="yes"/>
			<point x="389" y="-80"/>
			<point x="374" y="-71"/>
			<point x="374" y="-52" type="curve" smooth="yes"/>
			<point x="374" y="-30"/>
			<point x="394" y="-13"/>
			<point x="440" y="0" type="curve"/>
			<point x="465" y="6"/>
			<point x="485" y="13"/>
			<point x="501" y="20" type="curve"/>
			<point x="520" y="163" type="line"/>
			<point x="485" y="152"/>
			<point x="426" y="139"/>
			<point x="373" y="139" type="curve" smooth="yes"/>
			<point x="277" y="139"/>
			<point x="238" y="163"/>
			<point x="228" y="214" type="curve"/>
			<point x="557" y="214" type="line"/>
			<point x="563" y="262" type="line" smooth="yes"/>
			<point x="584" y="431"/>
			<point x="500" y="537"/>
			<point x="328" y="537" type="curve" smooth="yes"/>
			<point x="179" y="537"/>
			<point x="66" y="449"/>
			<point x="44" y="297" type="curve" smooth="yes"/>
			<point x="42" y="283" type="line" smooth="yes"/>
			<point x="18" y="111"/>
			<point x="102" y="-6"/>
			<point x="294" y="-14" type="curve"/>
			<point x="243" y="-38"/>
			<point x="215" y="-69"/>
			<point x="215" y="-118" type="curve" smooth="yes"/>
			<point x="215" y="-172"/>
			<point x="259" y="-203"/>
		</contour>
		<contour>
			<point x="318" y="405" type="curve" smooth="yes"/>
			<point x="363" y="405"/>
			<point x="389" y="379"/>
			<point x="382" y="315" type="curve"/>
			<point x="232" y="315" type="line"/>
			<point x="242" y="371"/>
			<point x="268" y="405"/>
		</contour>
	</outline>
</glyph>
<glyph name="IJ" format="2">
	<unicode hex="0132"/>
	<advance width="600"/>
	<outline>
		<contour>
			<point x="229" y="-11" type="curve" smooth="yes"/>
			<point x="403" y="-11"/>
			<point x="510" y="60"/>
			<point x="534" y="230" type="curve" smooth="yes"/>
			<point x="597" y="684" type="line"/>
			<point x="403" y="684" type="line"/>
			<point x="345" y="272" type="line" smooth="yes"/>
			<point x="332" y="179"/>
			<point x="287" y="151"/>
			<point x="202" y="151" type="curve" smooth="yes"/>
			<point x="150" y="151"/>
			<point x="92" y="163"/>
			<point x="51" y="184" type="curve"/>
			<point x="30" y="26" type="line"/>
			<point x="74" y="4"/>
			<point x="142" y="-11"/>
		</contour>
		<contour>
			<point x="61" y="238" type="line"/>
			<point x="252" y="238" type="line"/>
			<point x="314" y="684" type="line"/>
			<point x="123" y="684" type="line"/>
		</contour>
	</outline>
</glyph>
<glyph name="ij" format="2">
	<unicode hex="0133"/>
	<advance width="600"/>
	<outline>
		<contour>
			<point x="212" y="582" type="curve" smooth="yes"/>
			<point x="288" y="582"/>
			<point x="323" y="608"/>
			<point x="330" y="668" type="curve" smooth="yes"/>
			<point x="337" y="732"/>
			<point x="307" y="760"/>
			<point x="225" y="760" type="curve" smooth="yes"/>
			<point x="149" y="760"/>
			<point x="114" y="735"/>
			<point x="107" y="675" type="curve" smooth="yes"/>
			<point x="100" y="611"/>
			<point x="130" y="582"/>
		</contour>
		<contour>
			<point x="490" y="582" type="curve" smooth="yes"/>
			<point x="566" y="582"/>
			<point x="601" y="608"/>
			<point x="608" y="668" type="curve" smooth="yes"/>
			<point x="615" y="732"/>
			<point x="585" y="760"/>
			<point x="503" y="760" type="curve" smooth="yes"/>
			<point x="427" y="760"/>
			<point x="392" y="735"/>
			<point x="385" y="675" type="curve" smooth="yes"/>
			<point x="378" y="611"/>
			<point x="408" y="582"/>
		</contour>
		<contour>
			<point x="256" y="-204" type="curve" smooth="yes"/>
			<point x="381" y="-204"/>
			<point x="478" y="-152"/>
			<point x="498" y="-12" type="curve" smooth="yes"/>
			<point x="573" y="523" type="line"/>
			<point x="378" y="523" type="line"/>
			<point x="308" y="28" type="line" smooth="yes"/>
			<point x="300" y="-28"/>
			<point x="268" y="-48"/>
			<point x="219" y="-48" type="curve" smooth="yes"/>
			<point x="173" y="-48"/>
			<point x="141" y="-40"/>
			<point x="114" y="-30" type="curve"/>
			<point x="93" y="-173" type="line"/>
			<point x="128" y="-191"/>
			<point x="189" y="-204"/>
		</contour>
		<contour>
			<point x="26" y="0" type="line"/>
			<point x="221" y="0" type="line"/>
			<point x="295" y="523" type="line"/>
			<point x="100" y="523" type="line"/>
		</contour>
	</outline>
</glyph>
<glyph name="Ldot" format="2">
	<unicode hex="013F"/>
	<advance width="600"/>
	<outline>
		<contour>
			<point x="35" y="0" type="line"/>
			<point x="529" y="0" type="line"/>
			<point x="554" y="181" type="line"/>
			<point x="259" y="181" type="line"/>
			<point x="329" y="684" type="line"/>
			<point x="131" y="684" type="line"/>
		</contour>
		<contour>
			<point x="486" y="301" type="curve" smooth="yes"/>
			<point x="565" y="301"/>
			<point x="593" y="346"/>
			<point x="605" y="426" type="curve" smooth="yes"/>
			<point x="619" y="518"/>
			<point x="583" y="564"/>
			<point x="507" y="564" type="curve" smooth="yes"/>
			<point x="427" y="564"/>
			<point x="397" y="520"/>
			<point x="386" y="440" type="curve" smooth="yes"/>
			<point x="373" y="347"/>
			<point x="408" y="301"/>
		</contour>
	</outline>
	<guideline x="623" y="422" angle="82"/>
</glyph>
<glyph name="Eng" format="2">
	<unicode hex="014A"/>
	<advance width="600"/>
	<outline>
		<contour>
			<point x="291" y="-204" type="curve" smooth="yes"/>
			<point x="420" y="-204"/>
			<point x="501" y="-148"/>
			<point x="522" y="0" type="curve" smooth="yes"/>
			<point x="618" y="684" type="line"/>
			<point x="452" y="684" type="line"/>
			<point x="427" y="503" type="line" smooth="yes"/>
			<point x="413" y="401"/>
			<point x="412" y="332"/>
			<point x="413" y="223" type="curve"/>
			<point x="402" y="223" type="line"/>
			<point x="317" y="684" type="line"/>
			<point x="100" y="684" type="line"/>
			<point x="4" y="0" type="line"/>
			<point x="170" y="0" type="line"/>
			<point x="195" y="180" type="line" smooth="yes"/>
			<point x="206" y="262"/>
			<point x="206" y="352"/>
			<point x="207" y="461" type="curve"/>
			<point x="219" y="461" type="line"/>
			<point x="305" y="0" type="line"/>
			<point x="343" y="0" type="line"/>
			<point x="333" y="-57"/>
			<point x="306" y="-65"/>
			<point x="253" y="-65" type="curve" smooth="yes"/>
			<point x="228" y="-65"/>
			<point x="200" y="-60"/>
			<point x="182" y="-55" type="curve"/>
			<point x="163" y="-184" type="line"/>
			<point x="193" y="-195"/>
			<point x="239" y="-204"/>
		</contour>
	</outline>
	<anchor name="bottom" x="260" y="0"/>
	<anchor name="top" x="415" y="720"/>
	<guideline x="566" y="557" angle="90"/>
	<guideline x="387" y="60" angle="82"/>
</glyph>
<glyph name="Uogonek" format="2">
	<unicode hex="0172"/>
	<advance width="600"/>
	<outline>
		<contour>
			<point x="287" y="-203" type="curve" smooth="yes"/>
			<point x="318" y="-203"/>
			<point x="345" y="-198"/>
			<point x="360" y="-194" type="curve"/>
			<point x="377" y="-79" type="line"/>
			<point x="377" y="-79"/>
			<point x="366" y="-80"/>
			<point x="356" y="-80" type="curve" smooth="yes"/>
			<point x="328" y="-80"/>
			<point x="313" y="-71"/>
			<point x="313" y="-52" type="curve" smooth="yes"/>
			<point x="313" y="-30"/>
			<point x="333" y="-13"/>
			<point x="380" y="0" type="curve"/>
			<point x="380" y="0" type="line"/>
			<point x="477" y="29"/>
			<point x="536" y="102"/>
			<point x="554" y="229" type="curve" smooth="yes"/>
			<point x="619" y="684" type="line"/>
			<point x="421" y="684" type="line"/>
			<point x="357" y="229" type="line" smooth="yes"/>
			<point x="350" y="178"/>
			<point x="325" y="149"/>
			<point x="289" y="149" type="curve" smooth="yes"/>
			<point x="249" y="149"/>
			<point x="227" y="176"/>
			<point x="234" y="228" type="curve" smooth="yes"/>
			<point x="298" y="684" type="line"/>
			<point x="100" y="684" type="line"/>
			<point x="37" y="240" type="line" smooth="yes"/>
			<point x="14" y="77"/>
			<point x="92" y="-2"/>
			<point x="235" y="-13" type="curve"/>
			<point x="183" y="-37"/>
			<point x="154" y="-69"/>
			<point x="154" y="-118" type="curve" smooth="yes"/>
			<point x="154" y="-172"/>
			<point x="198" y="-203"/>
		</contour>
	</outline>
</glyph>
<glyph name="circumflex" format="2">
	<unicode hex="02C6"/>
	<advance width="600"/>
	<outline>
		<contour>
			<point x="135" y="597" type="line"/>
			<point x="303" y="597" type="line"/>
			<point x="361" y="676" type="line"/>
			<point x="396" y="597" type="line"/>
			<point x="559" y="597" type="line"/>
			<point x="473" y="750" type="line"/>
			<point x="262" y="750" type="line"/>
		</contour>
	</outline>
	<anchor name="_top" x="341" y="523"/>
</glyph>
<glyph name="caron" format="2">
	<unicode hex="02C7"/>
	<advance width="600"/>
	<outline>
		<contour>
			<point x="581" y="750" type="line"/>
			<point x="412" y="750" type="line"/>
			<point x="354" y="670" type="line"/>
			<point x="319" y="750" type="line"/>
			<point x="157" y="750" type="line"/>
			<point x="243" y="597" type="line"/>
			<point x="454" y="597" type="line"/>
		</contour>
	</outline>
	<anchor name="_top" x="338" y="523"/>
</glyph>
<glyph name="breve" format="2">
	<unicode hex="02D8"/>
	<advance width="600"/>
	<outline>
		<contour>
			<point x="349" y="586" type="curve" smooth="yes"/>
			<point x="476" y="586"/>
			<point x="533" y="633"/>
			<point x="549" y="750" type="curve"/>
			<point x="411" y="750" type="line"/>
			<point x="406" y="707"/>
			<point x="399" y="687"/>
			<point x="363" y="687" type="curve" smooth="yes"/>
			<point x="328" y="687"/>
			<point x="322" y="707"/>
			<point x="327" y="750" type="curve"/>
			<point x="189" y="750" type="line"/>
			<point x="172" y="633"/>
			<point x="227" y="586"/>
		</contour>
	</outline>
	<anchor name="_top" x="337" y="523"/>
</glyph>
<glyph name="dotaccent" format="2">
	<unicode hex="02D9"/>
	<advance width="600"/>
	<outline>
		<contour>
			<point x="348" y="582" type="curve" smooth="yes"/>
			<point x="427" y="582"/>
			<point x="462" y="608"/>
			<point x="469" y="668" type="curve" smooth="yes"/>
			<point x="476" y="732"/>
			<point x="446" y="760"/>
			<point x="367" y="760" type="curve" smooth="yes"/>
			<point x="288" y="760"/>
			<point x="253" y="735"/>
			<point x="246" y="675" type="curve" smooth="yes"/>
			<point x="239" y="611"/>
			<point x="269" y="582"/>
		</contour>
	</outline>
	<anchor name="_top" x="337" y="523"/>
	<guideline x="386" y="703" angle="0"/>
	<guideline x="379" y="614" angle="0"/>
</glyph>
<glyph name="ogonek" format="2">
	<unicode hex="02DB"/>
	<advance width="600"/>
	<outline>
		<contour>
			<point x="269" y="-203" type="curve" smooth="yes"/>
			<point x="300" y="-203"/>
			<point x="327" y="-198"/>
			<point x="342" y="-194" type="curve"/>
			<point x="359" y="-79" type="line"/>
			<point x="359" y="-79"/>
			<point x="348" y="-80"/>
			<point x="338" y="-80" type="curve" smooth="yes"/>
			<point x="310" y="-80"/>
			<point x="295" y="-71"/>
			<point x="295" y="-52" type="curve" smooth="yes"/>
			<point x="295" y="-30"/>
			<point x="315" y="-13"/>
			<point x="362" y="0" type="curve"/>
			<point x="246" y="0" type="line"/>
			<point x="176" y="-27"/>
			<point x="136" y="-60"/>
			<point x="136" y="-118" type="curve" smooth="yes"/>
			<point x="136" y="-172"/>
			<point x="180" y="-203"/>
		</contour>
	</outline>
	<anchor name="_ogonek" x="362" y="0"/>
</glyph>
<glyph name="pi" format="2">
	<unicode hex="03C0"/>
	<advance width="600"/>
	<outline>
		<contour>
			<point x="28" y="0" type="line"/>
			<point x="209" y="0" type="line"/>
			<point x="261" y="375" type="line"/>
			<point x="347" y="375" type="line"/>
			<point x="318" y="162" type="line" smooth="yes"/>
			<point x="302" y="46"/>
			<point x="336" y="-12"/>
			<point x="454" y="-12" type="curve" smooth="yes"/>
			<point x="495" y="-12"/>
			<point x="530" y="-6"/>
			<point x="548" y="0" type="curve"/>
			<point x="566" y="128" type="line"/>
			<point x="566" y="128"/>
			<point x="555" y="126"/>
			<point x="545" y="126" type="curve" smooth="yes"/>
			<point x="513" y="126"/>
			<point x="496" y="141"/>
			<point x="500" y="167" type="curve" smooth="yes"/>
			<point x="529" y="375" type="line"/>
			<point x="601" y="375" type="line"/>
			<point x="622" y="523" type="line"/>
			<point x="43" y="523" type="line"/>
			<point x="22" y="375" type="line"/>
			<point x="80" y="375" type="line"/>
		</contour>
	</outline>
</glyph>
<glyph name="endash" format="2">
	<unicode hex="2013"/>
	<advance width="600"/>
	<outline>
		<contour>
			<point x="555" y="377" type="line"/>
			<point x="76" y="377" type="line"/>
			<point x="52" y="201" type="line"/>
			<point x="531" y="201" type="line"/>
		</contour>
	</outline>
</glyph>
<glyph name="emdash" format="2">
	<unicode hex="2014"/>
	<advance width="600"/>
	<outline>
		<contour>
			<point x="616" y="377" type="line"/>
			<point x="16" y="377" type="line"/>
			<point x="-8" y="201" type="line"/>
			<point x="591" y="201" type="line"/>
		</contour>
	</outline>
</glyph>
<glyph name="quoteleft" format="2">
	<unicode hex="2018"/>
	<advance width="600"/>
	<outline>
		<contour>
			<point x="398" y="428" type="line"/>
			<point x="481" y="750" type="line"/>
			<point x="354" y="750" type="line"/>
			<point x="188" y="428" type="line"/>
		</contour>
	</outline>
</glyph>
<glyph name="quoteright" format="2">
	<unicode hex="2019"/>
	<advance width="600"/>
	<outline>
		<contour>
			<point x="294" y="750" type="line"/>
			<point x="211" y="428" type="line"/>
			<point x="337" y="428" type="line"/>
			<point x="503" y="750" type="line"/>
		</contour>
	</outline>
</glyph>
<glyph name="quotesinglbase" format="2">
	<unicode hex="201A"/>
	<advance width="600"/>
	<outline>
		<contour>
			<point x="216" y="190" type="line"/>
			<point x="133" y="-132" type="line"/>
			<point x="259" y="-132" type="line"/>
			<point x="425" y="190" type="line"/>
		</contour>
	</outline>
</glyph>
<glyph name="quotedblleft" format="2">
	<unicode hex="201C"/>
	<advance width="600"/>
	<outline>
		<contour>
			<point x="514" y="428" type="line"/>
			<point x="595" y="750" type="line"/>
			<point x="473" y="750" type="line"/>
			<point x="312" y="428" type="line"/>
		</contour>
		<contour>
			<point x="264" y="427" type="line"/>
			<point x="345" y="749" type="line"/>
			<point x="223" y="749" type="line"/>
			<point x="62" y="427" type="line"/>
		</contour>
	</outline>
</glyph>
<glyph name="quotedblright" format="2">
	<unicode hex="201D"/>
	<advance width="600"/>
	<outline>
		<contour>
			<point x="178" y="750" type="line"/>
			<point x="97" y="428" type="line"/>
			<point x="219" y="428" type="line"/>
			<point x="380" y="750" type="line"/>
		</contour>
		<contour>
			<point x="427" y="750" type="line"/>
			<point x="346" y="428" type="line"/>
			<point x="468" y="428" type="line"/>
			<point x="630" y="750" type="line"/>
		</contour>
	</outline>
</glyph>
<glyph name="bullet" format="2">
	<unicode hex="2022"/>
	<advance width="600"/>
	<outline>
		<contour>
			<point x="293" y="110" type="curve" smooth="yes"/>
			<point x="404" y="110"/>
			<point x="455" y="159"/>
			<point x="468" y="281" type="curve" smooth="yes"/>
			<point x="481" y="396"/>
			<point x="439" y="458"/>
			<point x="315" y="458" type="curve" smooth="yes"/>
			<point x="203" y="458"/>
			<point x="151" y="409"/>
			<point x="138" y="288" type="curve" smooth="yes"/>
			<point x="125" y="172"/>
			<point x="168" y="110"/>
		</contour>
	</outline>
</glyph>
<glyph name="ellipsis" format="2">
	<unicode hex="2026"/>
	<advance width="600"/>
	<outline>
		<contour>
			<point x="59" y="-12" type="curve" smooth="yes"/>
			<point x="117" y="-12"/>
			<point x="139" y="28"/>
			<point x="149" y="92" type="curve" smooth="yes"/>
			<point x="160" y="166"/>
			<point x="140" y="208"/>
			<point x="82" y="208" type="curve" smooth="yes"/>
			<point x="23" y="208"/>
			<point x="0" y="169"/>
			<point x="-9" y="104" type="curve" smooth="yes"/>
			<point x="-20" y="29"/>
			<point x="0" y="-12"/>
		</contour>
		<contour>
			<point x="266" y="-12" type="curve" smooth="yes"/>
			<point x="324" y="-12"/>
			<point x="346" y="28"/>
			<point x="356" y="92" type="curve" smooth="yes"/>
			<point x="367" y="166"/>
			<point x="347" y="208"/>
			<point x="289" y="208" type="curve" smooth="yes"/>
			<point x="230" y="208"/>
			<point x="207" y="169"/>
			<point x="198" y="104" type="curve" smooth="yes"/>
			<point x="187" y="29"/>
			<point x="207" y="-12"/>
		</contour>
		<contour>
			<point x="473" y="-12" type="curve" smooth="yes"/>
			<point x="531" y="-12"/>
			<point x="553" y="28"/>
			<point x="563" y="92" type="curve" smooth="yes"/>
			<point x="574" y="166"/>
			<point x="554" y="208"/>
			<point x="496" y="208" type="curve" smooth="yes"/>
			<point x="437" y="208"/>
			<point x="414" y="169"/>
			<point x="405" y="104" type="curve" smooth="yes"/>
			<point x="394" y="29"/>
			<point x="414" y="-12"/>
		</contour>
	</outline>
</glyph>
<glyph name="perthousand" format="2">
	<unicode hex="2030"/>
	<advance width="600"/>
	<outline>
		<contour>
			<point x="182" y="393" type="curve" smooth="yes"/>
			<point x="273" y="393"/>
			<point x="328" y="445"/>
			<point x="340" y="529" type="curve" smooth="yes"/>
			<point x="357" y="644"/>
			<point x="292" y="691"/>
			<point x="203" y="691" type="curve" smooth="yes"/>
			<point x="112" y="691"/>
			<point x="58" y="639"/>
			<point x="46" y="556" type="curve" smooth="yes"/>
			<point x="29" y="440"/>
			<point x="93" y="393"/>
		</contour>
		<contour>
			<point x="187" y="482" type="curve" smooth="yes"/>
			<point x="158" y="482"/>
			<point x="151" y="503"/>
			<point x="157" y="544" type="curve" smooth="yes"/>
			<point x="163" y="585"/>
			<point x="174" y="602"/>
			<point x="198" y="602" type="curve" smooth="yes"/>
			<point x="227" y="602"/>
			<point x="234" y="581"/>
			<point x="228" y="541" type="curve" smooth="yes"/>
			<point x="222" y="499"/>
			<point x="211" y="482"/>
		</contour>
		<contour>
			<point x="13" y="258" type="line"/>
			<point x="594" y="392" type="line"/>
			<point x="605" y="469" type="line"/>
			<point x="24" y="334" type="line"/>
		</contour>
		<contour>
			<point x="229" y="-7" type="curve" smooth="yes"/>
			<point x="267" y="-7"/>
			<point x="300" y="3"/>
			<point x="325" y="22" type="curve"/>
			<point x="350" y="2"/>
			<point x="382" y="-7"/>
			<point x="419" y="-7" type="curve" smooth="yes"/>
			<point x="509" y="-7"/>
			<point x="564" y="45"/>
			<point x="576" y="129" type="curve" smooth="yes"/>
			<point x="593" y="244"/>
			<point x="531" y="291"/>
			<point x="445" y="291" type="curve" smooth="yes"/>
			<point x="406" y="291"/>
			<point x="373" y="281"/>
			<point x="347" y="262" type="curve"/>
			<point x="323" y="282"/>
			<point x="291" y="291"/>
			<point x="254" y="291" type="curve" smooth="yes"/>
			<point x="163" y="291"/>
			<point x="109" y="239"/>
			<point x="97" y="156" type="curve" smooth="yes"/>
			<point x="80" y="40"/>
			<point x="142" y="-7"/>
		</contour>
		<contour>
			<point x="238" y="82" type="curve" smooth="yes"/>
			<point x="209" y="82"/>
			<point x="202" y="103"/>
			<point x="208" y="144" type="curve" smooth="yes"/>
			<point x="214" y="185"/>
			<point x="225" y="202"/>
			<point x="249" y="202" type="curve" smooth="yes"/>
			<point x="278" y="202"/>
			<point x="285" y="181"/>
			<point x="279" y="141" type="curve" smooth="yes"/>
			<point x="273" y="99"/>
			<point x="262" y="82"/>
		</contour>
		<contour>
			<point x="423" y="82" type="curve" smooth="yes"/>
			<point x="394" y="82"/>
			<point x="387" y="103"/>
			<point x="393" y="144" type="curve" smooth="yes"/>
			<point x="399" y="185"/>
			<point x="410" y="202"/>
			<point x="434" y="202" type="curve" smooth="yes"/>
			<point x="463" y="202"/>
			<point x="470" y="181"/>
			<point x="464" y="141" type="curve" smooth="yes"/>
			<point x="458" y="99"/>
			<point x="447" y="82"/>
		</contour>
	</outline>
	<guideline x="337" y="529" angle="82"/>
	<guideline x="604" y="469" angle="82"/>
</glyph>
<glyph name="fraction" format="2">
	<unicode hex="2044"/>
	<advance width="600"/>
	<outline>
		<contour>
			<point x="386" y="407" type="line"/>
			<point x="516" y="407" type="line"/>
			<point x="639" y="684" type="line"/>
			<point x="480" y="684" type="line"/>
		</contour>
		<contour>
			<point x="-17" y="0" type="line"/>
			<point x="142" y="0" type="line"/>
			<point x="237" y="278" type="line"/>
			<point x="106" y="278" type="line"/>
		</contour>
	</outline>
</glyph>
<glyph name="Euro" format="2">
	<unicode hex="20AC"/>
	<advance width="600"/>
	<outline>
		<contour>
			<point x="11" y="223" type="line"/>
			<point x="96" y="223" type="line"/>
			<point x="121" y="83"/>
			<point x="219" y="-12"/>
			<point x="402" y="-12" type="curve" smooth="yes"/>
			<point x="452" y="-12"/>
			<point x="498" y="-2"/>
			<point x="529" y="10" type="curve"/>
			<point x="550" y="175" type="line"/>
			<point x="511" y="162"/>
			<point x="476" y="156"/>
			<point x="436" y="156" type="curve" smooth="yes"/>
			<point x="375" y="156"/>
			<point x="333" y="180"/>
			<point x="312" y="223" type="curve"/>
			<point x="482" y="223" type="line"/>
			<point x="496" y="324" type="line"/>
			<point x="294" y="324" type="line"/>
			<point x="294" y="338"/>
			<point x="296" y="352"/>
			<point x="298" y="366" type="curve"/>
			<point x="502" y="366" type="line"/>
			<point x="516" y="467" type="line"/>
			<point x="328" y="467" type="line"/>
			<point x="355" y="514"/>
			<point x="399" y="533"/>
			<point x="458" y="533" type="curve" smooth="yes"/>
			<point x="506" y="533"/>
			<point x="553" y="523"/>
			<point x="596" y="500" type="curve"/>
			<point x="618" y="658" type="line"/>
			<point x="583" y="676"/>
			<point x="523" y="695"/>
			<point x="444" y="695" type="curve" smooth="yes"/>
			<point x="268" y="695"/>
			<point x="159" y="607"/>
			<point x="114" y="467" type="curve"/>
			<point x="45" y="467" type="line"/>
			<point x="31" y="366" type="line"/>
			<point x="94" y="366" type="line"/>
			<point x="92" y="352"/>
			<point x="91" y="338"/>
			<point x="90" y="324" type="curve"/>
			<point x="25" y="324" type="line"/>
		</contour>
	</outline>
	<guideline x="554" y="175" angle="82"/>
</glyph>
<glyph name="published" format="2">
	<unicode hex="2117"/>
	<advance width="600"/>
	<outline>
		<contour>
			<point x="302" y="101" type="curve" smooth="yes"/>
			<point x="439" y="101"/>
			<point x="557" y="181"/>
			<point x="579" y="335" type="curve" smooth="yes"/>
			<point x="581" y="349" type="line" smooth="yes"/>
			<point x="609" y="545"/>
			<point x="495" y="657"/>
			<point x="331" y="657" type="curve" smooth="yes"/>
			<point x="194" y="657"/>
			<point x="76" y="578"/>
			<point x="54" y="424" type="curve" smooth="yes"/>
			<point x="52" y="410" type="line" smooth="yes"/>
			<point x="24" y="214"/>
			<point x="140" y="101"/>
		</contour>
		<contour>
			<point x="308" y="176" type="curve" smooth="yes"/>
			<point x="180" y="176"/>
			<point x="110" y="260"/>
			<point x="131" y="409" type="curve" smooth="yes"/>
			<point x="132" y="416" type="line" smooth="yes"/>
			<point x="147" y="523"/>
			<point x="217" y="582"/>
			<point x="325" y="582" type="curve" smooth="yes"/>
			<point x="454" y="582"/>
			<point x="523" y="499"/>
			<point x="502" y="350" type="curve" smooth="yes"/>
			<point x="501" y="343" type="line" smooth="yes"/>
			<point x="486" y="236"/>
			<point x="417" y="176"/>
		</contour>
		<contour>
			<point x="198" y="252" type="line"/>
			<point x="280" y="252" type="line"/>
			<point x="290" y="320" type="line"/>
			<point x="330" y="320" type="line" smooth="yes"/>
			<point x="397" y="320"/>
			<point x="450" y="356"/>
			<point x="450" y="425" type="curve" smooth="yes"/>
			<point x="450" y="479"/>
			<point x="416" y="513"/>
			<point x="340" y="513" type="curve" smooth="yes"/>
			<point x="235" y="513" type="line"/>
		</contour>
		<contour>
			<point x="328" y="451" type="line" smooth="yes"/>
			<point x="356" y="451"/>
			<point x="366" y="439"/>
			<point x="366" y="420" type="curve" smooth="yes"/>
			<point x="366" y="397"/>
			<point x="351" y="382"/>
			<point x="326" y="382" type="curve" smooth="yes"/>
			<point x="299" y="382" type="line"/>
			<point x="309" y="451" type="line"/>
		</contour>
	</outline>
</glyph>
<glyph name="servicemark" format="2">
	<unicode hex="2120"/>
	<advance width="600"/>
	<outline>
		<contour>
			<point x="149" y="337" type="curve" smooth="yes"/>
			<point x="237" y="337"/>
			<point x="285" y="392"/>
			<point x="285" y="462" type="curve" smooth="yes"/>
			<point x="285" y="525"/>
			<point x="250" y="539"/>
			<point x="196" y="558" type="curve" smooth="yes"/>
			<point x="164" y="569"/>
			<point x="151" y="574"/>
			<point x="151" y="589" type="curve" smooth="yes"/>
			<point x="151" y="607"/>
			<point x="165" y="613"/>
			<point x="185" y="613" type="curve" smooth="yes"/>
			<point x="228" y="613"/>
			<point x="271" y="598"/>
			<point x="296" y="579" type="curve"/>
			<point x="308" y="662" type="line"/>
			<point x="291" y="674"/>
			<point x="245" y="689"/>
			<point x="190" y="689" type="curve" smooth="yes"/>
			<point x="96" y="689"/>
			<point x="55" y="635"/>
			<point x="55" y="566" type="curve" smooth="yes"/>
			<point x="55" y="498"/>
			<point x="97" y="484"/>
			<point x="152" y="468" type="curve" smooth="yes"/>
			<point x="176" y="461"/>
			<point x="187" y="454"/>
			<point x="187" y="440" type="curve" smooth="yes"/>
			<point x="187" y="422"/>
			<point x="175" y="414"/>
			<point x="150" y="414" type="curve" smooth="yes"/>
			<point x="119" y="414"/>
			<point x="73" y="428"/>
			<point x="43" y="449" type="curve"/>
			<point x="31" y="369" type="line"/>
			<point x="53" y="354"/>
			<point x="94" y="337"/>
		</contour>
		<contour>
			<point x="299" y="342" type="line"/>
			<point x="380" y="342" type="line"/>
			<point x="390" y="413" type="line" smooth="yes"/>
			<point x="399" y="478"/>
			<point x="403" y="531"/>
			<point x="403" y="590" type="curve"/>
			<point x="409" y="590" type="line"/>
			<point x="422" y="426" type="line"/>
			<point x="492" y="426" type="line"/>
			<point x="552" y="590" type="line"/>
			<point x="557" y="590" type="line"/>
			<point x="541" y="528"/>
			<point x="531" y="479"/>
			<point x="522" y="414" type="curve" smooth="yes"/>
			<point x="512" y="342" type="line"/>
			<point x="593" y="342" type="line"/>
			<point x="641" y="684" type="line"/>
			<point x="522" y="684" type="line"/>
			<point x="471" y="519" type="line"/>
			<point x="468" y="519" type="line"/>
			<point x="461" y="684" type="line"/>
			<point x="347" y="684" type="line"/>
		</contour>
	</outline>
</glyph>
<glyph name="uni2196" format="2">
	<unicode hex="2196"/>
	<advance width="600"/>
	<outline>
		<contour>
			<point x="453" y="58" type="line"/>
			<point x="567" y="159" type="line"/>
			<point x="289" y="479" type="line"/>
			<point x="509" y="477" type="line"/>
			<point x="396" y="610" type="line"/>
			<point x="79" y="610" type="line"/>
			<point x="34" y="290" type="line"/>
			<point x="146" y="159" type="line"/>
			<point x="175" y="381" type="line"/>
		</contour>
	</outline>
	<guideline x="567" y="194" angle="90"/>
</glyph>
<glyph name="uni2197" format="2">
	<unicode hex="2197"/>
	<advance width="600"/>
	<outline>
		<contour>
			<point x="105" y="59" type="line"/>
			<point x="454" y="367" type="line"/>
			<point x="423" y="161" type="line"/>
			<point x="574" y="293" type="line"/>
			<point x="619" y="610" type="line"/>
			<point x="299" y="610" type="line"/>
			<point x="149" y="479" type="line"/>
			<point x="357" y="481" type="line"/>
			<point x="7" y="173" type="line"/>
		</contour>
	</outline>
	<guideline x="7" y="171" angle="90"/>
</glyph>
<glyph name="uni2199" format="2">
	<unicode hex="2199"/>
	<advance width="600"/>
	<outline>
		<contour>
			<point x="2" y="60" type="line"/>
			<point x="322" y="60" type="line"/>
			<point x="472" y="191" type="line"/>
			<point x="264" y="189" type="line"/>
			<point x="614" y="497" type="line"/>
			<point x="516" y="611" type="line"/>
			<point x="167" y="303" type="line"/>
			<point x="198" y="509" type="line"/>
			<point x="47" y="377" type="line"/>
		</contour>
	</outline>
</glyph>
<glyph name="product" format="2">
	<unicode hex="220F"/>
	<advance width="600"/>
	<outline>
		<contour>
			<point x="13" y="0" type="line"/>
			<point x="201" y="0" type="line"/>
			<point x="275" y="523" type="line"/>
			<point x="398" y="523" type="line"/>
			<point x="324" y="0" type="line"/>
			<point x="512" y="0" type="line"/>
			<point x="609" y="684" type="line"/>
			<point x="110" y="684" type="line"/>
		</contour>
	</outline>
</glyph>
<glyph name="minus" format="2">
	<unicode hex="2212"/>
	<advance width="600"/>
	<outline>
		<contour>
			<point x="52" y="218" type="line"/>
			<point x="536" y="218" type="line"/>
			<point x="559" y="378" type="line"/>
			<point x="75" y="378" type="line"/>
		</contour>
	</outline>
</glyph>
<glyph name="notequal" format="2">
	<unicode hex="2260"/>
	<advance width="600"/>
	<outline>
		<contour>
			<point x="73" y="12" type="line"/>
			<point x="201" y="12" type="line"/>
			<point x="244" y="82" type="line"/>
			<point x="518" y="82" type="line"/>
			<point x="541" y="242" type="line"/>
			<point x="344" y="242" type="line"/>
			<point x="389" y="314" type="line"/>
			<point x="550" y="314" type="line"/>
			<point x="573" y="474" type="line"/>
			<point x="488" y="474" type="line"/>
			<point x="529" y="540" type="line"/>
			<point x="401" y="540" type="line"/>
			<point x="360" y="474" type="line"/>
			<point x="89" y="474" type="line"/>
			<point x="66" y="314" type="line"/>
			<point x="261" y="314" type="line"/>
			<point x="216" y="242" type="line"/>
			<point x="57" y="242" type="line"/>
			<point x="34" y="82" type="line"/>
			<point x="116" y="82" type="line"/>
		</contour>
	</outline>
	<guideline x="32" y="71" angle="82"/>
	<guideline x="515" y="71" angle="82"/>
</glyph>
<glyph name="lessequal" format="2">
	<unicode hex="2264"/>
	<advance width="600"/>
	<outline>
		<contour>
			<point x="531" y="189" type="line"/>
			<point x="555" y="355" type="line"/>
			<point x="241" y="458" type="line"/>
			<point x="584" y="559" type="line"/>
			<point x="608" y="732" type="line"/>
			<point x="101" y="569" type="line"/>
			<point x="71" y="355" type="line"/>
		</contour>
		<contour>
			<point x="19" y="-14" type="line"/>
			<point x="503" y="-14" type="line"/>
			<point x="526" y="146" type="line"/>
			<point x="42" y="146" type="line"/>
		</contour>
	</outline>
	<guideline x="522" y="128" angle="82"/>
</glyph>
<glyph name="greaterequal" format="2">
	<unicode hex="2265"/>
	<advance width="600"/>
	<outline>
		<contour>
			<point x="48" y="189" type="line"/>
			<point x="555" y="355" type="line"/>
			<point x="585" y="569" type="line"/>
			<point x="125" y="732" type="line"/>
			<point x="101" y="566" type="line"/>
			<point x="415" y="465" type="line"/>
			<point x="72" y="362" type="line"/>
		</contour>
		<contour>
			<point x="18" y="-14" type="line"/>
			<point x="502" y="-14" type="line"/>
			<point x="525" y="146" type="line"/>
			<point x="41" y="146" type="line"/>
		</contour>
	</outline>
</glyph>
<glyph name="lozenge" format="2">
	<unicode hex="25CA"/>
	<advance width="600"/>
	<outline>
		<contour>
			<point x="136" y="0" type="line"/>
			<point x="392" y="0" type="line"/>
			<point x="608" y="334" type="line"/>
			<point x="490" y="684" type="line"/>
			<point x="233" y="684" type="line"/>
			<point x="14" y="349" type="line"/>
		</contour>
		<contour>
			<point x="218" y="342" type="line"/>
			<point x="344" y="545" type="line"/>
			<point x="404" y="342" type="line"/>
			<point x="282" y="140" type="line"/>
		</contour>
	</outline>
	<guideline x="442" y="720" angle="90"/>
</glyph>
<glyph name="sun" format="2">
	<unicode hex="263C"/>
	<advance width="600"/>
	<outline>
		<contour>
			<point x="430" y="710" type="line"/>
			<point x="447" y="568" type="line"/>
			<point x="467" y="568" type="line"/>
			<point x="484" y="710" type="line"/>
		</contour>
		<contour>
			<point x="257" y="650" type="line"/>
			<point x="344" y="535" type="line"/>
			<point x="359" y="545" type="line"/>
			<point x="304" y="678" type="line"/>
		</contour>
		<contour>
			<point x="555" y="545" type="line"/>
			<point x="570" y="535" type="line"/>
			<point x="657" y="650" type="line"/>
			<point x="610" y="678" type="line"/>
		</contour>
		<contour>
			<point x="136" y="510" type="line"/>
			<point x="269" y="455" type="line"/>
			<point x="279" y="470" type="line"/>
			<point x="164" y="557" type="line"/>
		</contour>
		<contour>
			<point x="635" y="471" type="line"/>
			<point x="645" y="455" type="line"/>
			<point x="778" y="511" type="line"/>
			<point x="748" y="557" type="line"/>
		</contour>
		<contour>
			<point x="283" y="356" type="curve" smooth="yes"/>
			<point x="283" y="261"/>
			<point x="362" y="182"/>
			<point x="457" y="182" type="curve" smooth="yes"/>
			<point x="552" y="182"/>
			<point x="631" y="261"/>
			<point x="631" y="356" type="curve" smooth="yes"/>
			<point x="631" y="451"/>
			<point x="552" y="530"/>
			<point x="457" y="530" type="curve" smooth="yes"/>
			<point x="362" y="530"/>
			<point x="283" y="451"/>
		</contour>
		<contour>
			<point x="104" y="384" type="line"/>
			<point x="104" y="330" type="line"/>
			<point x="246" y="347" type="line"/>
			<point x="246" y="367" type="line"/>
		</contour>
		<contour>
			<point x="668" y="347" type="line"/>
			<point x="810" y="330" type="line"/>
			<point x="810" y="384" type="line"/>
			<point x="668" y="367" type="line"/>
		</contour>
		<contour>
			<point x="136" y="203" type="line"/>
			<point x="166" y="157" type="line"/>
			<point x="279" y="243" type="line"/>
			<point x="269" y="259" type="line"/>
		</contour>
		<contour>
			<point x="635" y="244" type="line"/>
			<point x="750" y="157" type="line"/>
			<point x="778" y="204" type="line"/>
			<point x="645" y="259" type="line"/>
		</contour>
		<contour>
			<point x="257" y="64" type="line"/>
			<point x="304" y="36" type="line"/>
			<point x="359" y="169" type="line"/>
			<point x="344" y="179" type="line"/>
		</contour>
		<contour>
			<point x="555" y="169" type="line"/>
			<point x="610" y="36" type="line"/>
			<point x="657" y="64" type="line"/>
			<point x="570" y="179" type="line"/>
		</contour>
		<contour>
			<point x="447" y="146" type="line"/>
			<point x="430" y="4" type="line"/>
			<point x="484" y="4" type="line"/>
			<point x="467" y="146" type="line"/>
		</contour>
	</outline>
</glyph>
<glyph name="club" format="2">
	<unicode hex="2663"/>
	<advance width="600"/>
	<outline>
		<contour>
			<point x="578" y="0" type="line"/>
			<point x="556" y="44"/>
			<point x="496" y="142"/>
			<point x="483" y="245" type="curve"/>
			<point x="509" y="177"/>
			<point x="568" y="128"/>
			<point x="643" y="128" type="curve" smooth="yes"/>
			<point x="739" y="128"/>
			<point x="816" y="207"/>
			<point x="816" y="303" type="curve" smooth="yes"/>
			<point x="816" y="399"/>
			<point x="740" y="476"/>
			<point x="644" y="476" type="curve" smooth="yes"/>
			<point x="628" y="476"/>
			<point x="612" y="473"/>
			<point x="599" y="468" type="curve"/>
			<point x="610" y="495"/>
			<point x="617" y="525"/>
			<point x="617" y="555" type="curve" smooth="yes"/>
			<point x="617" y="650"/>
			<point x="540" y="726"/>
			<point x="445" y="726" type="curve" smooth="yes"/>
			<point x="350" y="726"/>
			<point x="272" y="650"/>
			<point x="272" y="555" type="curve" smooth="yes"/>
			<point x="272" y="526"/>
			<point x="280" y="496"/>
			<point x="292" y="470" type="curve"/>
			<point x="279" y="473"/>
			<point x="266" y="476"/>
			<point x="251" y="476" type="curve" smooth="yes"/>
			<point x="155" y="476"/>
			<point x="77" y="399"/>
			<point x="77" y="303" type="curve" smooth="yes"/>
			<point x="77" y="207"/>
			<point x="155" y="128"/>
			<point x="251" y="128" type="curve" smooth="yes"/>
			<point x="327" y="128"/>
			<point x="388" y="178"/>
			<point x="415" y="246" type="curve"/>
			<point x="403" y="142"/>
			<point x="349" y="44"/>
			<point x="324" y="0" type="curve"/>
		</contour>
	</outline>
</glyph>
<glyph name=".notdef" format="2">
	<advance width="600"/>
	<outline>
		<contour>
			<point x="75" y="-100" type="line"/>
			<point x="525" y="-100" type="line"/>
			<point x="525" y="784" type="line"/>
			<point x="75" y="784" type="line"/>
		</contour>
		<contour>
			<point x="223" y="33.2" type="line"/>
			<point x="223" y="650.8" type="line"/>
			<point x="377" y="650.8" type="line"/>
			<point x="377" y="33.2" type="line"/>
		</contour>
	</outline>
</glyph>
<glyph name="a.ss01" format="2">
	<advance width="600"/>
	<outline>
		<contour>
			<point x="180" y="-14" type="curve" smooth="yes"/>
			<point x="245" y="-14"/>
			<point x="300" y="25"/>
			<point x="347" y="103" type="curve"/>
			<point x="332" y="0" type="line"/>
			<point x="518" y="0" type="line"/>
			<point x="591" y="523" type="line"/>
			<point x="359" y="523" type="line" smooth="yes"/>
			<point x="170" y="523"/>
			<point x="58" y="423"/>
			<point x="34" y="258" type="curve" smooth="yes"/>
			<point x="32" y="244" type="line" smooth="yes"/>
			<point x="9" y="86"/>
			<point x="63" y="-14"/>
		</contour>
		<contour>
			<point x="229" y="252" type="curve" smooth="yes"/>
			<point x="230" y="259" type="line"/>
			<point x="242" y="343"/>
			<point x="277" y="375"/>
			<point x="346" y="375" type="curve" smooth="yes"/>
			<point x="376" y="375" type="line"/>
			<point x="353" y="212" type="line" smooth="yes"/>
			<point x="346" y="158"/>
			<point x="320" y="136"/>
			<point x="283" y="136" type="curve" smooth="yes"/>
			<point x="236" y="136"/>
			<point x="219" y="180"/>
		</contour>
	</outline>
	<anchor name="bottom" x="269" y="-4"/>
	<anchor name="ogonek" x="518" y="0"/>
	<anchor name="top" x="366" y="523"/>
	<guideline x="91" y="526" angle="82" identifier="n4ghUM2SSD"/>
	<guideline x="548" y="327" angle="82" identifier="RIZvW5A5Fa"/>
</glyph>
<glyph name="acute.cap" format="2">
	<advance width="600"/>
	<outline>
		<contour>
			<point x="241" y="741" type="line"/>
			<point x="382" y="741" type="line"/>
			<point x="513" y="884" type="line"/>
			<point x="305" y="884" type="line"/>
		</contour>
	</outline>
	<anchor name="_top" x="304" y="684"/>
	<guideline x="239" y="625" angle="0"/>
</glyph>
<glyph name="asciitilde_asciitilde_greater.cLig" format="2">
	<advance width="600"/>
	<outline>
		<contour>
			<point x="115" y="629" type="line"/>
			<point x="279" y="400" type="line"/>
			<point x="24" y="400" type="line"/>
			<point x="-8" y="443"/>
			<point x="-53" y="460"/>
			<point x="-97" y="460" type="curve"/>
			<point x="-206" y="460"/>
			<point x="-237" y="343"/>
			<point x="-302" y="343" type="curve" smooth="yes"/>
			<point x="-374" y="343"/>
			<point x="-381" y="457"/>
			<point x="-492" y="457" type="curve" smooth="yes"/>
			<point x="-594" y="457"/>
			<point x="-629" y="343"/>
			<point x="-694" y="343" type="curve" smooth="yes"/>
			<point x="-764" y="343"/>
			<point x="-778" y="457"/>
			<point x="-896" y="457" type="curve" smooth="yes"/>
			<point x="-996" y="457"/>
			<point x="-1100" y="374"/>
			<point x="-1140" y="177" type="curve"/>
			<point x="-992" y="177" type="line"/>
			<point x="-974" y="234"/>
			<point x="-944" y="279"/>
			<point x="-896" y="279" type="curve"/>
			<point x="-832" y="279"/>
			<point x="-822" y="169"/>
			<point x="-703" y="169" type="curve" smooth="yes"/>
			<point x="-594" y="169"/>
			<point x="-568" y="278"/>
			<point x="-502" y="278" type="curve" smooth="yes"/>
			<point x="-430" y="278"/>
			<point x="-437" y="169"/>
			<point x="-312" y="169" type="curve"/>
			<point x="-210" y="169"/>
			<point x="-183" y="285"/>
			<point x="-119" y="285" type="curve" smooth="yes"/>
			<point x="-87" y="285"/>
			<point x="-75" y="266"/>
			<point x="-58" y="228" type="curve"/>
			<point x="247" y="228" type="line"/>
			<point x="22" y="0" type="line"/>
			<point x="241" y="0" type="line"/>
			<point x="546" y="314" type="line"/>
			<point x="323" y="629" type="line"/>
		</contour>
	</outline>
</glyph>
<glyph name="asciitilde_at.cLig" format="2">
	<advance width="600"/>
	<outline>
		<contour>
			<point x="360" y="-20" type="curve"/>
			<point x="482" y="-20"/>
			<point x="555" y="79"/>
			<point x="580" y="256" type="curve" smooth="yes"/>
			<point x="582" y="270" type="line" smooth="yes"/>
			<point x="624" y="565"/>
			<point x="483" y="698"/>
			<point x="244" y="698" type="curve" smooth="yes"/>
			<point x="-4" y="698"/>
			<point x="-117" y="577"/>
			<point x="-184" y="377" type="curve" smooth="yes"/>
			<point x="-192" y="352"/>
			<point x="-206" y="331"/>
			<point x="-233" y="331" type="curve" smooth="yes"/>
			<point x="-284" y="331"/>
			<point x="-310" y="426"/>
			<point x="-410" y="426" type="curve" smooth="yes"/>
			<point x="-517" y="426"/>
			<point x="-576" y="346"/>
			<point x="-601" y="161" type="curve"/>
			<point x="-460" y="161" type="line"/>
			<point x="-452" y="220"/>
			<point x="-441" y="257"/>
			<point x="-399" y="257" type="curve" smooth="yes"/>
			<point x="-344" y="257"/>
			<point x="-320" y="158"/>
			<point x="-213" y="158" type="curve" smooth="yes"/>
			<point x="-128" y="158"/>
			<point x="-80" y="224"/>
			<point x="-56" y="309" type="curve" smooth="yes"/>
			<point x="-8" y="481"/>
			<point x="74" y="562"/>
			<point x="235" y="562" type="curve" smooth="yes"/>
			<point x="407" y="562"/>
			<point x="468" y="475"/>
			<point x="441" y="288" type="curve" smooth="yes"/>
			<point x="440" y="281" type="line" smooth="yes"/>
			<point x="418" y="128"/>
			<point x="395" y="106"/>
			<point x="374" y="106" type="curve" smooth="yes"/>
			<point x="353" y="106"/>
			<point x="345" y="118"/>
			<point x="353" y="176" type="curve" smooth="yes"/>
			<point x="395" y="480" type="line"/>
			<point x="254" y="480" type="line"/>
			<point x="243" y="401" type="line"/>
			<point x="232" y="453"/>
			<point x="211" y="491"/>
			<point x="149" y="491" type="curve" smooth="yes"/>
			<point x="66" y="491"/>
			<point x="14" y="418"/>
			<point x="-8" y="264" type="curve"/>
			<point x="-25" y="143"/>
			<point x="2" y="60"/>
			<point x="89" y="60" type="curve" smooth="yes"/>
			<point x="154" y="60"/>
			<point x="191" y="111"/>
			<point x="216" y="167" type="curve"/>
			<point x="212" y="138" type="line" smooth="yes"/>
			<point x="199" y="35"/>
			<point x="262" y="-20"/>
		</contour>
		<contour>
			<point x="168" y="176" type="curve" smooth="yes"/>
			<point x="138" y="176"/>
			<point x="124" y="202"/>
			<point x="135" y="276" type="curve" smooth="yes"/>
			<point x="145" y="349"/>
			<point x="166" y="375"/>
			<point x="196" y="375" type="curve" smooth="yes"/>
			<point x="228" y="375"/>
			<point x="240" y="340"/>
			<point x="230" y="272" type="curve" smooth="yes"/>
			<point x="219" y="193"/>
			<point x="196" y="176"/>
		</contour>
	</outline>
</glyph>
<glyph name="asciitilde_equal.cLig.x" format="2">
	<advance width="600"/>
	<outline>
		<contour>
			<point x="-317" y="290" type="line"/>
			<point x="-270" y="342"/>
			<point x="-203" y="368"/>
			<point x="-139" y="368" type="curve" smooth="yes"/>
			<point x="-34" y="368"/>
			<point x="24" y="292"/>
			<point x="168" y="292" type="curve" smooth="yes"/>
			<point x="240" y="292"/>
			<point x="299" y="321"/>
			<point x="334" y="363" type="curve"/>
			<point x="357" y="532" type="line"/>
			<point x="297" y="468"/>
			<point x="252" y="453"/>
			<point x="182" y="454" type="curve" smooth="yes"/>
			<point x="86" y="455"/>
			<point x="6" y="530"/>
			<point x="-117" y="530" type="curve" smooth="yes"/>
			<point x="-185" y="530"/>
			<point x="-258" y="502"/>
			<point x="-293" y="460" type="curve"/>
		</contour>
		<contour>
			<point x="-346" y="82" type="line"/>
			<point x="294" y="82" type="line"/>
			<point x="317" y="242" type="line"/>
			<point x="-323" y="242" type="line"/>
		</contour>
	</outline>
</glyph>
<glyph name="asterisk_asterisk.cLig" format="2">
	<advance width="600"/>
	<outline>
		<contour>
			<point x="-463" y="117" type="line"/>
			<point x="-311" y="251" type="line"/>
			<point x="-387" y="69" type="line"/>
			<point x="-204" y="69" type="line"/>
			<point x="-230" y="250" type="line"/>
			<point x="-118" y="117" type="line"/>
			<point x="-3" y="274" type="line"/>
			<point x="-178" y="321" type="line"/>
			<point x="11" y="368" type="line"/>
			<point x="-57" y="526" type="line"/>
			<point x="-211" y="390" type="line"/>
			<point x="-133" y="575" type="line"/>
			<point x="-316" y="575" type="line"/>
			<point x="-291" y="392" type="line"/>
			<point x="-406" y="528" type="line"/>
			<point x="-519" y="370" type="line"/>
			<point x="-341" y="322" type="line"/>
			<point x="-531" y="275" type="line"/>
		</contour>
		<contour>
			<point x="77" y="116" type="line"/>
			<point x="229" y="250" type="line"/>
			<point x="153" y="68" type="line"/>
			<point x="336" y="68" type="line"/>
			<point x="310" y="249" type="line"/>
			<point x="422" y="116" type="line"/>
			<point x="537" y="273" type="line"/>
			<point x="362" y="320" type="line"/>
			<point x="551" y="367" type="line"/>
			<point x="483" y="525" type="line"/>
			<point x="329" y="389" type="line"/>
			<point x="407" y="574" type="line"/>
			<point x="224" y="574" type="line"/>
			<point x="249" y="391" type="line"/>
			<point x="134" y="527" type="line"/>
			<point x="21" y="369" type="line"/>
			<point x="199" y="321" type="line"/>
			<point x="9" y="274" type="line"/>
		</contour>
	</outline>
</glyph>
<glyph name="asterisk_asterisk_asterisk.cLig" format="2">
	<advance width="600"/>
	<outline>
		<contour>
			<point x="-1043" y="48" type="line"/>
			<point x="-891" y="182" type="line"/>
			<point x="-967" y="0" type="line"/>
			<point x="-784" y="0" type="line"/>
			<point x="-810" y="181" type="line"/>
			<point x="-698" y="48" type="line"/>
			<point x="-583" y="205" type="line"/>
			<point x="-758" y="252" type="line"/>
			<point x="-569" y="299" type="line"/>
			<point x="-637" y="457" type="line"/>
			<point x="-791" y="321" type="line"/>
			<point x="-713" y="506" type="line"/>
			<point x="-896" y="506" type="line"/>
			<point x="-871" y="323" type="line"/>
			<point x="-986" y="459" type="line"/>
			<point x="-1099" y="301" type="line"/>
			<point x="-921" y="253" type="line"/>
			<point x="-1111" y="206" type="line"/>
		</contour>
		<contour>
			<point x="-493" y="226" type="line"/>
			<point x="-341" y="360" type="line"/>
			<point x="-417" y="178" type="line"/>
			<point x="-234" y="178" type="line"/>
			<point x="-260" y="359" type="line"/>
			<point x="-148" y="226" type="line"/>
			<point x="-33" y="383" type="line"/>
			<point x="-208" y="430" type="line"/>
			<point x="-19" y="477" type="line"/>
			<point x="-87" y="635" type="line"/>
			<point x="-241" y="499" type="line"/>
			<point x="-163" y="684" type="line"/>
			<point x="-346" y="684" type="line"/>
			<point x="-321" y="501" type="line"/>
			<point x="-436" y="637" type="line"/>
			<point x="-549" y="479" type="line"/>
			<point x="-371" y="431" type="line"/>
			<point x="-561" y="384" type="line"/>
		</contour>
		<contour>
			<point x="57" y="47" type="line"/>
			<point x="209" y="181" type="line"/>
			<point x="133" y="-1" type="line"/>
			<point x="316" y="-1" type="line"/>
			<point x="290" y="180" type="line"/>
			<point x="402" y="47" type="line"/>
			<point x="517" y="204" type="line"/>
			<point x="342" y="251" type="line"/>
			<point x="531" y="298" type="line"/>
			<point x="463" y="456" type="line"/>
			<point x="309" y="320" type="line"/>
			<point x="387" y="505" type="line"/>
			<point x="204" y="505" type="line"/>
			<point x="229" y="322" type="line"/>
			<point x="114" y="458" type="line"/>
			<point x="1" y="300" type="line"/>
			<point x="179" y="252" type="line"/>
			<point x="-11" y="205" type="line"/>
		</contour>
	</outline>
</glyph>
<glyph name="asterisk_slash.cLig" format="2">
	<advance width="600"/>
	<outline>
		<contour>
			<point x="-443" y="117" type="line"/>
			<point x="-291" y="251" type="line"/>
			<point x="-367" y="69" type="line"/>
			<point x="-184" y="69" type="line"/>
			<point x="-210" y="250" type="line"/>
			<point x="-98" y="117" type="line"/>
			<point x="17" y="274" type="line"/>
			<point x="-158" y="321" type="line"/>
			<point x="31" y="368" type="line"/>
			<point x="-37" y="526" type="line"/>
			<point x="-191" y="390" type="line"/>
			<point x="-113" y="575" type="line"/>
			<point x="-296" y="575" type="line"/>
			<point x="-271" y="392" type="line"/>
			<point x="-386" y="528" type="line"/>
			<point x="-499" y="370" type="line"/>
			<point x="-321" y="322" type="line"/>
			<point x="-511" y="275" type="line"/>
		</contour>
		<contour>
			<point x="379" y="792" type="line"/>
			<point x="-72" y="-163" type="line"/>
			<point x="123" y="-163" type="line"/>
			<point x="575" y="792" type="line"/>
		</contour>
	</outline>
</glyph>
<glyph name="backslash_slash.cLig" format="2">
	<advance width="600"/>
	<outline>
		<contour>
			<point x="-188" y="-163" type="line"/>
			<point x="79" y="-163" type="line"/>
			<point x="531" y="792" type="line"/>
			<point x="335" y="792" type="line"/>
			<point x="-38" y="3" type="line"/>
			<point x="-197" y="792" type="line"/>
			<point x="-381" y="792" type="line"/>
		</contour>
	</outline>
</glyph>
<glyph name="bar_bar_equal.init" format="2">
	<advance width="600"/>
	<outline>
		<contour>
			<point x="-340" y="684" type="line"/>
			<point x="-444" y="-55" type="line"/>
			<point x="-264" y="-55" type="line"/>
			<point x="-160" y="684" type="line"/>
		</contour>
		<contour>
			<point x="40" y="684" type="line"/>
			<point x="-64" y="-55" type="line"/>
			<point x="116" y="-55" type="line"/>
			<point x="140" y="118" type="line"/>
			<point x="580" y="118" type="line"/>
			<point x="603" y="278" type="line"/>
			<point x="163" y="278" type="line"/>
			<point x="173" y="351" type="line"/>
			<point x="613" y="351" type="line"/>
			<point x="636" y="511" type="line"/>
			<point x="196" y="511" type="line"/>
			<point x="220" y="684" type="line"/>
		</contour>
	</outline>
</glyph>
<glyph name="bar_braceright.cLig" format="2">
	<advance width="600"/>
	<outline>
		<contour>
			<point x="297" y="792" type="curve" smooth="yes"/>
			<point x="-16" y="792" type="line"/>
			<point x="-34" y="655" type="line"/>
			<point x="193" y="655" type="line" smooth="yes"/>
			<point x="230" y="655"/>
			<point x="249" y="643"/>
			<point x="249" y="618" type="curve" smooth="yes"/>
			<point x="249" y="558"/>
			<point x="135" y="526"/>
			<point x="135" y="424" type="curve" smooth="yes"/>
			<point x="136" y="379"/>
			<point x="172" y="336"/>
			<point x="245" y="317" type="curve"/>
			<point x="175" y="307"/>
			<point x="99" y="268"/>
			<point x="99" y="190" type="curve" smooth="yes"/>
			<point x="99" y="121"/>
			<point x="171" y="69"/>
			<point x="171" y="20" type="curve" smooth="yes"/>
			<point x="170" y="-12"/>
			<point x="150" y="-26"/>
			<point x="106" y="-26" type="curve" smooth="yes"/>
			<point x="-130" y="-26" type="line"/>
			<point x="-150" y="-163" type="line"/>
			<point x="193" y="-163" type="line" smooth="yes"/>
			<point x="288" y="-163"/>
			<point x="362" y="-99"/>
			<point x="362" y="-13" type="curve" smooth="yes"/>
			<point x="362" y="72"/>
			<point x="292" y="133"/>
			<point x="292" y="181" type="curve" smooth="yes"/>
			<point x="292" y="211"/>
			<point x="316" y="237"/>
			<point x="341" y="237" type="curve" smooth="yes"/>
			<point x="457" y="237" type="line"/>
			<point x="478" y="396" type="line"/>
			<point x="384" y="396" type="line" smooth="yes"/>
			<point x="350" y="396"/>
			<point x="338" y="419"/>
			<point x="336" y="440" type="curve" smooth="yes"/>
			<point x="336" y="512"/>
			<point x="456" y="542"/>
			<point x="456" y="661" type="curve" smooth="yes"/>
			<point x="456" y="738"/>
			<point x="396" y="792"/>
		</contour>
		<contour>
			<point x="-278" y="-163" type="line"/>
			<point x="-144" y="792" type="line"/>
			<point x="-325" y="792" type="line"/>
			<point x="-459" y="-163" type="line"/>
		</contour>
	</outline>
</glyph>
<glyph name="bar_equal.init" format="2">
	<advance width="600"/>
	<outline>
		<contour>
			<point x="152" y="684" type="line"/>
			<point x="48" y="-55" type="line"/>
			<point x="228" y="-55" type="line"/>
			<point x="252" y="118" type="line"/>
			<point x="579" y="118" type="line"/>
			<point x="602" y="278" type="line"/>
			<point x="275" y="278" type="line"/>
			<point x="285" y="351" type="line"/>
			<point x="612" y="351" type="line"/>
			<point x="635" y="511" type="line"/>
			<point x="308" y="511" type="line"/>
			<point x="332" y="684" type="line"/>
		</contour>
	</outline>
</glyph>
<glyph name="bar_hyphen.fina" format="2">
	<advance width="600"/>
	<outline>
		<contour>
			<point x="-5" y="228" type="line"/>
			<point x="315" y="228" type="line"/>
			<point x="275" y="-55" type="line"/>
			<point x="455" y="-55" type="line"/>
			<point x="559" y="684" type="line"/>
			<point x="379" y="684" type="line"/>
			<point x="339" y="400" type="line"/>
			<point x="19" y="400" type="line"/>
		</contour>
	</outline>
</glyph>
<glyph name="bar_hyphen.init" format="2">
	<advance width="600"/>
	<outline>
		<contour>
			<point x="55" y="-55" type="line"/>
			<point x="235" y="-55" type="line"/>
			<point x="275" y="228" type="line"/>
			<point x="595" y="228" type="line"/>
			<point x="619" y="400" type="line"/>
			<point x="299" y="400" type="line"/>
			<point x="339" y="684" type="line"/>
			<point x="159" y="684" type="line"/>
		</contour>
	</outline>
</glyph>
<glyph name="bar_hyphen.med" format="2">
	<advance width="600"/>
	<outline>
		<contour>
			<point x="166" y="-55" type="line"/>
			<point x="346" y="-55" type="line"/>
			<point x="386" y="228" type="line"/>
			<point x="595" y="228" type="line"/>
			<point x="619" y="400" type="line"/>
			<point x="410" y="400" type="line"/>
			<point x="450" y="684" type="line"/>
			<point x="270" y="684" type="line"/>
			<point x="230" y="400" type="line"/>
			<point x="19" y="400" type="line"/>
			<point x="-5" y="228" type="line"/>
			<point x="206" y="228" type="line"/>
		</contour>
	</outline>
</glyph>
<glyph name="bar_underscore.med" format="2">
	<advance width="600"/>
	<outline>
		<contour>
			<point x="-45" y="-54" type="line"/>
			<point x="-64" y="-193" type="line"/>
			<point x="536" y="-193" type="line"/>
			<point x="555" y="-54" type="line"/>
			<point x="346" y="-54" type="line"/>
			<point x="465" y="792" type="line"/>
			<point x="284" y="792" type="line"/>
			<point x="165" y="-54" type="line"/>
		</contour>
	</outline>
</glyph>
<glyph name="braceleft_bar.cLig" format="2">
	<advance width="600"/>
	<outline>
		<contour>
			<point x="-282" y="-163" type="curve" smooth="yes"/>
			<point x="30" y="-163" type="line"/>
			<point x="49" y="-26" type="line"/>
			<point x="-178" y="-26" type="line" smooth="yes"/>
			<point x="-215" y="-26"/>
			<point x="-234" y="-14"/>
			<point x="-234" y="11" type="curve" smooth="yes"/>
			<point x="-234" y="71"/>
			<point x="-121" y="103"/>
			<point x="-121" y="205" type="curve" smooth="yes"/>
			<point x="-121" y="249"/>
			<point x="-158" y="294"/>
			<point x="-232" y="312" type="curve"/>
			<point x="-162" y="321"/>
			<point x="-84" y="360"/>
			<point x="-84" y="439" type="curve" smooth="yes"/>
			<point x="-84" y="507"/>
			<point x="-156" y="560"/>
			<point x="-156" y="609" type="curve" smooth="yes"/>
			<point x="-156" y="641"/>
			<point x="-135" y="655"/>
			<point x="-92" y="655" type="curve" smooth="yes"/>
			<point x="145" y="655" type="line"/>
			<point x="165" y="792" type="line"/>
			<point x="-178" y="792" type="line" smooth="yes"/>
			<point x="-273" y="792"/>
			<point x="-347" y="729"/>
			<point x="-347" y="642" type="curve" smooth="yes"/>
			<point x="-347" y="557"/>
			<point x="-278" y="496"/>
			<point x="-278" y="448" type="curve" smooth="yes"/>
			<point x="-278" y="418"/>
			<point x="-301" y="392"/>
			<point x="-326" y="392" type="curve" smooth="yes"/>
			<point x="-442" y="392" type="line"/>
			<point x="-463" y="233" type="line"/>
			<point x="-370" y="233" type="line" smooth="yes"/>
			<point x="-335" y="233"/>
			<point x="-322" y="210"/>
			<point x="-322" y="189" type="curve" smooth="yes"/>
			<point x="-322" y="117"/>
			<point x="-441" y="86"/>
			<point x="-441" y="-32" type="curve" smooth="yes"/>
			<point x="-441" y="-108"/>
			<point x="-381" y="-163"/>
		</contour>
		<contour>
			<point x="293" y="792" type="line"/>
			<point x="159" y="-163" type="line"/>
			<point x="340" y="-163" type="line"/>
			<point x="474" y="792" type="line"/>
		</contour>
	</outline>
</glyph>
<glyph name="braceleft_braceleft_numbersign.cLig" format="2">
	<advance width="600"/>
	<outline>
		<contour>
			<point x="-689" y="-163" type="line"/>
			<point x="-670" y="-26" type="line"/>
			<point x="-793" y="-26" type="line" smooth="yes"/>
			<point x="-830" y="-26"/>
			<point x="-849" y="-14"/>
			<point x="-849" y="11" type="curve" smooth="yes"/>
			<point x="-849" y="71"/>
			<point x="-736" y="103"/>
			<point x="-736" y="205" type="curve" smooth="yes"/>
			<point x="-736" y="249"/>
			<point x="-773" y="294"/>
			<point x="-847" y="312" type="curve"/>
			<point x="-777" y="321"/>
			<point x="-699" y="360"/>
			<point x="-699" y="439" type="curve" smooth="yes"/>
			<point x="-699" y="507"/>
			<point x="-771" y="560"/>
			<point x="-771" y="609" type="curve" smooth="yes"/>
			<point x="-771" y="641"/>
			<point x="-750" y="655"/>
			<point x="-707" y="655" type="curve" smooth="yes"/>
			<point x="-370" y="655" type="line"/>
			<point x="-437" y="644"/>
			<point x="-475" y="619"/>
			<point x="-475" y="569" type="curve"/>
			<point x="-475" y="517"/>
			<point x="-403" y="479"/>
			<point x="-403" y="436" type="curve" smooth="yes"/>
			<point x="-403" y="408"/>
			<point x="-426" y="392"/>
			<point x="-471" y="392" type="curve" smooth="yes"/>
			<point x="-594" y="392" type="line"/>
			<point x="-615" y="233" type="line"/>
			<point x="-515" y="233" type="line" smooth="yes"/>
			<point x="-463" y="233"/>
			<point x="-447" y="220"/>
			<point x="-447" y="197" type="curve" smooth="yes"/>
			<point x="-447" y="120"/>
			<point x="-568" y="86"/>
			<point x="-568" y="-32" type="curve" smooth="yes"/>
			<point x="-568" y="-108"/>
			<point x="-508" y="-163"/>
			<point x="-409" y="-163" type="curve" smooth="yes"/>
			<point x="-185" y="-163" type="line"/>
			<point x="-166" y="-26" type="line"/>
			<point x="-305" y="-26" type="line" smooth="yes"/>
			<point x="-342" y="-26"/>
			<point x="-361" y="-14"/>
			<point x="-361" y="11" type="curve" smooth="yes"/>
			<point x="-361" y="67"/>
			<point x="-246" y="110"/>
			<point x="-246" y="210" type="curve" smooth="yes"/>
			<point x="-246" y="254"/>
			<point x="-283" y="294"/>
			<point x="-357" y="312" type="curve"/>
			<point x="-286" y="320"/>
			<point x="-209" y="349"/>
			<point x="-209" y="433" type="curve" smooth="yes"/>
			<point x="-209" y="499"/>
			<point x="-281" y="546"/>
			<point x="-281" y="602" type="curve" smooth="yes"/>
			<point x="-281" y="629"/>
			<point x="-260" y="655"/>
			<point x="-207" y="655" type="curve" smooth="yes"/>
			<point x="-71" y="655" type="line"/>
			<point x="-51" y="792" type="line"/>
			<point x="-793" y="792" type="line" smooth="yes"/>
			<point x="-888" y="792"/>
			<point x="-962" y="729"/>
			<point x="-962" y="642" type="curve" smooth="yes"/>
			<point x="-962" y="557"/>
			<point x="-893" y="496"/>
			<point x="-893" y="448" type="curve" smooth="yes"/>
			<point x="-893" y="418"/>
			<point x="-916" y="392"/>
			<point x="-941" y="392" type="curve" smooth="yes"/>
			<point x="-1064" y="392" type="line"/>
			<point x="-1085" y="233" type="line"/>
			<point x="-985" y="233" type="line" smooth="yes"/>
			<point x="-950" y="233"/>
			<point x="-937" y="210"/>
			<point x="-937" y="189" type="curve" smooth="yes"/>
			<point x="-937" y="117"/>
			<point x="-1056" y="86"/>
			<point x="-1056" y="-32" type="curve" smooth="yes"/>
			<point x="-1056" y="-108"/>
			<point x="-996" y="-163"/>
			<point x="-897" y="-163" type="curve" smooth="yes"/>
		</contour>
		<contour>
			<point x="-108" y="289" type="line"/>
			<point x="-128" y="148" type="line"/>
			<point x="-33" y="148" type="line"/>
			<point x="-68" y="0" type="line"/>
			<point x="75" y="0" type="line"/>
			<point x="110" y="148" type="line"/>
			<point x="200" y="148" type="line"/>
			<point x="165" y="0" type="line"/>
			<point x="307" y="0" type="line"/>
			<point x="342" y="148" type="line"/>
			<point x="438" y="148" type="line"/>
			<point x="458" y="289" type="line"/>
			<point x="375" y="289" type="line"/>
			<point x="401" y="399" type="line"/>
			<point x="496" y="399" type="line"/>
			<point x="516" y="540" type="line"/>
			<point x="434" y="540" type="line"/>
			<point x="468" y="684" type="line"/>
			<point x="326" y="684" type="line"/>
			<point x="292" y="540" type="line"/>
			<point x="201" y="540" type="line"/>
			<point x="235" y="684" type="line"/>
			<point x="93" y="684" type="line"/>
			<point x="59" y="540" type="line"/>
			<point x="-73" y="540" type="line"/>
			<point x="-93" y="399" type="line"/>
			<point x="26" y="399" type="line"/>
			<point x="0" y="289" type="line"/>
		</contour>
		<contour>
			<point x="143" y="289" type="line"/>
			<point x="168" y="399" type="line"/>
			<point x="259" y="399" type="line"/>
			<point x="233" y="289" type="line"/>
		</contour>
	</outline>
</glyph>
<glyph name="braceleft_hyphen.rem" format="2">
	<advance width="600"/>
	<outline>
		<contour>
			<point x="90" y="792" type="line"/>
			<point x="-149" y="792" type="line" smooth="yes"/>
			<point x="-242" y="792"/>
			<point x="-313" y="726"/>
			<point x="-313" y="640" type="curve" smooth="yes"/>
			<point x="-313" y="557"/>
			<point x="-247" y="507"/>
			<point x="-247" y="454" type="curve" smooth="yes"/>
			<point x="-247" y="418"/>
			<point x="-270" y="392"/>
			<point x="-342" y="392" type="curve" smooth="yes"/>
			<point x="-432" y="392" type="line"/>
			<point x="-454" y="233" type="line"/>
			<point x="-391" y="233" type="line" smooth="yes"/>
			<point x="-311" y="233"/>
			<point x="-292" y="199"/>
			<point x="-292" y="171" type="curve" smooth="yes"/>
			<point x="-292" y="98"/>
			<point x="-408" y="76"/>
			<point x="-408" y="-32" type="curve" smooth="yes"/>
			<point x="-408" y="-106"/>
			<point x="-351" y="-163"/>
			<point x="-253" y="-163" type="curve" smooth="yes"/>
			<point x="-45" y="-163" type="line"/>
			<point x="-25" y="-26" type="line"/>
			<point x="-149" y="-26" type="line" smooth="yes"/>
			<point x="-186" y="-26"/>
			<point x="-204" y="-14"/>
			<point x="-204" y="11" type="curve" smooth="yes"/>
			<point x="-204" y="61"/>
			<point x="-93" y="83"/>
			<point x="-93" y="158" type="curve" smooth="yes"/>
			<point x="-93" y="200"/>
			<point x="-133" y="225"/>
			<point x="-191" y="233" type="curve"/>
			<point x="429" y="233" type="line"/>
			<point x="454" y="397" type="line"/>
			<point x="-166" y="397" type="line"/>
			<point x="-107" y="406"/>
			<point x="-53" y="429"/>
			<point x="-53" y="479" type="curve" smooth="yes"/>
			<point x="-53" y="530"/>
			<point x="-127" y="564"/>
			<point x="-127" y="609" type="curve" smooth="yes"/>
			<point x="-127" y="641"/>
			<point x="-106" y="655"/>
			<point x="-63" y="655" type="curve" smooth="yes"/>
			<point x="71" y="655" type="line"/>
		</contour>
	</outline>
</glyph>
<glyph name="braceright_braceright.cLig" format="2">
	<advance width="600"/>
	<outline>
		<contour>
			<point x="81" y="792" type="line"/>
			<point x="62" y="655" type="line"/>
			<point x="185" y="655" type="line" smooth="yes"/>
			<point x="222" y="655"/>
			<point x="241" y="643"/>
			<point x="241" y="618" type="curve" smooth="yes"/>
			<point x="241" y="558"/>
			<point x="128" y="526"/>
			<point x="128" y="424" type="curve" smooth="yes"/>
			<point x="128" y="380"/>
			<point x="165" y="335"/>
			<point x="239" y="317" type="curve"/>
			<point x="169" y="308"/>
			<point x="91" y="269"/>
			<point x="91" y="190" type="curve" smooth="yes"/>
			<point x="91" y="122"/>
			<point x="163" y="69"/>
			<point x="163" y="20" type="curve" smooth="yes"/>
			<point x="163" y="-12"/>
			<point x="142" y="-26"/>
			<point x="99" y="-26" type="curve" smooth="yes"/>
			<point x="-238" y="-26" type="line"/>
			<point x="-171" y="-15"/>
			<point x="-133" y="10"/>
			<point x="-133" y="60" type="curve"/>
			<point x="-133" y="112"/>
			<point x="-205" y="150"/>
			<point x="-205" y="193" type="curve" smooth="yes"/>
			<point x="-205" y="221"/>
			<point x="-182" y="237"/>
			<point x="-137" y="237" type="curve" smooth="yes"/>
			<point x="-14" y="237" type="line"/>
			<point x="7" y="396" type="line"/>
			<point x="-93" y="396" type="line" smooth="yes"/>
			<point x="-145" y="396"/>
			<point x="-161" y="409"/>
			<point x="-161" y="432" type="curve" smooth="yes"/>
			<point x="-161" y="509"/>
			<point x="-40" y="543"/>
			<point x="-40" y="661" type="curve" smooth="yes"/>
			<point x="-40" y="737"/>
			<point x="-100" y="792"/>
			<point x="-199" y="792" type="curve" smooth="yes"/>
			<point x="-423" y="792" type="line"/>
			<point x="-442" y="655" type="line"/>
			<point x="-303" y="655" type="line" smooth="yes"/>
			<point x="-266" y="655"/>
			<point x="-247" y="643"/>
			<point x="-247" y="618" type="curve" smooth="yes"/>
			<point x="-247" y="562"/>
			<point x="-362" y="519"/>
			<point x="-362" y="419" type="curve" smooth="yes"/>
			<point x="-362" y="375"/>
			<point x="-325" y="335"/>
			<point x="-251" y="317" type="curve"/>
			<point x="-322" y="309"/>
			<point x="-399" y="280"/>
			<point x="-399" y="196" type="curve" smooth="yes"/>
			<point x="-399" y="130"/>
			<point x="-327" y="83"/>
			<point x="-327" y="27" type="curve" smooth="yes"/>
			<point x="-327" y="0"/>
			<point x="-348" y="-26"/>
			<point x="-401" y="-26" type="curve" smooth="yes"/>
			<point x="-537" y="-26" type="line"/>
			<point x="-557" y="-163" type="line"/>
			<point x="185" y="-163" type="line" smooth="yes"/>
			<point x="280" y="-163"/>
			<point x="354" y="-100"/>
			<point x="354" y="-13" type="curve" smooth="yes"/>
			<point x="354" y="72"/>
			<point x="285" y="133"/>
			<point x="285" y="181" type="curve" smooth="yes"/>
			<point x="285" y="211"/>
			<point x="308" y="237"/>
			<point x="333" y="237" type="curve" smooth="yes"/>
			<point x="456" y="237" type="line"/>
			<point x="477" y="396" type="line"/>
			<point x="377" y="396" type="line" smooth="yes"/>
			<point x="342" y="396"/>
			<point x="329" y="419"/>
			<point x="329" y="440" type="curve" smooth="yes"/>
			<point x="329" y="512"/>
			<point x="448" y="543"/>
			<point x="448" y="661" type="curve" smooth="yes"/>
			<point x="448" y="737"/>
			<point x="388" y="792"/>
			<point x="289" y="792" type="curve" smooth="yes"/>
		</contour>
	</outline>
</glyph>
<glyph name="bracketleft_bar.cLig" format="2">
	<advance width="600"/>
	<outline>
		<contour>
			<point x="62" y="-26" type="line"/>
			<point x="-253" y="-26" type="line"/>
			<point x="-157" y="655" type="line"/>
			<point x="158" y="655" type="line"/>
			<point x="177" y="792" type="line"/>
			<point x="-319" y="792" type="line"/>
			<point x="-453" y="-163" type="line"/>
			<point x="43" y="-163" type="line"/>
		</contour>
		<contour>
			<point x="286" y="792" type="line"/>
			<point x="152" y="-163" type="line"/>
			<point x="333" y="-163" type="line"/>
			<point x="467" y="792" type="line"/>
		</contour>
	</outline>
</glyph>
<glyph name="bracketleft_bracketleft_numbersign.cLig" format="2">
	<advance width="600"/>
	<outline>
		<contour>
			<point x="-116" y="289" type="line"/>
			<point x="-136" y="148" type="line"/>
			<point x="-41" y="148" type="line"/>
			<point x="-76" y="0" type="line"/>
			<point x="67" y="0" type="line"/>
			<point x="102" y="148" type="line"/>
			<point x="192" y="148" type="line"/>
			<point x="157" y="0" type="line"/>
			<point x="299" y="0" type="line"/>
			<point x="334" y="148" type="line"/>
			<point x="430" y="148" type="line"/>
			<point x="450" y="289" type="line"/>
			<point x="367" y="289" type="line"/>
			<point x="393" y="399" type="line"/>
			<point x="488" y="399" type="line"/>
			<point x="508" y="540" type="line"/>
			<point x="426" y="540" type="line"/>
			<point x="460" y="684" type="line"/>
			<point x="318" y="684" type="line"/>
			<point x="284" y="540" type="line"/>
			<point x="193" y="540" type="line"/>
			<point x="227" y="684" type="line"/>
			<point x="85" y="684" type="line"/>
			<point x="51" y="540" type="line"/>
			<point x="-81" y="540" type="line"/>
			<point x="-101" y="399" type="line"/>
			<point x="18" y="399" type="line"/>
			<point x="-8" y="289" type="line"/>
		</contour>
		<contour>
			<point x="135" y="289" type="line"/>
			<point x="160" y="399" type="line"/>
			<point x="251" y="399" type="line"/>
			<point x="225" y="289" type="line"/>
		</contour>
		<contour>
			<point x="-207" y="-26" type="line"/>
			<point x="-398" y="-26" type="line"/>
			<point x="-302" y="655" type="line"/>
			<point x="-111" y="655" type="line"/>
			<point x="-92" y="792" type="line"/>
			<point x="-463" y="792" type="line"/>
			<point x="-598" y="-163" type="line"/>
			<point x="-227" y="-163" type="line"/>
		</contour>
		<contour>
			<point x="-652" y="-26" type="line"/>
			<point x="-892" y="-26" type="line"/>
			<point x="-796" y="655" type="line"/>
			<point x="-556" y="655" type="line"/>
			<point x="-537" y="792" type="line"/>
			<point x="-957" y="792" type="line"/>
			<point x="-1092" y="-163" type="line"/>
			<point x="-672" y="-163" type="line"/>
		</contour>
	</outline>
</glyph>
<glyph name="breve.cap" format="2">
	<advance width="600"/>
	<outline>
		<contour>
			<point x="369" y="733" type="curve" smooth="yes"/>
			<point x="498" y="733"/>
			<point x="554" y="776"/>
			<point x="570" y="884" type="curve"/>
			<point x="439" y="884" type="line"/>
			<point x="432" y="836"/>
			<point x="419" y="822"/>
			<point x="381" y="822" type="curve" smooth="yes"/>
			<point x="341" y="822"/>
			<point x="331" y="843"/>
			<point x="336" y="884" type="curve"/>
			<point x="205" y="884" type="line"/>
			<point x="188" y="781"/>
			<point x="248" y="733"/>
		</contour>
	</outline>
	<anchor name="_top" x="361" y="684"/>
</glyph>
<glyph name="caron.cap" format="2">
	<advance width="600"/>
	<outline>
		<contour>
			<point x="606" y="884" type="line"/>
			<point x="439" y="884" type="line"/>
			<point x="372" y="807" type="line"/>
			<point x="326" y="884" type="line"/>
			<point x="167" y="884" type="line"/>
			<point x="261" y="741" type="line"/>
			<point x="471" y="741" type="line"/>
		</contour>
	</outline>
	<anchor name="_top" x="358" y="684"/>
</glyph>
<glyph name="caronSlovak" format="2">
	<advance width="600"/>
	<outline>
		<contour>
			<point x="272" y="558" type="line"/>
			<point x="367" y="558" type="line"/>
			<point x="480" y="750" type="line"/>
			<point x="299" y="750" type="line"/>
		</contour>
	</outline>
	<anchor name="_caron" x="299" y="750"/>
	<guideline x="328" y="780" angle="82"/>
	<guideline x="1213" y="684" angle="82"/>
	<guideline x="290" y="684" angle="82"/>
</glyph>
<glyph name="circumflex.cap" format="2">
	<advance width="600"/>
	<outline>
		<contour>
			<point x="147" y="741" type="line"/>
			<point x="314" y="741" type="line"/>
			<point x="382" y="818" type="line"/>
			<point x="428" y="741" type="line"/>
			<point x="586" y="741" type="line"/>
			<point x="492" y="884" type="line"/>
			<point x="282" y="884" type="line"/>
		</contour>
	</outline>
	<anchor name="_top" x="363" y="684"/>
</glyph>
<glyph name="colon_colon.cLig" format="2">
	<advance width="600"/>
	<outline>
		<contour>
			<point x="-248" y="-12" type="curve" smooth="yes"/>
			<point x="-168" y="-12"/>
			<point x="-125" y="19"/>
			<point x="-114" y="95" type="curve" smooth="yes"/>
			<point x="-101" y="181"/>
			<point x="-145" y="215"/>
			<point x="-228" y="215" type="curve" smooth="yes"/>
			<point x="-310" y="215"/>
			<point x="-353" y="184"/>
			<point x="-364" y="109" type="curve" smooth="yes"/>
			<point x="-377" y="22"/>
			<point x="-334" y="-12"/>
		</contour>
		<contour>
			<point x="-203" y="308" type="curve" smooth="yes"/>
			<point x="-123" y="308"/>
			<point x="-80" y="339"/>
			<point x="-69" y="415" type="curve" smooth="yes"/>
			<point x="-56" y="501"/>
			<point x="-100" y="535"/>
			<point x="-183" y="535" type="curve" smooth="yes"/>
			<point x="-265" y="535"/>
			<point x="-308" y="504"/>
			<point x="-319" y="429" type="curve" smooth="yes"/>
			<point x="-332" y="342"/>
			<point x="-289" y="308"/>
		</contour>
		<contour>
			<point x="186" y="-12" type="curve" smooth="yes"/>
			<point x="266" y="-12"/>
			<point x="309" y="19"/>
			<point x="320" y="95" type="curve" smooth="yes"/>
			<point x="333" y="181"/>
			<point x="289" y="215"/>
			<point x="206" y="215" type="curve" smooth="yes"/>
			<point x="124" y="215"/>
			<point x="81" y="184"/>
			<point x="70" y="109" type="curve" smooth="yes"/>
			<point x="57" y="22"/>
			<point x="100" y="-12"/>
		</contour>
		<contour>
			<point x="231" y="308" type="curve" smooth="yes"/>
			<point x="311" y="308"/>
			<point x="354" y="339"/>
			<point x="365" y="415" type="curve" smooth="yes"/>
			<point x="378" y="501"/>
			<point x="334" y="535"/>
			<point x="251" y="535" type="curve" smooth="yes"/>
			<point x="169" y="535"/>
			<point x="126" y="504"/>
			<point x="115" y="429" type="curve" smooth="yes"/>
			<point x="102" y="342"/>
			<point x="145" y="308"/>
		</contour>
	</outline>
</glyph>
<glyph name="colon_colon_colon.cLig" format="2">
	<advance width="600"/>
	<outline>
		<contour>
			<point x="-774" y="-12" type="curve" smooth="yes"/>
			<point x="-694" y="-12"/>
			<point x="-651" y="19"/>
			<point x="-640" y="95" type="curve" smooth="yes"/>
			<point x="-627" y="181"/>
			<point x="-671" y="215"/>
			<point x="-754" y="215" type="curve" smooth="yes"/>
			<point x="-836" y="215"/>
			<point x="-879" y="184"/>
			<point x="-890" y="109" type="curve" smooth="yes"/>
			<point x="-903" y="22"/>
			<point x="-860" y="-12"/>
		</contour>
		<contour>
			<point x="-729" y="308" type="curve" smooth="yes"/>
			<point x="-649" y="308"/>
			<point x="-606" y="339"/>
			<point x="-595" y="415" type="curve" smooth="yes"/>
			<point x="-582" y="501"/>
			<point x="-626" y="535"/>
			<point x="-709" y="535" type="curve" smooth="yes"/>
			<point x="-791" y="535"/>
			<point x="-834" y="504"/>
			<point x="-845" y="429" type="curve" smooth="yes"/>
			<point x="-858" y="342"/>
			<point x="-815" y="308"/>
		</contour>
		<contour>
			<point x="-331" y="-12" type="curve" smooth="yes"/>
			<point x="-251" y="-12"/>
			<point x="-208" y="19"/>
			<point x="-197" y="95" type="curve" smooth="yes"/>
			<point x="-184" y="181"/>
			<point x="-228" y="215"/>
			<point x="-311" y="215" type="curve" smooth="yes"/>
			<point x="-393" y="215"/>
			<point x="-436" y="184"/>
			<point x="-447" y="109" type="curve" smooth="yes"/>
			<point x="-460" y="22"/>
			<point x="-417" y="-12"/>
		</contour>
		<contour>
			<point x="-286" y="308" type="curve" smooth="yes"/>
			<point x="-206" y="308"/>
			<point x="-163" y="339"/>
			<point x="-152" y="415" type="curve" smooth="yes"/>
			<point x="-139" y="501"/>
			<point x="-183" y="535"/>
			<point x="-266" y="535" type="curve" smooth="yes"/>
			<point x="-348" y="535"/>
			<point x="-391" y="504"/>
			<point x="-402" y="429" type="curve" smooth="yes"/>
			<point x="-415" y="342"/>
			<point x="-372" y="308"/>
		</contour>
		<contour>
			<point x="112" y="-12" type="curve" smooth="yes"/>
			<point x="192" y="-12"/>
			<point x="235" y="19"/>
			<point x="246" y="95" type="curve" smooth="yes"/>
			<point x="259" y="181"/>
			<point x="215" y="215"/>
			<point x="132" y="215" type="curve" smooth="yes"/>
			<point x="50" y="215"/>
			<point x="7" y="184"/>
			<point x="-4" y="109" type="curve" smooth="yes"/>
			<point x="-17" y="22"/>
			<point x="26" y="-12"/>
		</contour>
		<contour>
			<point x="157" y="308" type="curve" smooth="yes"/>
			<point x="237" y="308"/>
			<point x="280" y="339"/>
			<point x="291" y="415" type="curve" smooth="yes"/>
			<point x="304" y="501"/>
			<point x="260" y="535"/>
			<point x="177" y="535" type="curve" smooth="yes"/>
			<point x="95" y="535"/>
			<point x="52" y="504"/>
			<point x="41" y="429" type="curve" smooth="yes"/>
			<point x="28" y="342"/>
			<point x="71" y="308"/>
		</contour>
	</outline>
</glyph>
<glyph name="colon_equal.med" format="2">
	<advance width="600"/>
	<outline>
		<contour>
			<point x="315" y="308" type="curve" smooth="yes"/>
			<point x="395" y="308"/>
			<point x="438" y="339"/>
			<point x="449" y="415" type="curve" smooth="yes"/>
			<point x="462" y="501"/>
			<point x="418" y="535"/>
			<point x="335" y="535" type="curve" smooth="yes"/>
			<point x="253" y="535"/>
			<point x="210" y="504"/>
			<point x="199" y="429" type="curve" smooth="yes"/>
			<point x="186" y="342"/>
			<point x="229" y="308"/>
		</contour>
		<contour>
			<point x="523" y="354" type="line"/>
			<point x="613" y="354" type="line"/>
			<point x="636" y="514" type="line"/>
			<point x="546" y="514" type="line"/>
		</contour>
		<contour>
			<point x="13" y="354" type="line"/>
			<point x="103" y="354" type="line"/>
			<point x="126" y="514" type="line"/>
			<point x="36" y="514" type="line"/>
		</contour>
		<contour>
			<point x="491" y="122" type="line"/>
			<point x="581" y="122" type="line"/>
			<point x="603" y="282" type="line"/>
			<point x="513" y="282" type="line"/>
		</contour>
		<contour>
			<point x="-19" y="122" type="line"/>
			<point x="71" y="122" type="line"/>
			<point x="93" y="282" type="line"/>
			<point x="3" y="282" type="line"/>
		</contour>
		<contour>
			<point x="273" y="9" type="curve" smooth="yes"/>
			<point x="353" y="9"/>
			<point x="396" y="40"/>
			<point x="407" y="116" type="curve" smooth="yes"/>
			<point x="420" y="202"/>
			<point x="376" y="236"/>
			<point x="293" y="236" type="curve" smooth="yes"/>
			<point x="211" y="236"/>
			<point x="168" y="205"/>
			<point x="157" y="130" type="curve" smooth="yes"/>
			<point x="144" y="43"/>
			<point x="187" y="9"/>
		</contour>
	</outline>
</glyph>
<glyph name="colon_greater.cLig.x" format="2">
	<advance width="600"/>
	<outline>
		<contour>
			<point x="61" y="645" type="line"/>
			<point x="34" y="467" type="line"/>
			<point x="326" y="322" type="line"/>
			<point x="-5" y="180" type="line"/>
			<point x="-33" y="-14" type="line"/>
			<point x="453" y="209" type="line"/>
			<point x="483" y="423" type="line"/>
		</contour>
		<contour>
			<point x="-280" y="351" type="curve" smooth="yes"/>
			<point x="-200" y="351"/>
			<point x="-157" y="382"/>
			<point x="-146" y="458" type="curve" smooth="yes"/>
			<point x="-133" y="544"/>
			<point x="-177" y="578"/>
			<point x="-260" y="578" type="curve" smooth="yes"/>
			<point x="-342" y="578"/>
			<point x="-385" y="547"/>
			<point x="-396" y="472" type="curve" smooth="yes"/>
			<point x="-409" y="385"/>
			<point x="-366" y="351"/>
		</contour>
		<contour>
			<point x="-325" y="31" type="curve" smooth="yes"/>
			<point x="-245" y="31"/>
			<point x="-202" y="62"/>
			<point x="-191" y="138" type="curve" smooth="yes"/>
			<point x="-178" y="224"/>
			<point x="-222" y="258"/>
			<point x="-305" y="258" type="curve" smooth="yes"/>
			<point x="-387" y="258"/>
			<point x="-430" y="227"/>
			<point x="-441" y="152" type="curve" smooth="yes"/>
			<point x="-454" y="65"/>
			<point x="-411" y="31"/>
		</contour>
	</outline>
</glyph>
<glyph name="dieresis.cap" format="2">
	<advance width="600"/>
	<outline>
		<contour>
			<point x="495" y="886" type="curve" smooth="yes"/>
			<point x="427" y="886"/>
			<point x="404" y="862"/>
			<point x="398" y="805" type="curve" smooth="yes"/>
			<point x="393" y="757"/>
			<point x="419" y="732"/>
			<point x="482" y="732" type="curve" smooth="yes"/>
			<point x="549" y="732"/>
			<point x="572" y="756"/>
			<point x="578" y="809" type="curve" smooth="yes"/>
			<point x="585" y="868"/>
			<point x="556" y="886"/>
		</contour>
		<contour>
			<point x="259" y="732" type="curve" smooth="yes"/>
			<point x="330" y="732"/>
			<point x="349" y="759"/>
			<point x="355" y="812" type="curve" smooth="yes"/>
			<point x="361" y="865"/>
			<point x="334" y="886"/>
			<point x="272" y="886" type="curve" smooth="yes"/>
			<point x="204" y="886"/>
			<point x="180" y="863"/>
			<point x="175" y="807" type="curve" smooth="yes"/>
			<point x="170" y="755"/>
			<point x="194" y="732"/>
		</contour>
	</outline>
	<anchor name="_top" x="359" y="684"/>
</glyph>
<glyph name="dotbelow" format="2">
	<advance width="600"/>
	<outline>
		<contour>
			<point x="234" y="-243" type="curve" smooth="yes"/>
			<point x="309" y="-243"/>
			<point x="340" y="-213"/>
			<point x="348" y="-149" type="curve" smooth="yes"/>
			<point x="356" y="-81"/>
			<point x="327" y="-47"/>
			<point x="249" y="-47" type="curve" smooth="yes"/>
			<point x="180" y="-47"/>
			<point x="143" y="-72"/>
			<point x="135" y="-140" type="curve" smooth="yes"/>
			<point x="127" y="-209"/>
			<point x="154" y="-243"/>
		</contour>
	</outline>
	<anchor name="bottom" x="263" y="0"/>
</glyph>
<glyph name="eight.numr" format="2">
	<advance width="600"/>
	<outline>
		<contour>
			<point x="325" y="366" type="curve" smooth="yes"/>
			<point x="429" y="366"/>
			<point x="477" y="409"/>
			<point x="477" y="471" type="curve" smooth="yes"/>
			<point x="477" y="516"/>
			<point x="448" y="535"/>
			<point x="409" y="545" type="curve"/>
			<point x="453" y="554"/>
			<point x="492" y="582"/>
			<point x="492" y="635" type="curve" smooth="yes"/>
			<point x="492" y="693"/>
			<point x="443" y="724"/>
			<point x="352" y="724" type="curve" smooth="yes"/>
			<point x="268" y="724"/>
			<point x="208" y="690"/>
			<point x="208" y="621" type="curve" smooth="yes"/>
			<point x="208" y="586"/>
			<point x="230" y="559"/>
			<point x="265" y="550" type="curve"/>
			<point x="217" y="542"/>
			<point x="180" y="512"/>
			<point x="180" y="458" type="curve" smooth="yes"/>
			<point x="180" y="392"/>
			<point x="241" y="366"/>
		</contour>
		<contour>
			<point x="347" y="577" type="curve" smooth="yes"/>
			<point x="326" y="577"/>
			<point x="313" y="587"/>
			<point x="313" y="609" type="curve" smooth="yes"/>
			<point x="313" y="635"/>
			<point x="328" y="649"/>
			<point x="353" y="649" type="curve" smooth="yes"/>
			<point x="374" y="649"/>
			<point x="387" y="639"/>
			<point x="387" y="617" type="curve" smooth="yes"/>
			<point x="387" y="591"/>
			<point x="372" y="577"/>
		</contour>
		<contour>
			<point x="326" y="444" type="curve" smooth="yes"/>
			<point x="304" y="444"/>
			<point x="291" y="454"/>
			<point x="291" y="477" type="curve" smooth="yes"/>
			<point x="291" y="504"/>
			<point x="306" y="518"/>
			<point x="332" y="518" type="curve" smooth="yes"/>
			<point x="354" y="518"/>
			<point x="367" y="508"/>
			<point x="367" y="485" type="curve" smooth="yes"/>
			<point x="367" y="458"/>
			<point x="352" y="444"/>
		</contour>
	</outline>
</glyph>
<glyph name="equal.den" format="2">
	<advance width="600"/>
	<outline>
		<contour>
			<point x="144" y="315" type="line"/>
			<point x="130" y="215" type="line"/>
			<point x="457" y="215" type="line"/>
			<point x="471" y="315" type="line"/>
		</contour>
		<contour>
			<point x="124" y="168" type="line"/>
			<point x="110" y="68" type="line"/>
			<point x="437" y="68" type="line"/>
			<point x="451" y="168" type="line"/>
		</contour>
	</outline>
</glyph>
<glyph name="equal.init" format="2">
	<advance width="600"/>
	<outline>
		<contour>
			<point x="162" y="351" type="line"/>
			<point x="612" y="351" type="line"/>
			<point x="635" y="511" type="line"/>
			<point x="185" y="511" type="line"/>
		</contour>
		<contour>
			<point x="129" y="118" type="line"/>
			<point x="579" y="118" type="line"/>
			<point x="602" y="278" type="line"/>
			<point x="152" y="278" type="line"/>
		</contour>
	</outline>
	<guideline x="418" y="629" angle="0"/>
</glyph>
<glyph name="equal_colon_equal.rem" format="2">
	<advance width="600"/>
	<outline>
		<contour>
			<point x="-287" y="308" type="curve" smooth="yes"/>
			<point x="-207" y="308"/>
			<point x="-164" y="339"/>
			<point x="-153" y="415" type="curve" smooth="yes"/>
			<point x="-140" y="501"/>
			<point x="-184" y="535"/>
			<point x="-267" y="535" type="curve" smooth="yes"/>
			<point x="-349" y="535"/>
			<point x="-392" y="504"/>
			<point x="-403" y="429" type="curve" smooth="yes"/>
			<point x="-416" y="342"/>
			<point x="-373" y="308"/>
		</contour>
		<contour>
			<point x="-28" y="314" type="line"/>
			<point x="456" y="314" type="line"/>
			<point x="479" y="474" type="line"/>
			<point x="-5" y="474" type="line"/>
		</contour>
		<contour>
			<point x="-1043" y="314" type="line"/>
			<point x="-559" y="314" type="line"/>
			<point x="-536" y="474" type="line"/>
			<point x="-1020" y="474" type="line"/>
		</contour>
		<contour>
			<point x="-1075" y="82" type="line"/>
			<point x="-591" y="82" type="line"/>
			<point x="-568" y="242" type="line"/>
			<point x="-1052" y="242" type="line"/>
		</contour>
		<contour>
			<point x="-60" y="82" type="line"/>
			<point x="424" y="82" type="line"/>
			<point x="447" y="242" type="line"/>
			<point x="-37" y="242" type="line"/>
		</contour>
		<contour>
			<point x="-329" y="9" type="curve" smooth="yes"/>
			<point x="-249" y="9"/>
			<point x="-206" y="40"/>
			<point x="-195" y="116" type="curve" smooth="yes"/>
			<point x="-182" y="202"/>
			<point x="-226" y="236"/>
			<point x="-309" y="236" type="curve" smooth="yes"/>
			<point x="-391" y="236"/>
			<point x="-434" y="205"/>
			<point x="-445" y="130" type="curve" smooth="yes"/>
			<point x="-458" y="43"/>
			<point x="-415" y="9"/>
		</contour>
	</outline>
</glyph>
<glyph name="equal_equal.cLig" format="2">
	<advance width="600"/>
	<outline>
		<contour>
			<point x="-442" y="314" type="line"/>
			<point x="458" y="314" type="line"/>
			<point x="481" y="474" type="line"/>
			<point x="-419" y="474" type="line"/>
		</contour>
		<contour>
			<point x="-474" y="82" type="line"/>
			<point x="426" y="82" type="line"/>
			<point x="449" y="242" type="line"/>
			<point x="-451" y="242" type="line"/>
		</contour>
	</outline>
</glyph>
<glyph name="equal_equal_equal.cLig" format="2">
	<advance width="600"/>
	<outline>
		<contour>
			<point x="-1023" y="452" type="line"/>
			<point x="477" y="452" type="line"/>
			<point x="497" y="598" type="line"/>
			<point x="-1003" y="598" type="line"/>
		</contour>
		<contour>
			<point x="-1053" y="240" type="line"/>
			<point x="447" y="240" type="line"/>
			<point x="467" y="386" type="line"/>
			<point x="-1033" y="386" type="line"/>
		</contour>
		<contour>
			<point x="-1083" y="28" type="line"/>
			<point x="417" y="28" type="line"/>
			<point x="438" y="174" type="line"/>
			<point x="-1062" y="174" type="line"/>
		</contour>
	</outline>
</glyph>
<glyph name="equal_exclam_equal.rem" format="2">
	<advance width="600"/>
	<outline>
		<contour>
			<point x="-372" y="255" type="line"/>
			<point x="-232" y="255" type="line"/>
			<point x="-151" y="574" type="line"/>
			<point x="-135" y="684" type="line"/>
			<point x="-348" y="684" type="line"/>
			<point x="-364" y="574" type="line"/>
		</contour>
		<contour>
			<point x="-28" y="314" type="line"/>
			<point x="456" y="314" type="line"/>
			<point x="479" y="474" type="line"/>
			<point x="-5" y="474" type="line"/>
		</contour>
		<contour>
			<point x="-1043" y="314" type="line"/>
			<point x="-559" y="314" type="line"/>
			<point x="-536" y="474" type="line"/>
			<point x="-1020" y="474" type="line"/>
		</contour>
		<contour>
			<point x="-1075" y="82" type="line"/>
			<point x="-591" y="82" type="line"/>
			<point x="-568" y="242" type="line"/>
			<point x="-1052" y="242" type="line"/>
		</contour>
		<contour>
			<point x="-60" y="82" type="line"/>
			<point x="424" y="82" type="line"/>
			<point x="447" y="242" type="line"/>
			<point x="-37" y="242" type="line"/>
		</contour>
		<contour>
			<point x="-332" y="-12" type="curve" smooth="yes"/>
			<point x="-258" y="-12"/>
			<point x="-220" y="15"/>
			<point x="-210" y="81" type="curve" smooth="yes"/>
			<point x="-197" y="164"/>
			<point x="-241" y="195"/>
			<point x="-317" y="195" type="curve" smooth="yes"/>
			<point x="-391" y="195"/>
			<point x="-429" y="168"/>
			<point x="-439" y="103" type="curve" smooth="yes"/>
			<point x="-452" y="19"/>
			<point x="-408" y="-12"/>
		</contour>
	</outline>
</glyph>
<glyph name="equal_greater.rem" format="2">
	<advance width="600"/>
	<outline>
		<contour>
			<point x="-471" y="118" type="line"/>
			<point x="98" y="118" type="line"/>
			<point x="-13" y="0" type="line"/>
			<point x="216" y="0" type="line"/>
			<point x="502" y="310" type="line"/>
			<point x="287" y="629" type="line"/>
			<point x="75" y="629" type="line"/>
			<point x="155" y="511" type="line"/>
			<point x="-415" y="511" type="line"/>
			<point x="-438" y="351" type="line"/>
			<point x="263" y="351" type="line"/>
			<point x="286" y="317" type="line"/>
			<point x="249" y="278" type="line"/>
			<point x="-448" y="278" type="line"/>
		</contour>
	</outline>
</glyph>
<glyph name="equal_less.rem" format="2">
	<advance width="600"/>
	<outline>
		<contour>
			<point x="452" y="278" type="line"/>
			<point x="-249" y="278" type="line"/>
			<point x="-272" y="312" type="line"/>
			<point x="-235" y="351" type="line"/>
			<point x="462" y="351" type="line"/>
			<point x="485" y="511" type="line"/>
			<point x="-84" y="511" type="line"/>
			<point x="27" y="629" type="line"/>
			<point x="-202" y="629" type="line"/>
			<point x="-488" y="319" type="line"/>
			<point x="-273" y="0" type="line"/>
			<point x="-61" y="0" type="line"/>
			<point x="-141" y="118" type="line"/>
			<point x="429" y="118" type="line"/>
		</contour>
	</outline>
</glyph>
<glyph name="equal_slash_equal.rem" format="2">
	<advance width="600"/>
	<outline>
		<contour>
			<point x="-1074" y="82" type="line"/>
			<point x="-538" y="82" type="line"/>
			<point x="-664" y="-82" type="line"/>
			<point x="-491" y="-82" type="line"/>
			<point x="-365" y="82" type="line"/>
			<point x="426" y="82" type="line"/>
			<point x="449" y="242" type="line"/>
			<point x="-243" y="242" type="line"/>
			<point x="-187" y="314" type="line"/>
			<point x="458" y="314" type="line"/>
			<point x="481" y="474" type="line"/>
			<point x="-65" y="474" type="line"/>
			<point x="64" y="642" type="line"/>
			<point x="-109" y="642" type="line"/>
			<point x="-238" y="474" type="line"/>
			<point x="-1019" y="474" type="line"/>
			<point x="-1042" y="314" type="line"/>
			<point x="-360" y="314" type="line"/>
			<point x="-416" y="242" type="line"/>
			<point x="-1051" y="242" type="line"/>
		</contour>
	</outline>
</glyph>
<glyph name="exclam_equal.cLig" format="2">
	<advance width="600"/>
	<outline>
		<contour>
			<point x="-475" y="82" type="line"/>
			<point x="-230" y="82" type="line"/>
			<point x="-356" y="-82" type="line"/>
			<point x="-183" y="-82" type="line"/>
			<point x="-57" y="82" type="line"/>
			<point x="425" y="82" type="line"/>
			<point x="448" y="242" type="line"/>
			<point x="65" y="242" type="line"/>
			<point x="121" y="314" type="line"/>
			<point x="457" y="314" type="line"/>
			<point x="480" y="474" type="line"/>
			<point x="243" y="474" type="line"/>
			<point x="372" y="642" type="line"/>
			<point x="199" y="642" type="line"/>
			<point x="70" y="474" type="line"/>
			<point x="-420" y="474" type="line"/>
			<point x="-443" y="314" type="line"/>
			<point x="-52" y="314" type="line"/>
			<point x="-108" y="242" type="line"/>
			<point x="-452" y="242" type="line"/>
		</contour>
	</outline>
</glyph>
<glyph name="exclam_equal.med" format="2">
	<advance width="600"/>
	<outline>
		<contour>
			<point x="229" y="255" type="line"/>
			<point x="369" y="255" type="line"/>
			<point x="450" y="574" type="line"/>
			<point x="466" y="684" type="line"/>
			<point x="253" y="684" type="line"/>
			<point x="237" y="574" type="line"/>
		</contour>
		<contour>
			<point x="522" y="354" type="line"/>
			<point x="612" y="354" type="line"/>
			<point x="635" y="514" type="line"/>
			<point x="545" y="514" type="line"/>
		</contour>
		<contour>
			<point x="13" y="354" type="line"/>
			<point x="102" y="354" type="line"/>
			<point x="125" y="514" type="line"/>
			<point x="35" y="514" type="line"/>
		</contour>
		<contour>
			<point x="490" y="122" type="line"/>
			<point x="580" y="122" type="line"/>
			<point x="603" y="282" type="line"/>
			<point x="513" y="282" type="line"/>
		</contour>
		<contour>
			<point x="-20" y="122" type="line"/>
			<point x="70" y="122" type="line"/>
			<point x="92" y="282" type="line"/>
			<point x="3" y="282" type="line"/>
		</contour>
		<contour>
			<point x="269" y="-12" type="curve" smooth="yes"/>
			<point x="343" y="-12"/>
			<point x="381" y="15"/>
			<point x="391" y="81" type="curve" smooth="yes"/>
			<point x="404" y="164"/>
			<point x="360" y="195"/>
			<point x="284" y="195" type="curve" smooth="yes"/>
			<point x="210" y="195"/>
			<point x="172" y="168"/>
			<point x="162" y="103" type="curve" smooth="yes"/>
			<point x="149" y="19"/>
			<point x="193" y="-12"/>
		</contour>
	</outline>
</glyph>
<glyph name="exclam_exclam_exclam.rem" format="2">
	<advance width="600"/>
	<outline>
		<contour>
			<point x="-844" y="255" type="line"/>
			<point x="-704" y="255" type="line"/>
			<point x="-623" y="574" type="line"/>
			<point x="-607" y="684" type="line"/>
			<point x="-820" y="684" type="line"/>
			<point x="-836" y="574" type="line"/>
		</contour>
		<contour>
			<point x="-804" y="-12" type="curve" smooth="yes"/>
			<point x="-730" y="-12"/>
			<point x="-692" y="15"/>
			<point x="-682" y="81" type="curve" smooth="yes"/>
			<point x="-669" y="164"/>
			<point x="-713" y="195"/>
			<point x="-789" y="195" type="curve" smooth="yes"/>
			<point x="-863" y="195"/>
			<point x="-901" y="168"/>
			<point x="-911" y="103" type="curve" smooth="yes"/>
			<point x="-924" y="19"/>
			<point x="-880" y="-12"/>
		</contour>
		<contour>
			<point x="-370" y="255" type="line"/>
			<point x="-230" y="255" type="line"/>
			<point x="-149" y="574" type="line"/>
			<point x="-133" y="684" type="line"/>
			<point x="-346" y="684" type="line"/>
			<point x="-362" y="574" type="line"/>
		</contour>
		<contour>
			<point x="-330" y="-12" type="curve" smooth="yes"/>
			<point x="-256" y="-12"/>
			<point x="-218" y="15"/>
			<point x="-208" y="81" type="curve" smooth="yes"/>
			<point x="-195" y="164"/>
			<point x="-239" y="195"/>
			<point x="-315" y="195" type="curve" smooth="yes"/>
			<point x="-389" y="195"/>
			<point x="-427" y="168"/>
			<point x="-437" y="103" type="curve" smooth="yes"/>
			<point x="-450" y="19"/>
			<point x="-406" y="-12"/>
		</contour>
		<contour>
			<point x="104" y="255" type="line"/>
			<point x="244" y="255" type="line"/>
			<point x="325" y="574" type="line"/>
			<point x="341" y="684" type="line"/>
			<point x="128" y="684" type="line"/>
			<point x="112" y="574" type="line"/>
		</contour>
		<contour>
			<point x="144" y="-12" type="curve" smooth="yes"/>
			<point x="218" y="-12"/>
			<point x="256" y="15"/>
			<point x="266" y="81" type="curve" smooth="yes"/>
			<point x="279" y="164"/>
			<point x="235" y="195"/>
			<point x="159" y="195" type="curve" smooth="yes"/>
			<point x="85" y="195"/>
			<point x="47" y="168"/>
			<point x="37" y="103" type="curve" smooth="yes"/>
			<point x="24" y="19"/>
			<point x="68" y="-12"/>
		</contour>
	</outline>
</glyph>
<glyph name="exclam_exclam_period.cLig" format="2">
	<advance width="600"/>
	<outline>
		<contour>
			<point x="-844" y="255" type="line"/>
			<point x="-704" y="255" type="line"/>
			<point x="-623" y="574" type="line"/>
			<point x="-607" y="684" type="line"/>
			<point x="-820" y="684" type="line"/>
			<point x="-836" y="574" type="line"/>
		</contour>
		<contour>
			<point x="-804" y="-12" type="curve" smooth="yes"/>
			<point x="-730" y="-12"/>
			<point x="-692" y="15"/>
			<point x="-682" y="81" type="curve" smooth="yes"/>
			<point x="-669" y="164"/>
			<point x="-713" y="195"/>
			<point x="-789" y="195" type="curve" smooth="yes"/>
			<point x="-863" y="195"/>
			<point x="-901" y="168"/>
			<point x="-911" y="103" type="curve" smooth="yes"/>
			<point x="-924" y="19"/>
			<point x="-880" y="-12"/>
		</contour>
		<contour>
			<point x="-370" y="255" type="line"/>
			<point x="-230" y="255" type="line"/>
			<point x="-149" y="574" type="line"/>
			<point x="-133" y="684" type="line"/>
			<point x="-346" y="684" type="line"/>
			<point x="-362" y="574" type="line"/>
		</contour>
		<contour>
			<point x="-330" y="-12" type="curve" smooth="yes"/>
			<point x="-256" y="-12"/>
			<point x="-218" y="15"/>
			<point x="-208" y="81" type="curve" smooth="yes"/>
			<point x="-195" y="164"/>
			<point x="-239" y="195"/>
			<point x="-315" y="195" type="curve" smooth="yes"/>
			<point x="-389" y="195"/>
			<point x="-427" y="168"/>
			<point x="-437" y="103" type="curve" smooth="yes"/>
			<point x="-450" y="19"/>
			<point x="-406" y="-12"/>
		</contour>
		<contour>
			<point x="144" y="-12" type="curve" smooth="yes"/>
			<point x="224" y="-12"/>
			<point x="267" y="19"/>
			<point x="278" y="95" type="curve" smooth="yes"/>
			<point x="291" y="181"/>
			<point x="247" y="215"/>
			<point x="164" y="215" type="curve" smooth="yes"/>
			<point x="82" y="215"/>
			<point x="39" y="184"/>
			<point x="28" y="109" type="curve" smooth="yes"/>
			<point x="15" y="22"/>
			<point x="58" y="-12"/>
		</contour>
	</outline>
</glyph>
<glyph name="five.den" format="2">
	<advance width="600"/>
	<outline>
		<contour>
			<point x="257" y="-8" type="curve" smooth="yes"/>
			<point x="372" y="-8"/>
			<point x="443" y="53"/>
			<point x="443" y="153" type="curve" smooth="yes"/>
			<point x="443" y="224"/>
			<point x="401" y="259"/>
			<point x="313" y="259" type="curve" smooth="yes"/>
			<point x="300" y="259"/>
			<point x="288" y="258"/>
			<point x="276" y="257" type="curve"/>
			<point x="284" y="312" type="line"/>
			<point x="453" y="312" type="line"/>
			<point x="466" y="410" type="line"/>
			<point x="181" y="410" type="line"/>
			<point x="147" y="163" type="line"/>
			<point x="174" y="168"/>
			<point x="206" y="173"/>
			<point x="242" y="173" type="curve" smooth="yes"/>
			<point x="296" y="173"/>
			<point x="315" y="163"/>
			<point x="315" y="138" type="curve" smooth="yes"/>
			<point x="315" y="108"/>
			<point x="294" y="93"/>
			<point x="253" y="93" type="curve" smooth="yes"/>
			<point x="216" y="93"/>
			<point x="169" y="103"/>
			<point x="126" y="126" type="curve"/>
			<point x="112" y="28" type="line"/>
			<point x="135" y="12"/>
			<point x="189" y="-8"/>
		</contour>
	</outline>
	<guideline x="209" y="432" angle="82"/>
</glyph>
<glyph name="greater_greater.cLig" format="2">
	<advance width="600"/>
	<outline>
		<contour>
			<point x="-558" y="14" type="line"/>
			<point x="-48" y="197" type="line"/>
			<point x="-18" y="412" type="line"/>
			<point x="-476" y="597" type="line"/>
			<point x="-500" y="419" type="line"/>
			<point x="-197" y="308" type="line"/>
			<point x="-531" y="201" type="line"/>
		</contour>
		<contour>
			<point x="12" y="14" type="line"/>
			<point x="522" y="197" type="line"/>
			<point x="552" y="412" type="line"/>
			<point x="94" y="597" type="line"/>
			<point x="70" y="419" type="line"/>
			<point x="373" y="308" type="line"/>
			<point x="39" y="201" type="line"/>
		</contour>
	</outline>
</glyph>
<glyph name="greater_greater_equal.fina" format="2">
	<advance width="600"/>
	<outline>
		<contour>
			<point x="5" y="0" type="line"/>
			<point x="233" y="0" type="line"/>
			<point x="507" y="312" type="line"/>
			<point x="284" y="629" type="line"/>
			<point x="74" y="629" type="line"/>
			<point x="295" y="319" type="line"/>
		</contour>
		<contour>
			<point x="-620" y="118" type="line"/>
			<point x="-295" y="118" type="line"/>
			<point x="-406" y="0" type="line"/>
			<point x="-177" y="0" type="line"/>
			<point x="109" y="310" type="line"/>
			<point x="-106" y="629" type="line"/>
			<point x="-318" y="629" type="line"/>
			<point x="-238" y="511" type="line"/>
			<point x="-564" y="511" type="line"/>
			<point x="-587" y="351" type="line"/>
			<point x="-130" y="351" type="line"/>
			<point x="-107" y="317" type="line"/>
			<point x="-144" y="278" type="line"/>
			<point x="-597" y="278" type="line"/>
		</contour>
	</outline>
</glyph>
<glyph name="greater_greater_equal.init" format="2">
	<advance width="600"/>
	<outline>
		<contour>
			<point x="-576" y="0" type="line"/>
			<point x="-350" y="0" type="line"/>
			<point x="-52" y="313" type="line"/>
			<point x="-275" y="629" type="line"/>
			<point x="-489" y="629" type="line"/>
			<point x="-266" y="322" type="line"/>
		</contour>
		<contour>
			<point x="93" y="351" type="line"/>
			<point x="612" y="351" type="line"/>
			<point x="635" y="511" type="line"/>
			<point x="191" y="511" type="line"/>
			<point x="113" y="629" type="line"/>
			<point x="-93" y="629" type="line"/>
		</contour>
		<contour>
			<point x="-178" y="0" type="line"/>
			<point x="45" y="0" type="line"/>
			<point x="155" y="118" type="line"/>
			<point x="579" y="118" type="line"/>
			<point x="602" y="278" type="line"/>
			<point x="82" y="278" type="line"/>
		</contour>
	</outline>
</glyph>
<glyph name="greater_greater_equal.med" format="2">
	<advance width="600"/>
	<outline>
		<contour>
			<point x="-620" y="118" type="line"/>
			<point x="-425" y="118" type="line"/>
			<point x="-536" y="0" type="line"/>
			<point x="-307" y="0" type="line"/>
			<point x="-21" y="310" type="line"/>
			<point x="-236" y="629" type="line"/>
			<point x="-448" y="629" type="line"/>
			<point x="-368" y="511" type="line"/>
			<point x="-565" y="511" type="line"/>
			<point x="-588" y="351" type="line"/>
			<point x="-260" y="351" type="line"/>
			<point x="-237" y="317" type="line"/>
			<point x="-274" y="278" type="line"/>
			<point x="-598" y="278" type="line"/>
		</contour>
		<contour>
			<point x="132" y="351" type="line"/>
			<point x="613" y="351" type="line"/>
			<point x="636" y="511" type="line"/>
			<point x="230" y="511" type="line"/>
			<point x="152" y="629" type="line"/>
			<point x="-54" y="629" type="line"/>
		</contour>
		<contour>
			<point x="-139" y="0" type="line"/>
			<point x="84" y="0" type="line"/>
			<point x="194" y="118" type="line"/>
			<point x="580" y="118" type="line"/>
			<point x="603" y="278" type="line"/>
			<point x="121" y="278" type="line"/>
		</contour>
	</outline>
</glyph>
<glyph name="greater_greater_greater.cLig" format="2">
	<advance width="600"/>
	<outline>
		<contour>
			<point x="-1158" y="14" type="line"/>
			<point x="-648" y="197" type="line"/>
			<point x="-618" y="412" type="line"/>
			<point x="-1076" y="597" type="line"/>
			<point x="-1100" y="419" type="line"/>
			<point x="-797" y="308" type="line"/>
			<point x="-1131" y="201" type="line"/>
		</contour>
		<contour>
			<point x="-578" y="14" type="line"/>
			<point x="-68" y="197" type="line"/>
			<point x="-38" y="412" type="line"/>
			<point x="-496" y="597" type="line"/>
			<point x="-520" y="419" type="line"/>
			<point x="-217" y="308" type="line"/>
			<point x="-551" y="201" type="line"/>
		</contour>
		<contour>
			<point x="2" y="14" type="line"/>
			<point x="512" y="197" type="line"/>
			<point x="542" y="412" type="line"/>
			<point x="84" y="597" type="line"/>
			<point x="60" y="419" type="line"/>
			<point x="363" y="308" type="line"/>
			<point x="29" y="201" type="line"/>
		</contour>
	</outline>
</glyph>
<glyph name="greater_greater_hyphen.fina" format="2">
	<advance width="600"/>
	<outline>
		<contour>
			<point x="-4" y="0" type="line"/>
			<point x="223" y="0" type="line"/>
			<point x="507" y="314" type="line"/>
			<point x="290" y="629" type="line"/>
			<point x="82" y="629" type="line"/>
			<point x="293" y="323" type="line"/>
		</contour>
		<contour>
			<point x="-308" y="629" type="line"/>
			<point x="-144" y="400" type="line"/>
			<point x="-581" y="400" type="line"/>
			<point x="-605" y="228" type="line"/>
			<point x="-176" y="228" type="line"/>
			<point x="-401" y="0" type="line"/>
			<point x="-182" y="0" type="line"/>
			<point x="123" y="314" type="line"/>
			<point x="-100" y="629" type="line"/>
		</contour>
	</outline>
</glyph>
<glyph name="greater_greater_hyphen.init" format="2">
	<advance width="600"/>
	<outline>
		<contour>
			<point x="-555" y="0" type="line"/>
			<point x="-328" y="0" type="line"/>
			<point x="-44" y="314" type="line"/>
			<point x="-261" y="629" type="line"/>
			<point x="-469" y="629" type="line"/>
			<point x="-257" y="321" type="line"/>
		</contour>
		<contour>
			<point x="-165" y="0" type="line"/>
			<point x="62" y="0" type="line"/>
			<point x="268" y="228" type="line"/>
			<point x="595" y="228" type="line"/>
			<point x="619" y="400" type="line"/>
			<point x="287" y="400" type="line"/>
			<point x="129" y="629" type="line"/>
			<point x="-79" y="629" type="line"/>
			<point x="129" y="324" type="line"/>
		</contour>
	</outline>
</glyph>
<glyph name="greater_hyphen_greater.rem" format="2">
	<advance width="600"/>
	<outline>
		<contour>
			<point x="-1125" y="0" type="line"/>
			<point x="-898" y="0" type="line"/>
			<point x="-692" y="228" type="line"/>
			<point x="192" y="228" type="line"/>
			<point x="-33" y="0" type="line"/>
			<point x="186" y="0" type="line"/>
			<point x="491" y="314" type="line"/>
			<point x="268" y="629" type="line"/>
			<point x="60" y="629" type="line"/>
			<point x="224" y="400" type="line"/>
			<point x="-673" y="400" type="line"/>
			<point x="-831" y="629" type="line"/>
			<point x="-1039" y="629" type="line"/>
			<point x="-831" y="324" type="line"/>
		</contour>
	</outline>
</glyph>
<glyph name="hyphen.med" format="2">
	<advance width="600"/>
	<outline>
		<contour>
			<point x="620" y="400" type="line"/>
			<point x="20" y="400" type="line"/>
			<point x="-4" y="228" type="line"/>
			<point x="596" y="228" type="line"/>
		</contour>
	</outline>
</glyph>
<glyph name="hyphen_asciitilde.cLig" format="2">
	<advance width="600"/>
	<outline>
		<contour>
			<point x="-454" y="218" type="line"/>
			<point x="19" y="218" type="line"/>
			<point x="28" y="255"/>
			<point x="46" y="283"/>
			<point x="81" y="283" type="curve" smooth="yes"/>
			<point x="138" y="283"/>
			<point x="165" y="170"/>
			<point x="272" y="170" type="curve" smooth="yes"/>
			<point x="375" y="170"/>
			<point x="444" y="244"/>
			<point x="467" y="441" type="curve"/>
			<point x="325" y="441" type="line"/>
			<point x="320" y="379"/>
			<point x="302" y="346"/>
			<point x="270" y="346" type="curve" smooth="yes"/>
			<point x="219" y="346"/>
			<point x="181" y="453"/>
			<point x="72" y="453" type="curve" smooth="yes"/>
			<point x="25" y="453"/>
			<point x="-17" y="437"/>
			<point x="-50" y="390" type="curve"/>
			<point x="-429" y="390" type="line"/>
		</contour>
	</outline>
</glyph>
<glyph name="hyphen_bar.rem" format="2">
	<advance width="600"/>
	<outline>
		<contour>
			<point x="279" y="684" type="line"/>
			<point x="239" y="400" type="line"/>
			<point x="-431" y="400" type="line"/>
			<point x="-455" y="228" type="line"/>
			<point x="215" y="228" type="line"/>
			<point x="175" y="-55" type="line"/>
			<point x="355" y="-55" type="line"/>
			<point x="459" y="684" type="line"/>
		</contour>
	</outline>
</glyph>
<glyph name="hyphen_bar_bar.rem" format="2">
	<advance width="600"/>
	<outline>
		<contour>
			<point x="79" y="683" type="line"/>
			<point x="-101" y="683" type="line"/>
			<point x="-141" y="400" type="line"/>
			<point x="-1031" y="400" type="line"/>
			<point x="-1055" y="228" type="line"/>
			<point x="-165" y="228" type="line"/>
			<point x="-205" y="-56" type="line"/>
			<point x="-25" y="-56" type="line"/>
		</contour>
		<contour>
			<point x="459" y="683" type="line"/>
			<point x="279" y="683" type="line"/>
			<point x="175" y="-56" type="line"/>
			<point x="355" y="-56" type="line"/>
		</contour>
	</outline>
</glyph>
<glyph name="hyphen_hyphen.cLig" format="2">
	<advance width="600"/>
	<outline>
		<contour>
			<point x="-60" y="390" type="line"/>
			<point x="-430" y="390" type="line"/>
			<point x="-453" y="218" type="line"/>
			<point x="-84" y="218" type="line"/>
		</contour>
		<contour>
			<point x="465" y="390" type="line"/>
			<point x="95" y="390" type="line"/>
			<point x="72" y="218" type="line"/>
			<point x="441" y="218" type="line"/>
		</contour>
	</outline>
</glyph>
<glyph name="k.ss01" format="2">
	<advance width="600"/>
	<outline>
		<contour>
			<point x="13" y="0" type="line"/>
			<point x="207" y="0" type="line"/>
			<point x="223" y="117" type="line"/>
			<point x="287" y="194" type="line"/>
			<point x="357" y="0" type="line"/>
			<point x="567" y="0" type="line"/>
			<point x="453" y="306" type="line"/>
			<point x="632" y="525" type="line"/>
			<point x="414" y="525" type="line"/>
			<point x="251" y="311" type="line"/>
			<point x="313" y="750" type="line"/>
			<point x="119" y="750" type="line"/>
		</contour>
	</outline>
	<anchor name="bottom" x="301" y="0"/>
	<guideline x="12" y="0" angle="82" identifier="Bf9HRzq8LK"/>
</glyph>
<glyph name="less_asciitilde.cLig" format="2">
	<advance width="600"/>
	<outline>
		<contour>
			<point x="-91" y="0" type="line"/>
			<point x="-255" y="229" type="line"/>
			<point x="88" y="229" type="line"/>
			<point x="97" y="266"/>
			<point x="115" y="294"/>
			<point x="150" y="294" type="curve" smooth="yes"/>
			<point x="207" y="294"/>
			<point x="234" y="181"/>
			<point x="341" y="181" type="curve" smooth="yes"/>
			<point x="444" y="181"/>
			<point x="513" y="255"/>
			<point x="536" y="452" type="curve"/>
			<point x="394" y="452" type="line"/>
			<point x="389" y="390"/>
			<point x="371" y="357"/>
			<point x="339" y="357" type="curve" smooth="yes"/>
			<point x="288" y="357"/>
			<point x="250" y="464"/>
			<point x="141" y="464" type="curve" smooth="yes"/>
			<point x="94" y="464"/>
			<point x="52" y="448"/>
			<point x="19" y="401" type="curve"/>
			<point x="-223" y="401" type="line"/>
			<point x="2" y="629" type="line"/>
			<point x="-217" y="629" type="line"/>
			<point x="-522" y="315" type="line"/>
			<point x="-299" y="0" type="line"/>
		</contour>
	</outline>
</glyph>
<glyph name="less_asciitilde_greater.cLig" format="2">
	<advance width="600"/>
	<outline>
		<contour>
			<point x="-850" y="0" type="line"/>
			<point x="-645" y="0" type="line"/>
			<point x="-808" y="229" type="line"/>
			<point x="-470" y="229" type="line"/>
			<point x="-465" y="262"/>
			<point x="-445" y="292"/>
			<point x="-408" y="292" type="curve" smooth="yes"/>
			<point x="-314" y="292"/>
			<point x="-304" y="164"/>
			<point x="-163" y="164" type="curve" smooth="yes"/>
			<point x="-114" y="164"/>
			<point x="-73" y="189"/>
			<point x="-47" y="229" type="curve"/>
			<point x="190" y="229" type="line"/>
			<point x="-42" y="0" type="line"/>
			<point x="179" y="0" type="line"/>
			<point x="487" y="314" type="line"/>
			<point x="264" y="629" type="line"/>
			<point x="59" y="629" type="line"/>
			<point x="227" y="401" type="line"/>
			<point x="-116" y="401" type="line"/>
			<point x="-121" y="368"/>
			<point x="-140" y="338"/>
			<point x="-178" y="338" type="curve" smooth="yes"/>
			<point x="-253" y="338"/>
			<point x="-280" y="466"/>
			<point x="-419" y="466" type="curve" smooth="yes"/>
			<point x="-470" y="466"/>
			<point x="-513" y="441"/>
			<point x="-539" y="401" type="curve"/>
			<point x="-776" y="401" type="line"/>
			<point x="-545" y="629" type="line"/>
			<point x="-765" y="629" type="line"/>
			<point x="-1073" y="315" type="line"/>
		</contour>
	</outline>
</glyph>
<glyph name="less_asterisk_greater.cLig" format="2">
	<advance width="600"/>
	<outline>
		<contour>
			<point x="-2" y="-14" type="line"/>
			<point x="483" y="209" type="line"/>
			<point x="513" y="423" type="line"/>
			<point x="92" y="645" type="line"/>
			<point x="65" y="468" type="line"/>
			<point x="359" y="320" type="line"/>
			<point x="26" y="180" type="line"/>
		</contour>
		<contour>
			<point x="-676" y="-14" type="line"/>
			<point x="-649" y="163" type="line"/>
			<point x="-944" y="311" type="line"/>
			<point x="-610" y="451" type="line"/>
			<point x="-582" y="645" type="line"/>
			<point x="-1067" y="422" type="line"/>
			<point x="-1097" y="208" type="line"/>
		</contour>
		<contour>
			<point x="-495" y="117" type="line"/>
			<point x="-343" y="251" type="line"/>
			<point x="-419" y="69" type="line"/>
			<point x="-236" y="69" type="line"/>
			<point x="-262" y="250" type="line"/>
			<point x="-150" y="117" type="line"/>
			<point x="-35" y="274" type="line"/>
			<point x="-210" y="321" type="line"/>
			<point x="-21" y="368" type="line"/>
			<point x="-89" y="526" type="line"/>
			<point x="-243" y="390" type="line"/>
			<point x="-165" y="575" type="line"/>
			<point x="-348" y="575" type="line"/>
			<point x="-323" y="392" type="line"/>
			<point x="-438" y="528" type="line"/>
			<point x="-551" y="370" type="line"/>
			<point x="-373" y="322" type="line"/>
			<point x="-563" y="275" type="line"/>
		</contour>
	</outline>
</glyph>
<glyph name="less_bar_bar_bar.cLig" format="2">
	<advance width="600"/>
	<outline>
		<contour>
			<point x="-788" y="707" type="line"/>
			<point x="-968" y="707" type="line"/>
			<point x="-1512" y="420" type="line"/>
			<point x="-1542" y="206" type="line"/>
			<point x="-1078" y="-80" type="line"/>
			<point x="-898" y="-80" type="line"/>
		</contour>
		<contour>
			<point x="-228" y="708" type="line"/>
			<point x="-408" y="708" type="line"/>
			<point x="-518" y="-79" type="line"/>
			<point x="-338" y="-79" type="line"/>
		</contour>
		<contour>
			<point x="332" y="708" type="line"/>
			<point x="152" y="708" type="line"/>
			<point x="42" y="-79" type="line"/>
			<point x="222" y="-79" type="line"/>
		</contour>
		<contour>
			<point x="-1049" y="110" type="line"/>
			<point x="-1374" y="304" type="line"/>
			<point x="-996" y="498" type="line"/>
		</contour>
	</outline>
</glyph>
<glyph name="less_equal_equal.rem" format="2">
	<advance width="600"/>
	<outline>
		<contour>
			<point x="485" y="511" type="line"/>
			<point x="-673" y="511" type="line"/>
			<point x="-562" y="629" type="line"/>
			<point x="-791" y="629" type="line"/>
			<point x="-1077" y="319" type="line"/>
			<point x="-862" y="0" type="line"/>
			<point x="-650" y="0" type="line"/>
			<point x="-730" y="118" type="line"/>
			<point x="429" y="118" type="line"/>
			<point x="452" y="278" type="line"/>
			<point x="-838" y="278" type="line"/>
			<point x="-861" y="312" type="line"/>
			<point x="-824" y="351" type="line"/>
			<point x="462" y="351" type="line"/>
		</contour>
	</outline>
</glyph>
<glyph name="less_equal_equal_greater.rem" format="2">
	<advance width="600"/>
	<outline>
		<contour>
			<point x="-23" y="0" type="line"/>
			<point x="206" y="0" type="line"/>
			<point x="492" y="310" type="line"/>
			<point x="277" y="629" type="line"/>
			<point x="65" y="629" type="line"/>
			<point x="145" y="511" type="line"/>
			<point x="-1273" y="511" type="line"/>
			<point x="-1162" y="629" type="line"/>
			<point x="-1391" y="629" type="line"/>
			<point x="-1677" y="319" type="line"/>
			<point x="-1462" y="0" type="line"/>
			<point x="-1250" y="0" type="line"/>
			<point x="-1330" y="118" type="line"/>
			<point x="88" y="118" type="line"/>
		</contour>
		<contour>
			<point x="276" y="317" type="line"/>
			<point x="239" y="278" type="line"/>
			<point x="-1438" y="278" type="line"/>
			<point x="-1461" y="312" type="line"/>
			<point x="-1424" y="351" type="line"/>
			<point x="253" y="351" type="line"/>
		</contour>
	</outline>
</glyph>
<glyph name="less_equal_greater.rem" format="2">
	<advance width="600"/>
	<outline>
		<contour>
			<point x="-23" y="0" type="line"/>
			<point x="206" y="0" type="line"/>
			<point x="492" y="310" type="line"/>
			<point x="277" y="629" type="line"/>
			<point x="65" y="629" type="line"/>
			<point x="145" y="511" type="line"/>
			<point x="-673" y="511" type="line"/>
			<point x="-562" y="629" type="line"/>
			<point x="-791" y="629" type="line"/>
			<point x="-1077" y="319" type="line"/>
			<point x="-862" y="0" type="line"/>
			<point x="-650" y="0" type="line"/>
			<point x="-730" y="118" type="line"/>
			<point x="88" y="118" type="line"/>
		</contour>
		<contour>
			<point x="276" y="317" type="line"/>
			<point x="239" y="278" type="line"/>
			<point x="-838" y="278" type="line"/>
			<point x="-861" y="312" type="line"/>
			<point x="-824" y="351" type="line"/>
			<point x="253" y="351" type="line"/>
		</contour>
	</outline>
</glyph>
<glyph name="less_exclam_hyphen_hyphen.cLig" format="2">
	<advance width="600"/>
	<outline>
		<contour>
			<point x="-1001" y="255" type="line"/>
			<point x="-861" y="255" type="line"/>
			<point x="-780" y="574" type="line"/>
			<point x="-764" y="684" type="line"/>
			<point x="-977" y="684" type="line"/>
			<point x="-993" y="574" type="line"/>
		</contour>
		<contour>
			<point x="-1246" y="0" type="line"/>
			<point x="-1410" y="229" type="line"/>
			<point x="-1150" y="229" type="line"/>
			<point x="-1126" y="401" type="line"/>
			<point x="-1378" y="401" type="line"/>
			<point x="-1153" y="629" type="line"/>
			<point x="-1372" y="629" type="line"/>
			<point x="-1677" y="315" type="line"/>
			<point x="-1454" y="0" type="line"/>
		</contour>
		<contour>
			<point x="469" y="400" type="line"/>
			<point x="-696" y="400" type="line"/>
			<point x="-720" y="228" type="line"/>
			<point x="445" y="228" type="line"/>
		</contour>
		<contour>
			<point x="-961" y="-12" type="curve" smooth="yes"/>
			<point x="-887" y="-12"/>
			<point x="-849" y="15"/>
			<point x="-839" y="81" type="curve" smooth="yes"/>
			<point x="-826" y="164"/>
			<point x="-870" y="195"/>
			<point x="-946" y="195" type="curve" smooth="yes"/>
			<point x="-1020" y="195"/>
			<point x="-1058" y="168"/>
			<point x="-1068" y="103" type="curve" smooth="yes"/>
			<point x="-1081" y="19"/>
			<point x="-1037" y="-12"/>
		</contour>
	</outline>
</glyph>
<glyph name="less_hyphen.rem" format="2">
	<advance width="600"/>
	<outline>
		<contour>
			<point x="-46" y="0" type="line"/>
			<point x="-210" y="229" type="line"/>
			<point x="445" y="229" type="line"/>
			<point x="469" y="401" type="line"/>
			<point x="-178" y="401" type="line"/>
			<point x="47" y="629" type="line"/>
			<point x="-172" y="629" type="line"/>
			<point x="-477" y="315" type="line"/>
			<point x="-254" y="0" type="line"/>
		</contour>
	</outline>
</glyph>
<glyph name="less_hyphen_bar.rem" format="2">
	<advance width="600"/>
	<outline>
		<contour>
			<point x="502" y="629" type="line"/>
			<point x="322" y="629" type="line"/>
			<point x="290" y="401" type="line"/>
			<point x="-777" y="401" type="line"/>
			<point x="-552" y="629" type="line"/>
			<point x="-771" y="629" type="line"/>
			<point x="-1076" y="315" type="line"/>
			<point x="-853" y="0" type="line"/>
			<point x="-645" y="0" type="line"/>
			<point x="-809" y="229" type="line"/>
			<point x="266" y="229" type="line"/>
			<point x="234" y="0" type="line"/>
			<point x="414" y="0" type="line"/>
		</contour>
	</outline>
</glyph>
<glyph name="less_hyphen_greater.rem" format="2">
	<advance width="600"/>
	<outline>
		<contour>
			<point x="-646" y="0" type="line"/>
			<point x="-810" y="229" type="line"/>
			<point x="-455" y="229" type="line"/>
			<point x="-455" y="228" type="line"/>
			<point x="192" y="228" type="line"/>
			<point x="-33" y="0" type="line"/>
			<point x="186" y="0" type="line"/>
			<point x="491" y="314" type="line"/>
			<point x="268" y="629" type="line"/>
			<point x="60" y="629" type="line"/>
			<point x="224" y="400" type="line"/>
			<point x="-131" y="400" type="line"/>
			<point x="-131" y="401" type="line"/>
			<point x="-778" y="401" type="line"/>
			<point x="-553" y="629" type="line"/>
			<point x="-772" y="629" type="line"/>
			<point x="-1077" y="315" type="line"/>
			<point x="-854" y="0" type="line"/>
		</contour>
	</outline>
</glyph>
<glyph name="less_hyphen_less.rem" format="2">
	<advance width="600"/>
	<outline>
		<contour>
			<point x="-647" y="-1" type="line"/>
			<point x="-811" y="228" type="line"/>
			<point x="86" y="228" type="line"/>
			<point x="244" y="-1" type="line"/>
			<point x="452" y="-1" type="line"/>
			<point x="244" y="304" type="line"/>
			<point x="538" y="628" type="line"/>
			<point x="311" y="628" type="line"/>
			<point x="105" y="400" type="line"/>
			<point x="-779" y="400" type="line"/>
			<point x="-554" y="628" type="line"/>
			<point x="-773" y="628" type="line"/>
			<point x="-1078" y="314" type="line"/>
			<point x="-855" y="-1" type="line"/>
		</contour>
	</outline>
</glyph>
<glyph name="less_less.cLig" format="2">
	<advance width="600"/>
	<outline>
		<contour>
			<point x="-83" y="14" type="line"/>
			<point x="-59" y="192" type="line"/>
			<point x="-363" y="302" type="line"/>
			<point x="-28" y="410" type="line"/>
			<point x="-1" y="597" type="line"/>
			<point x="-511" y="411" type="line"/>
			<point x="-541" y="197" type="line"/>
		</contour>
		<contour>
			<point x="487" y="14" type="line"/>
			<point x="511" y="192" type="line"/>
			<point x="207" y="302" type="line"/>
			<point x="542" y="410" type="line"/>
			<point x="569" y="597" type="line"/>
			<point x="59" y="411" type="line"/>
			<point x="29" y="197" type="line"/>
		</contour>
	</outline>
</glyph>
<glyph name="less_less_equal.fina" format="2">
	<advance width="600"/>
	<outline>
		<contour>
			<point x="591" y="629" type="line"/>
			<point x="365" y="629" type="line"/>
			<point x="67" y="316" type="line"/>
			<point x="290" y="0" type="line"/>
			<point x="504" y="0" type="line"/>
			<point x="281" y="307" type="line"/>
		</contour>
		<contour>
			<point x="-78" y="278" type="line"/>
			<point x="-597" y="278" type="line"/>
			<point x="-620" y="118" type="line"/>
			<point x="-176" y="118" type="line"/>
			<point x="-98" y="0" type="line"/>
			<point x="108" y="0" type="line"/>
		</contour>
		<contour>
			<point x="193" y="629" type="line"/>
			<point x="-30" y="629" type="line"/>
			<point x="-140" y="511" type="line"/>
			<point x="-564" y="511" type="line"/>
			<point x="-587" y="351" type="line"/>
			<point x="-67" y="351" type="line"/>
		</contour>
	</outline>
</glyph>
<glyph name="less_less_equal.med" format="2">
	<advance width="600"/>
	<outline>
		<contour>
			<point x="635" y="511" type="line"/>
			<point x="440" y="511" type="line"/>
			<point x="551" y="629" type="line"/>
			<point x="322" y="629" type="line"/>
			<point x="36" y="319" type="line"/>
			<point x="251" y="0" type="line"/>
			<point x="463" y="0" type="line"/>
			<point x="383" y="118" type="line"/>
			<point x="580" y="118" type="line"/>
			<point x="603" y="278" type="line"/>
			<point x="275" y="278" type="line"/>
			<point x="252" y="312" type="line"/>
			<point x="289" y="351" type="line"/>
			<point x="613" y="351" type="line"/>
		</contour>
		<contour>
			<point x="-117" y="278" type="line"/>
			<point x="-598" y="278" type="line"/>
			<point x="-621" y="118" type="line"/>
			<point x="-215" y="118" type="line"/>
			<point x="-137" y="0" type="line"/>
			<point x="69" y="0" type="line"/>
		</contour>
		<contour>
			<point x="154" y="629" type="line"/>
			<point x="-69" y="629" type="line"/>
			<point x="-179" y="511" type="line"/>
			<point x="-565" y="511" type="line"/>
			<point x="-588" y="351" type="line"/>
			<point x="-106" y="351" type="line"/>
		</contour>
	</outline>
</glyph>
<glyph name="less_less_equal.rem" format="2">
	<advance width="600"/>
	<outline>
		<contour>
			<point x="-576" y="629" type="line"/>
			<point x="-804" y="629" type="line"/>
			<point x="-1078" y="317" type="line"/>
			<point x="-855" y="0" type="line"/>
			<point x="-645" y="0" type="line"/>
			<point x="-866" y="310" type="line"/>
		</contour>
		<contour>
			<point x="485" y="511" type="line"/>
			<point x="-276" y="511" type="line"/>
			<point x="-165" y="629" type="line"/>
			<point x="-394" y="629" type="line"/>
			<point x="-680" y="319" type="line"/>
			<point x="-465" y="0" type="line"/>
			<point x="-253" y="0" type="line"/>
			<point x="-333" y="118" type="line"/>
			<point x="429" y="118" type="line"/>
			<point x="452" y="278" type="line"/>
			<point x="-441" y="278" type="line"/>
			<point x="-464" y="312" type="line"/>
			<point x="-427" y="351" type="line"/>
			<point x="462" y="351" type="line"/>
		</contour>
	</outline>
</glyph>
